{
.appVersion = "1230";
copyright = "-";
customParameters = (
{
name = macintoshFONDName;
value = "Comic Neue";
},
{
name = note;
value = "";
},
{
name = openTypeNameLicense;
value = "Licensed under the SIL Open Font License. Version 1.1.";
},
{
name = openTypeNameLicenseURL;
value = "http://scripts.sil.org/OFL";
},
{
name = openTypeNameUniqueID;
value = "2.003;;Comic Neue Light Oblique";
},
{
name = openTypeNameVersion;
value = "Version 2.003";
},
{
name = codePageRanges;
value = (
1252,
1250
);
},
{
name = openTypeOS2FamilyClass;
value = (
0,
0
);
},
{
name = openTypeOS2Panose;
value = (
2,
0,
0,
0,
0,
0,
0,
0,
0,
0
);
},
{
name = openTypeOS2StrikeoutPosition;
value = 300;
},
{
name = openTypeOS2StrikeoutSize;
value = 50;
},
{
name = openTypeOS2SubscriptXOffset;
value = -16;
},
{
name = openTypeOS2SubscriptXSize;
value = 650;
},
{
name = openTypeOS2SubscriptYOffset;
value = 75;
},
{
name = openTypeOS2SubscriptYSize;
value = 600;
},
{
name = openTypeOS2SuperscriptXOffset;
value = 74;
},
{
name = openTypeOS2SuperscriptXSize;
value = 650;
},
{
name = openTypeOS2SuperscriptYOffset;
value = 350;
},
{
name = openTypeOS2SuperscriptYSize;
value = 600;
},
{
name = fsType;
value = (
);
},
{
name = unicodeRanges;
value = (
0,
1,
2
);
},
{
name = vendorID;
value = "    ";
},
{
name = blueFuzz;
value = 1;
},
{
name = blueScale;
value = 0.03963;
},
{
name = blueShift;
value = 7;
},
{
name = postscriptForceBold;
value = 0;
},
{
name = trademark;
value = "-";
}
);
date = "2016-09-14 09:46:34 +0000";
designer = "Craig Rozynski";
designerURL = "http://www.craigrozynski.com";
disablesNiceNames = 1;
familyName = "Comic Neue";
featurePrefixes = (
{
code = "languagesystem DFLT dflt;\012languagesystem latn dflt;\012";
name = Languagesystems;
},
{

glyphs = (
{
glyphname = A;
layers = (
{
layerId = master01;
paths = (
{
closed = 1;
nodes = (
"165 203 LINE",
"126 194 LINE",
"113 192 OFFCURVE",
"107 202 OFFCURVE",
"110 212 CURVE SMOOTH",
"112 222 OFFCURVE",
"120 229 OFFCURVE",
"129 231 CURVE SMOOTH",
"190 244 LINE",
"452 677 LINE SMOOTH",
"457 684 OFFCURVE",
"465 689 OFFCURVE",
"474 689 CURVE SMOOTH",
"484 689 OFFCURVE",
"489 683 OFFCURVE",
"489 677 CURVE",
"574 32 LINE SMOOTH",
"575 23 OFFCURVE",
"574 18 OFFCURVE",
"574 15 CURVE",
"571 4 OFFCURVE",
"560 -1 OFFCURVE",
"549 -1 CURVE SMOOTH",
"541 -1 OFFCURVE",
"536 3 OFFCURVE",
"535 11 CURVE SMOOTH",
"501 272 LINE",
"211 211 LINE",
"91 11 LINE SMOOTH",
"86 4 OFFCURVE",
"80 0 OFFCURVE",
"72 0 CURVE SMOOTH",
"60 0 OFFCURVE",
"52 8 OFFCURVE",
"54 18 CURVE SMOOTH",
"55 21 OFFCURVE",
"57 25 OFFCURVE",
"58 27 CURVE SMOOTH"
);
},
{
closed = 1;
nodes = (
"496 307 LINE",
"455 614 LINE",
"237 253 LINE"
);
}
);
userData = {
com.fontlab.hintData = {
hhints = (
{
position = 0;
width = 20;
},
{
position = 669;
width = 20;
}
);
vhints = (
{
position = 535;
width = 39;
}
);
};
};
width = 614;
}
);
unicode = 0041;
},
{
glyphname = Aacute;
layers = (
{
layerId = master01;
paths = (
{
closed = 1;
nodes = (
"165 203 LINE",
"126 194 LINE",
"113 192 OFFCURVE",
"107 202 OFFCURVE",
"110 212 CURVE SMOOTH",
"112 222 OFFCURVE",
"120 229 OFFCURVE",
"129 231 CURVE SMOOTH",
"190 244 LINE",
"452 677 LINE SMOOTH",
"457 684 OFFCURVE",
"465 689 OFFCURVE",
"474 689 CURVE SMOOTH",
"484 689 OFFCURVE",
"489 683 OFFCURVE",
"489 677 CURVE",
"574 32 LINE SMOOTH",
"575 23 OFFCURVE",
"574 18 OFFCURVE",
"574 15 CURVE",
"571 4 OFFCURVE",
"560 -1 OFFCURVE",
"549 -1 CURVE SMOOTH",
"541 -1 OFFCURVE",
"536 3 OFFCURVE",
"535 11 CURVE SMOOTH",
"501 272 LINE",
"211 211 LINE",
"91 11 LINE SMOOTH",
"86 4 OFFCURVE",
"80 0 OFFCURVE",
"72 0 CURVE SMOOTH",
"60 0 OFFCURVE",
"52 8 OFFCURVE",
"54 18 CURVE SMOOTH",
"55 21 OFFCURVE",
"57 25 OFFCURVE",
"58 27 CURVE SMOOTH"
);
},
{
closed = 1;
nodes = (
"496 307 LINE",
"455 614 LINE",
"237 253 LINE"
);
},
{
closed = 1;
nodes = (
"446 759 LINE SMOOTH",
"438 754 OFFCURVE",
"432 752 OFFCURVE",
"428 752 CURVE SMOOTH",
"419 752 OFFCURVE",
"413 760 OFFCURVE",
"415 769 CURVE SMOOTH",
"416 772 OFFCURVE",
"417 777 OFFCURVE",
"424 782 CURVE SMOOTH",
"574 886 LINE SMOOTH",
"584 893 OFFCURVE",
"593 900 OFFCURVE",
"603 900 CURVE SMOOTH",
"612.655 900 OFFCURVE",
"621.539 889.985 OFFCURVE",
"621.539 878.069 CURVE SMOOTH",
"621.539 876.409 OFFCURVE",
"621.367 874.712 OFFCURVE",
"621 873 CURVE SMOOTH",
"620 866 OFFCURVE",
"618 862 OFFCURVE",
"610 857 CURVE SMOOTH"
);
}
);
userData = {
com.fontlab.hintData = {
hhints = (
{
position = 0;
width = 20;
},
{
position = 669;
width = 20;
}
);
vhints = (
{
position = 535;
width = 39;
}
);
};
};
width = 614;
}
);
unicode = 00C1;
},
{
glyphname = Abreve;
layers = (
{
layerId = master01;
paths = (
{
closed = 1;
nodes = (
"165 203 LINE",
"126 194 LINE",
"113 192 OFFCURVE",
"107 202 OFFCURVE",
"110 212 CURVE SMOOTH",
"112 222 OFFCURVE",
"120 229 OFFCURVE",
"129 231 CURVE SMOOTH",
"190 244 LINE",
"452 677 LINE SMOOTH",
"457 684 OFFCURVE",
"465 689 OFFCURVE",
"474 689 CURVE SMOOTH",
"484 689 OFFCURVE",
"489 683 OFFCURVE",
"489 677 CURVE",
"574 32 LINE SMOOTH",
"575 23 OFFCURVE",
"574 18 OFFCURVE",
"574 15 CURVE",
"571 4 OFFCURVE",
"560 -1 OFFCURVE",
"549 -1 CURVE SMOOTH",
"541 -1 OFFCURVE",
"536 3 OFFCURVE",
"535 11 CURVE SMOOTH",
"501 272 LINE",
"211 211 LINE",
"91 11 LINE SMOOTH",
"86 4 OFFCURVE",
"80 0 OFFCURVE",
"72 0 CURVE SMOOTH",
"60 0 OFFCURVE",
"52 8 OFFCURVE",
"54 18 CURVE SMOOTH",
"55 21 OFFCURVE",
"57 25 OFFCURVE",
"58 27 CURVE SMOOTH"
);
},
{
closed = 1;
nodes = (
"496 307 LINE",
"455 614 LINE",
"237 253 LINE"
);
},
{
closed = 1;
nodes = (
"391 807 OFFCURVE",
"449 790 OFFCURVE",
"491 790 CURVE SMOOTH",
"547 790 OFFCURVE",
"593 816 OFFCURVE",
"627 868 CURVE SMOOTH",
"633 876 OFFCURVE",
"638 883 OFFCURVE",
"645 883 CURVE SMOOTH",
"649 883 OFFCURVE",
"652 880 OFFCURVE",
"651 876 CURVE SMOOTH",
"642 833 OFFCURVE",
"575 762 OFFCURVE",
"482 762 CURVE SMOOTH",
"375.626 762 OFFCURVE",
"350.535 836.438 OFFCURVE",
"350.535 863.433 CURVE SMOOTH",
"350.535 865.623 OFFCURVE",
"350.7 867.5 OFFCURVE",
"351 869 CURVE SMOOTH",
"352 873 OFFCURVE",
"354 878 OFFCURVE",
"361 878 CURVE SMOOTH",
"367 878 OFFCURVE",
"370 870 OFFCURVE",
"372 865 CURVE SMOOTH"
);
}
);
userData = {
com.fontlab.hintData = {
hhints = (
{
position = 0;
width = 20;
},
{
position = 669;
width = 20;
},
{
position = 762;
width = 28;
}
);
vhints = (
{
position = 535;
width = 39;
},
{
position = 627;
width = 24;
}
);
};
};
width = 614;
}
);
unicode = 0102;
},
{
glyphname = Acircumflex;
layers = (
{
layerId = master01;
paths = (
{
closed = 1;
nodes = (
"532 902 OFFCURVE",
"538 900 OFFCURVE",
"541 896 CURVE SMOOTH",
"629 783 LINE SMOOTH",
"632 779 OFFCURVE",
"633 776 OFFCURVE",
"632 771 CURVE SMOOTH",
"630 762 OFFCURVE",
"621 753 OFFCURVE",
"612 753 CURVE SMOOTH",
"607 753 OFFCURVE",
"603 755 OFFCURVE",
"600 758 CURVE SMOOTH",
"515 853 LINE",
"370 757 LINE SMOOTH",
"367 755 OFFCURVE",
"363 753 OFFCURVE",
"359 753 CURVE SMOOTH",
"349 753 OFFCURVE",
"342 762 OFFCURVE",
"344 771 CURVE SMOOTH",
"345 776 OFFCURVE",
"350 781 OFFCURVE",
"354 784 CURVE SMOOTH",
"513 897 LINE SMOOTH",
"518 900 OFFCURVE",
"523 902 OFFCURVE",
"527 902 CURVE SMOOTH"
);
},
{
closed = 1;
nodes = (
"165 203 LINE",
"126 194 LINE",
"113 192 OFFCURVE",
"107 202 OFFCURVE",
"110 212 CURVE SMOOTH",
"112 222 OFFCURVE",
"120 229 OFFCURVE",
"129 231 CURVE SMOOTH",
"190 244 LINE",
"452 677 LINE SMOOTH",
"457 684 OFFCURVE",
"465 689 OFFCURVE",
"474 689 CURVE SMOOTH",
"484 689 OFFCURVE",
"489 683 OFFCURVE",
"489 677 CURVE",
"574 32 LINE SMOOTH",
"575 23 OFFCURVE",
"574 18 OFFCURVE",
"574 15 CURVE",
"571 4 OFFCURVE",
"560 -1 OFFCURVE",
"549 -1 CURVE SMOOTH",
"541 -1 OFFCURVE",
"536 3 OFFCURVE",
"535 11 CURVE SMOOTH",
"501 272 LINE",
"211 211 LINE",
"91 11 LINE SMOOTH",
"86 4 OFFCURVE",
"80 0 OFFCURVE",
"72 0 CURVE SMOOTH",
"60 0 OFFCURVE",
"52 8 OFFCURVE",
"54 18 CURVE SMOOTH",
"55 21 OFFCURVE",
"57 25 OFFCURVE",
"58 27 CURVE SMOOTH"
);
},
{
closed = 1;
nodes = (
"496 307 LINE",
"455 614 LINE",
"237 253 LINE"
);
}
);
userData = {
com.fontlab.hintData = {
hhints = (
{
position = 0;
width = 20;
},
{
position = 669;
width = 20;
}
);
vhints = (
{
position = 535;
width = 39;
}
);
};
};
width = 614;
}
);
unicode = 00C2;
},
{
glyphname = Adieresis;
layers = (
{
layerId = master01;
paths = (
{
closed = 1;
nodes = (
"446 771 OFFCURVE",
"424 755 OFFCURVE",
"401 755 CURVE SMOOTH",
"382.927 755 OFFCURVE",
"370.57 765.615 OFFCURVE",
"370.57 780.205 CURVE SMOOTH",
"370.57 803.005 OFFCURVE",
"396.791 820 OFFCURVE",
"421 820 CURVE SMOOTH",
"437.013 820 OFFCURVE",
"450.652 809.712 OFFCURVE",
"450.652 795.472 CURVE SMOOTH",
"450.652 793.705 OFFCURVE",
"450.442 791.877 OFFCURVE",
"450 790 CURVE SMOOTH"
);
},
{
closed = 1;
nodes = (
"610 771 OFFCURVE",
"588 755 OFFCURVE",
"564 755 CURVE SMOOTH",
"546.732 755 OFFCURVE",
"533.594 765.738 OFFCURVE",
"533.594 780.457 CURVE SMOOTH",
"533.594 803.122 OFFCURVE",
"560.91 820 OFFCURVE",
"585 820 CURVE SMOOTH",
"601.013 820 OFFCURVE",
"614.652 809.712 OFFCURVE",
"614.652 795.472 CURVE SMOOTH",
"614.652 793.705 OFFCURVE",
"614.442 791.877 OFFCURVE",
"614 790 CURVE SMOOTH"
);
},
{
closed = 1;
nodes = (
"165 203 LINE",
"126 194 LINE",
"113 192 OFFCURVE",
"107 202 OFFCURVE",
"110 212 CURVE SMOOTH",
"112 222 OFFCURVE",
"120 229 OFFCURVE",
"129 231 CURVE SMOOTH",
"190 244 LINE",
"452 677 LINE SMOOTH",
"457 684 OFFCURVE",
"465 689 OFFCURVE",
"474 689 CURVE SMOOTH",
"484 689 OFFCURVE",
"489 683 OFFCURVE",
"489 677 CURVE",
"574 32 LINE SMOOTH",
"575 23 OFFCURVE",
"574 18 OFFCURVE",
"574 15 CURVE",
"571 4 OFFCURVE",
"560 -1 OFFCURVE",
"549 -1 CURVE SMOOTH",
"541 -1 OFFCURVE",
"536 3 OFFCURVE",
"535 11 CURVE SMOOTH",
"501 272 LINE",
"211 211 LINE",
"91 11 LINE SMOOTH",
"86 4 OFFCURVE",
"80 0 OFFCURVE",
"72 0 CURVE SMOOTH",
"60 0 OFFCURVE",
"52 8 OFFCURVE",
"54 18 CURVE SMOOTH",
"55 21 OFFCURVE",
"57 25 OFFCURVE",
"58 27 CURVE SMOOTH"
);
},
{
closed = 1;
nodes = (
"496 307 LINE",
"455 614 LINE",
"237 253 LINE"
);
}
);
userData = {
com.fontlab.hintData = {
hhints = (
{
position = 0;
width = 20;
},
{
position = 669;
width = 20;
},
{
position = 755;
width = 65;
}
);
vhints = (
{
position = 371;
width = 80;
},
{
position = 534;
width = 81;
},
{
position = 535;
width = 39;
}
);
};
};
width = 614;
}
);
unicode = 00C4;
},
{
glyphname = Agrave;
layers = (
{
layerId = master01;
paths = (
{
closed = 1;
nodes = (
"165 203 LINE",
"126 194 LINE",
"113 192 OFFCURVE",
"107 202 OFFCURVE",
"110 212 CURVE SMOOTH",
"112 222 OFFCURVE",
"120 229 OFFCURVE",
"129 231 CURVE SMOOTH",
"190 244 LINE",
"452 677 LINE SMOOTH",
"457 684 OFFCURVE",
"465 689 OFFCURVE",
"474 689 CURVE SMOOTH",
"484 689 OFFCURVE",
"489 683 OFFCURVE",
"489 677 CURVE",
"574 32 LINE SMOOTH",
"575 23 OFFCURVE",
"574 18 OFFCURVE",
"574 15 CURVE",
"571 4 OFFCURVE",
"560 -1 OFFCURVE",
"549 -1 CURVE SMOOTH",
"541 -1 OFFCURVE",
"536 3 OFFCURVE",
"535 11 CURVE SMOOTH",
"501 272 LINE",
"211 211 LINE",
"91 11 LINE SMOOTH",
"86 4 OFFCURVE",
"80 0 OFFCURVE",
"72 0 CURVE SMOOTH",
"60 0 OFFCURVE",
"52 8 OFFCURVE",
"54 18 CURVE SMOOTH",
"55 21 OFFCURVE",
"57 25 OFFCURVE",
"58 27 CURVE SMOOTH"
);
},
{
closed = 1;
nodes = (
"496 307 LINE",
"455 614 LINE",
"237 253 LINE"
);
},
{
closed = 1;
nodes = (
"544 765 LINE SMOOTH",
"547 760 OFFCURVE",
"548 756 OFFCURVE",
"547 752 CURVE SMOOTH",
"545 742 OFFCURVE",
"534 736 OFFCURVE",
"525 736 CURVE SMOOTH",
"521 736 OFFCURVE",
"516 738 OFFCURVE",
"513 742 CURVE SMOOTH",
"417 868 LINE SMOOTH",
"413 874 OFFCURVE",
"412 880 OFFCURVE",
"413 887 CURVE SMOOTH",
"416 901 OFFCURVE",
"431 912 OFFCURVE",
"445 912 CURVE SMOOTH",
"453 912 OFFCURVE",
"460 909 OFFCURVE",
"464 901 CURVE SMOOTH"
);
}
);
userData = {
com.fontlab.hintData = {
hhints = (
{
position = 0;
width = 20;
},
{
position = 669;
width = 20;
}
);
vhints = (
{
position = 535;
width = 39;
}
);
};
};
width = 614;
}
);
unicode = 00C0;
},
{
glyphname = Aogonek;
layers = (
{
layerId = master01;
paths = (
{
closed = 1;
nodes = (
"453.497 -206 OFFCURVE",
"422.85 -174.322 OFFCURVE",
"422.85 -129.961 CURVE SMOOTH",
"422.85 -123.243 OFFCURVE",
"423.553 -116.234 OFFCURVE",
"425 -109 CURVE",
"437 -55 OFFCURVE",
"486 -12 OFFCURVE",
"534 15 CURVE",
"501 272 LINE",
"211 211 LINE",
"91 11 LINE SMOOTH",
"86 4 OFFCURVE",
"80 0 OFFCURVE",
"72 0 CURVE SMOOTH",
"60 0 OFFCURVE",
"52 8 OFFCURVE",
"54 18 CURVE SMOOTH",
"55 21 OFFCURVE",
"57 25 OFFCURVE",
"58 27 CURVE SMOOTH",
"165 203 LINE",
"126 194 LINE",
"113 192 OFFCURVE",
"107 202 OFFCURVE",
"110 212 CURVE SMOOTH",
"112 222 OFFCURVE",
"120 229 OFFCURVE",
"129 231 CURVE SMOOTH",
"190 244 LINE",
"452 677 LINE SMOOTH",
"457 684 OFFCURVE",
"465 689 OFFCURVE",
"474 689 CURVE SMOOTH",
"484 689 OFFCURVE",
"489 683 OFFCURVE",
"489 677 CURVE",
"574 32 LINE SMOOTH",
"574.4 28.4 OFFCURVE",
"574.68 25.32 OFFCURVE",
"574.68 22.568 CURVE SMOOTH",
"574.68 11.56 OFFCURVE",
"570.2 5.8 OFFCURVE",
"551 -7 CURVE SMOOTH",
"510 -33 OFFCURVE",
"467 -61 OFFCURVE",
"456 -110 CURVE SMOOTH",
"454.992 -114.915 OFFCURVE",
"454.508 -119.608 OFFCURVE",
"454.508 -124.056 CURVE SMOOTH",
"454.508 -154.904 OFFCURVE",
"477.789 -174 OFFCURVE",
"511 -174 CURVE SMOOTH",
"534 -174 OFFCURVE",
"558 -166 OFFCURVE",
"584 -150 CURVE SMOOTH",
"587 -148 OFFCURVE",
"590 -147 OFFCURVE",
"593 -147 CURVE SMOOTH",
"600 -147 OFFCURVE",
"607 -154 OFFCURVE",
"605 -162 CURVE SMOOTH",
"600 -186 OFFCURVE",
"537 -206 OFFCURVE",
"503 -206 CURVE SMOOTH"
);
},
{
closed = 1;
nodes = (
"496 307 LINE",
"455 614 LINE",
"237 253 LINE"
);
}
);
userData = {
com.fontlab.hintData = {
hhints = (
{
position = -206;
width = 32;
},
{
position = 0;
width = 21;
},
{
position = 669;
width = 20;
}
);
vhints = (
{
position = 423;
width = 32;
}
);
};
};
width = 614;
}
);
unicode = 0104;
},
{
glyphname = Aring;
layers = (
{
layerId = master01;
paths = (
{
closed = 1;
nodes = (
"427.209 743 OFFCURVE",
"390.829 775.364 OFFCURVE",
"390.829 819.122 CURVE SMOOTH",
"390.829 825.213 OFFCURVE",
"391.534 831.524 OFFCURVE",
"393 838 CURVE",
"406 902 OFFCURVE",
"481 948 OFFCURVE",
"546 948 CURVE SMOOTH",
"595.836 948 OFFCURVE",
"633.792 914.738 OFFCURVE",
"633.792 869.357 CURVE SMOOTH",
"633.792 863.743 OFFCURVE",
"633.211 857.944 OFFCURVE",
"632 852 CURVE SMOOTH",
"618 787 OFFCURVE",
"543 743 OFFCURVE",
"479 743 CURVE SMOOTH"
);
},
{
closed = 1;
nodes = (
"474 920 OFFCURVE",
"423 873 OFFCURVE",
"416 838 CURVE",
"414.849 833.051 OFFCURVE",
"414.294 828.341 OFFCURVE",
"414.294 823.88 CURVE SMOOTH",
"414.294 789.577 OFFCURVE",
"447.099 770 OFFCURVE",
"494 770 CURVE SMOOTH",
"534 770 OFFCURVE",
"598 801 OFFCURVE",
"608 850 CURVE SMOOTH",
"608.864 853.781 OFFCURVE",
"609.285 857.562 OFFCURVE",
"609.285 861.299 CURVE SMOOTH",
"609.285 892.153 OFFCURVE",
"580.599 920 OFFCURVE",
"536 920 CURVE SMOOTH"
);
},
{
closed = 1;
nodes = (
"165 203 LINE",
"126 194 LINE",
"113 192 OFFCURVE",
"107 202 OFFCURVE",
"110 212 CURVE SMOOTH",
"112 222 OFFCURVE",
"120 229 OFFCURVE",
"129 231 CURVE SMOOTH",
"190 244 LINE",
"452 677 LINE SMOOTH",
"457 684 OFFCURVE",
"465 689 OFFCURVE",
"474 689 CURVE SMOOTH",
"484 689 OFFCURVE",
"489 683 OFFCURVE",
"489 677 CURVE",
"574 32 LINE SMOOTH",
"575 23 OFFCURVE",
"574 18 OFFCURVE",
"574 15 CURVE",
"571 4 OFFCURVE",
"560 -1 OFFCURVE",
"549 -1 CURVE SMOOTH",
"541 -1 OFFCURVE",
"536 3 OFFCURVE",
"535 11 CURVE SMOOTH",
"501 272 LINE",
"211 211 LINE",
"91 11 LINE SMOOTH",
"86 4 OFFCURVE",
"80 0 OFFCURVE",
"72 0 CURVE SMOOTH",
"60 0 OFFCURVE",
"52 8 OFFCURVE",
"54 18 CURVE SMOOTH",
"55 21 OFFCURVE",
"57 25 OFFCURVE",
"58 27 CURVE SMOOTH"
);
},
{
closed = 1;
nodes = (
"496 307 LINE",
"455 614 LINE",
"237 253 LINE"
);
}
);
userData = {
com.fontlab.hintData = {
hhints = (
{
position = 0;
width = 20;
},
{
position = 669;
width = 20;
},
{
position = 743;
width = 27;
},
{
position = 920;
width = 28;
}
);
vhints = (
{
position = 391;
width = 23;
},
{
position = 535;
width = 39;
},
{
position = 609;
width = 25;
}
);
};
};
width = 614;
}
);
unicode = 00C5;
},
{
glyphname = Atilde;
layers = (
{
layerId = master01;
paths = (
{
closed = 1;
nodes = (
"649 850 OFFCURVE",
"655 855 OFFCURVE",
"664 855 CURVE SMOOTH",
"673 855 OFFCURVE",
"677 849 OFFCURVE",
"675 841 CURVE SMOOTH",
"667 803 OFFCURVE",
"604 735 OFFCURVE",
"550 735 CURVE SMOOTH",
"509 735 OFFCURVE",
"494 766 OFFCURVE",
"481 792 CURVE SMOOTH",
"463 829 OFFCURVE",
"454 842 OFFCURVE",
"434 842 CURVE SMOOTH",
"418 842 OFFCURVE",
"376 829 OFFCURVE",
"346 771 CURVE SMOOTH",
"341 762 OFFCURVE",
"336 758 OFFCURVE",
"329 758 CURVE SMOOTH",
"319 758 OFFCURVE",
"317 766 OFFCURVE",
"319 774 CURVE SMOOTH",
"328 816 OFFCURVE",
"393 869 OFFCURVE",
"440 869 CURVE SMOOTH",
"481 869 OFFCURVE",
"496 839 OFFCURVE",
"509 811 CURVE SMOOTH",
"521 786 OFFCURVE",
"536 761 OFFCURVE",
"557 761 CURVE SMOOTH",
"595 761 OFFCURVE",
"627 812 OFFCURVE",
"646 844 CURVE SMOOTH"
);
},
{
closed = 1;
nodes = (
"165 203 LINE",
"126 194 LINE",
"113 192 OFFCURVE",
"107 202 OFFCURVE",
"110 212 CURVE SMOOTH",
"112 222 OFFCURVE",
"120 229 OFFCURVE",
"129 231 CURVE SMOOTH",
"190 244 LINE",
"452 677 LINE SMOOTH",
"457 684 OFFCURVE",
"465 689 OFFCURVE",
"474 689 CURVE SMOOTH",
"484 689 OFFCURVE",
"489 683 OFFCURVE",
"489 677 CURVE",
"574 32 LINE SMOOTH",
"575 23 OFFCURVE",
"574 18 OFFCURVE",
"574 15 CURVE",
"571 4 OFFCURVE",
"560 -1 OFFCURVE",
"549 -1 CURVE SMOOTH",
"541 -1 OFFCURVE",
"536 3 OFFCURVE",
"535 11 CURVE SMOOTH",
"501 272 LINE",
"211 211 LINE",
"91 11 LINE SMOOTH",
"86 4 OFFCURVE",
"80 0 OFFCURVE",
"72 0 CURVE SMOOTH",
"60 0 OFFCURVE",
"52 8 OFFCURVE",
"54 18 CURVE SMOOTH",
"55 21 OFFCURVE",
"57 25 OFFCURVE",
"58 27 CURVE SMOOTH"
);
},
{
closed = 1;
nodes = (
"496 307 LINE",
"455 614 LINE",
"237 253 LINE"
);
}
);
userData = {
com.fontlab.hintData = {
hhints = (
{
position = 0;
width = 20;
},
{
position = 669;
width = 20;
},
{
position = 735;
width = 26;
},
{
position = 842;
width = 27;
}
);
vhints = (
{
position = 319;
width = 27;
},
{
position = 535;
width = 39;
},
{
position = 646;
width = 29;
}
);
};
};
width = 614;
}
);
unicode = 00C3;
},
{
glyphname = AE;
layers = (
{
layerId = master01;
paths = (
{
closed = 1;
nodes = (
"976 35 LINE SMOOTH",
"986 35 OFFCURVE",
"992 28 OFFCURVE",
"990 18 CURVE SMOOTH",
"988 8 OFFCURVE",
"979 0 OFFCURVE",
"969 0 CURVE SMOOTH",
"527 0 LINE SMOOTH",
"518 0 OFFCURVE",
"511 8 OFFCURVE",
"513 18 CURVE SMOOTH",
"576 315 LINE",
"322 265 LINE",
"81 4 LINE SMOOTH",
"76 -1 OFFCURVE",
"71 -3 OFFCURVE",
"66 -3 CURVE SMOOTH",
"56 -3 OFFCURVE",
"50 5 OFFCURVE",
"51 13 CURVE SMOOTH",
"52 18 OFFCURVE",
"54 21 OFFCURVE",
"57 24 CURVE SMOOTH",
"271 255 LINE",
"223 246 LINE SMOOTH",
"212 244 OFFCURVE",
"207 254 OFFCURVE",
"209 262 CURVE SMOOTH",
"211 272 OFFCURVE",
"218 279 OFFCURVE",
"229 281 CURVE SMOOTH",
"309 297 LINE",
"656 674 LINE SMOOTH",
"658 677 OFFCURVE",
"663 681 OFFCURVE",
"668 681 CURVE SMOOTH",
"1113 681 LINE SMOOTH",
"1123 681 OFFCURVE",
"1130 674 OFFCURVE",
"1128 664 CURVE SMOOTH",
"1126 654 OFFCURVE",
"1116 646 OFFCURVE",
"1106 646 CURVE SMOOTH",
"682 646 LINE",
"620 354 LINE",
"993 354 LINE SMOOTH",
"1002 354 OFFCURVE",
"1008 346 OFFCURVE",
"1006 337 CURVE SMOOTH",
"1004 327 OFFCURVE",
"994 318 OFFCURVE",
"985 318 CURVE SMOOTH",
"612 319 LINE",
"552 35 LINE"
);
},
{
closed = 1;
nodes = (
"584 351 LINE",
"639 608 LINE",
"361 307 LINE"
);
}
);
userData = {
com.fontlab.hintData = {
hhints = (
{
position = 0;
width = 35;
},
{
position = 319;
width = 35;
},
{
position = 646;
width = 35;
}
);
};
};
width = 1030;
}
);
unicode = 00C6;
},
{
glyphname = B;
layers = (
{
layerId = master01;
paths = (
{
closed = 1;
nodes = (
"81.365 -2 OFFCURVE",
"71.177 0.964 OFFCURVE",
"71.177 15.186 CURVE SMOOTH",
"71.177 17.485 OFFCURVE",
"71.443 20.078 OFFCURVE",
"72 23 CURVE SMOOTH",
"208 662 LINE",
"211 673 OFFCURVE",
"220 681 OFFCURVE",
"230 681 CURVE SMOOTH",
"418 681 LINE SMOOTH",
"577.488 681 OFFCURVE",
"601.084 589.495 OFFCURVE",
"601.084 541.353 CURVE SMOOTH",
"601.084 531.237 OFFCURVE",
"600.042 523.036 OFFCURVE",
"599 518 CURVE SMOOTH",
"583 446 OFFCURVE",
"531 398 OFFCURVE",
"484 368 CURVE",
"556.119 340.001 OFFCURVE",
"595.843 295.444 OFFCURVE",
"595.843 234.33 CURVE SMOOTH",
"595.843 223.415 OFFCURVE",
"594.576 211.972 OFFCURVE",
"592 200 CURVE SMOOTH",
"565 72 OFFCURVE",
"402 -2 OFFCURVE",
"96 -2 CURVE SMOOTH"
);
},
{
closed = 1;
nodes = (
"113 35 LINE",
"333 35 OFFCURVE",
"530 84 OFFCURVE",
"555 200 CURVE SMOOTH",
"557.042 209.725 OFFCURVE",
"558.006 218.882 OFFCURVE",
"558.006 227.491 CURVE SMOOTH",
"558.006 307.402 OFFCURVE",
"474.928 340 OFFCURVE",
"400 340 CURVE SMOOTH",
"178 340 LINE"
);
},
{
closed = 1;
nodes = (
"186 378 LINE",
"398 378 LINE SMOOTH",
"475 378 OFFCURVE",
"546 446 OFFCURVE",
"561 515 CURVE SMOOTH",
"561.761 518.997 OFFCURVE",
"562.776 526.108 OFFCURVE",
"562.776 535.004 CURVE SMOOTH",
"562.776 572.852 OFFCURVE",
"544.408 643 OFFCURVE",
"410 643 CURVE SMOOTH",
"242 643 LINE"
);
}
);
userData = {
com.fontlab.hintData = {
hhints = (
{
position = -2;
width = 37;
},
{
position = 340;
width = 38;
},
{
position = 643;
width = 38;
}
);
vhints = (
{
position = 558;
width = 38;
}
);
};
};
width = 593;
}
);
unicode = 0042;
},
{
glyphname = C;
layers = (
{
layerId = master01;
paths = (
{
closed = 1;
nodes = (
"599 145 OFFCURVE",
"608 139 OFFCURVE",
"605 127 CURVE",
"605 123 OFFCURVE",
"602 118 OFFCURVE",
"599 115 CURVE SMOOTH",
"527 40 OFFCURVE",
"433 -2 OFFCURVE",
"337 -2 CURVE SMOOTH",
"202.083 -2 OFFCURVE",
"106.808 93.74 OFFCURVE",
"106.808 228.942 CURVE SMOOTH",
"106.808 250.069 OFFCURVE",
"109.135 272.16 OFFCURVE",
"114 295 CURVE SMOOTH",
"158 500 OFFCURVE",
"355 684 OFFCURVE",
"492 684 CURVE SMOOTH",
"561 684 OFFCURVE",
"606 661 OFFCURVE",
"636 639 CURVE",
"644 650 OFFCURVE",
"654 658 OFFCURVE",
"662 658 CURVE SMOOTH",
"672 658 OFFCURVE",
"679 650 OFFCURVE",
"677 640 CURVE SMOOTH",
"663 574 LINE",
"660 564 OFFCURVE",
"649 554 OFFCURVE",
"639 554 CURVE SMOOTH",
"629 554 OFFCURVE",
"622 564 OFFCURVE",
"625 574 CURVE",
"626 583 LINE",
"610 607 OFFCURVE",
"575 646 OFFCURVE",
"484 646 CURVE SMOOTH",
"363 646 OFFCURVE",
"189 469 OFFCURVE",
"152 295 CURVE SMOOTH",
"147.307 272.74 OFFCURVE",
"145.148 252.088 OFFCURVE",
"145.148 232.978 CURVE SMOOTH",
"145.148 93.264 OFFCURVE",
"260.551 36 OFFCURVE",
"345 36 CURVE SMOOTH",
"421 36 OFFCURVE",
"503 68 OFFCURVE",
"574 138 CURVE SMOOTH",
"579 142 OFFCURVE",
"584 145 OFFCURVE",
"589 145 CURVE SMOOTH"
);
}
);
userData = {
com.fontlab.hintData = {
hhints = (
{
position = -2;
width = 38;
},
{
position = 646;
width = 38;
}
);
vhints = (
{
position = 107;
width = 38;
},
{
position = 625;
width = 38;
}
);
};
};
width = 622;
}
);
unicode = 0043;
},
{
glyphname = Cacute;
layers = (
{
layerId = master01;
paths = (
{
closed = 1;
nodes = (
"599 145 OFFCURVE",
"608 139 OFFCURVE",
"605 127 CURVE",
"605 123 OFFCURVE",
"602 118 OFFCURVE",
"599 115 CURVE SMOOTH",
"527 40 OFFCURVE",
"433 -2 OFFCURVE",
"337 -2 CURVE SMOOTH",
"202.083 -2 OFFCURVE",
"106.808 93.74 OFFCURVE",
"106.808 228.942 CURVE SMOOTH",
"106.808 250.069 OFFCURVE",
"109.135 272.16 OFFCURVE",
"114 295 CURVE SMOOTH",
"158 500 OFFCURVE",
"355 684 OFFCURVE",
"492 684 CURVE SMOOTH",
"561 684 OFFCURVE",
"606 661 OFFCURVE",
"636 639 CURVE",
"644 650 OFFCURVE",
"654 658 OFFCURVE",
"662 658 CURVE SMOOTH",
"672 658 OFFCURVE",
"679 650 OFFCURVE",
"677 640 CURVE SMOOTH",
"663 574 LINE",
"660 564 OFFCURVE",
"649 554 OFFCURVE",
"639 554 CURVE SMOOTH",
"629 554 OFFCURVE",
"622 564 OFFCURVE",
"625 574 CURVE",
"626 583 LINE",
"610 607 OFFCURVE",
"575 646 OFFCURVE",
"484 646 CURVE SMOOTH",
"363 646 OFFCURVE",
"189 469 OFFCURVE",
"152 295 CURVE SMOOTH",
"147.307 272.74 OFFCURVE",
"145.148 252.088 OFFCURVE",
"145.148 232.978 CURVE SMOOTH",
"145.148 93.264 OFFCURVE",
"260.551 36 OFFCURVE",
"345 36 CURVE SMOOTH",
"421 36 OFFCURVE",
"503 68 OFFCURVE",
"574 138 CURVE SMOOTH",
"579 142 OFFCURVE",
"584 145 OFFCURVE",
"589 145 CURVE SMOOTH"
);
},
{
closed = 1;
nodes = (
"450 759 LINE SMOOTH",
"442 754 OFFCURVE",
"436 752 OFFCURVE",
"432 752 CURVE SMOOTH",
"423 752 OFFCURVE",
"417 760 OFFCURVE",
"419 769 CURVE SMOOTH",
"420 772 OFFCURVE",
"421 777 OFFCURVE",
"428 782 CURVE SMOOTH",
"578 886 LINE SMOOTH",
"588 893 OFFCURVE",
"597 900 OFFCURVE",
"607 900 CURVE SMOOTH",
"616.655 900 OFFCURVE",
"625.539 889.985 OFFCURVE",
"625.539 878.069 CURVE SMOOTH",
"625.539 876.409 OFFCURVE",
"625.367 874.712 OFFCURVE",
"625 873 CURVE SMOOTH",
"624 866 OFFCURVE",
"622 862 OFFCURVE",
"614 857 CURVE SMOOTH"
);
}
);
userData = {
com.fontlab.hintData = {
hhints = (
{
position = -2;
width = 38;
},
{
position = 646;
width = 38;
}
);
vhints = (
{
position = 107;
width = 38;
},
{
position = 625;
width = 38;
}
);
};
};
width = 622;
}
);
unicode = 0106;
},
{
glyphname = Ccaron;
layers = (
{
layerId = master01;
paths = (
{
closed = 1;
nodes = (
"504 743 OFFCURVE",
"499 745 OFFCURVE",
"496 749 CURVE SMOOTH",
"408 862 LINE SMOOTH",
"405 866 OFFCURVE",
"403 869 OFFCURVE",
"404 874 CURVE SMOOTH",
"406 883 OFFCURVE",
"416 892 OFFCURVE",
"425 892 CURVE SMOOTH",
"430 892 OFFCURVE",
"434 890 OFFCURVE",
"437 887 CURVE SMOOTH",
"522 792 LINE",
"666 888 LINE SMOOTH",
"670 890 OFFCURVE",
"674 892 OFFCURVE",
"678 892 CURVE SMOOTH",
"688 892 OFFCURVE",
"694 883 OFFCURVE",
"692 874 CURVE SMOOTH",
"691 869 OFFCURVE",
"687 864 OFFCURVE",
"683 861 CURVE SMOOTH",
"523 748 LINE SMOOTH",
"519 745 OFFCURVE",
"513 743 OFFCURVE",
"509 743 CURVE SMOOTH"
);
},
{
closed = 1;
nodes = (
"599 145 OFFCURVE",
"608 139 OFFCURVE",
"605 127 CURVE",
"605 123 OFFCURVE",
"602 118 OFFCURVE",
"599 115 CURVE SMOOTH",
"527 40 OFFCURVE",
"433 -2 OFFCURVE",
"337 -2 CURVE SMOOTH",
"202.083 -2 OFFCURVE",
"106.808 93.74 OFFCURVE",
"106.808 228.942 CURVE SMOOTH",
"106.808 250.069 OFFCURVE",
"109.135 272.16 OFFCURVE",
"114 295 CURVE SMOOTH",
"158 500 OFFCURVE",
"355 684 OFFCURVE",
"492 684 CURVE SMOOTH",
"561 684 OFFCURVE",
"606 661 OFFCURVE",
"636 639 CURVE",
"644 650 OFFCURVE",
"654 658 OFFCURVE",
"662 658 CURVE SMOOTH",
"672 658 OFFCURVE",
"679 650 OFFCURVE",
"677 640 CURVE SMOOTH",
"663 574 LINE",
"660 564 OFFCURVE",
"649 554 OFFCURVE",
"639 554 CURVE SMOOTH",
"629 554 OFFCURVE",
"622 564 OFFCURVE",
"625 574 CURVE",
"626 583 LINE",
"610 607 OFFCURVE",
"575 646 OFFCURVE",
"484 646 CURVE SMOOTH",
"363 646 OFFCURVE",
"189 469 OFFCURVE",
"152 295 CURVE SMOOTH",
"147.307 272.74 OFFCURVE",
"145.148 252.088 OFFCURVE",
"145.148 232.978 CURVE SMOOTH",
"145.148 93.264 OFFCURVE",
"260.551 36 OFFCURVE",
"345 36 CURVE SMOOTH",
"421 36 OFFCURVE",
"503 68 OFFCURVE",
"574 138 CURVE SMOOTH",
"579 142 OFFCURVE",
"584 145 OFFCURVE",
"589 145 CURVE SMOOTH"
);
}
);
userData = {
com.fontlab.hintData = {
hhints = (
{
position = -2;
width = 38;
},
{
position = 646;
width = 38;
}
);
vhints = (
{
position = 107;
width = 38;
},
{
position = 625;
width = 38;
}
);
};
};
width = 622;
}
);
unicode = 010C;
},
{
glyphname = Ccedilla;
layers = (
{
layerId = master01;
paths = (
{
closed = 1;
nodes = (
"179.422 22.358 OFFCURVE",
"106.822 110.355 OFFCURVE",
"106.822 228.757 CURVE SMOOTH",
"106.822 249.936 OFFCURVE",
"109.145 272.088 OFFCURVE",
"114 295 CURVE SMOOTH",
"158 500 OFFCURVE",
"355 684 OFFCURVE",
"492 684 CURVE SMOOTH",
"561 684 OFFCURVE",
"606 661 OFFCURVE",
"636 639 CURVE",
"644 650 OFFCURVE",
"654 658 OFFCURVE",
"662 658 CURVE SMOOTH",
"672 658 OFFCURVE",
"679 650 OFFCURVE",
"677 640 CURVE SMOOTH",
"663 574 LINE",
"660 564 OFFCURVE",
"649 554 OFFCURVE",
"639 554 CURVE SMOOTH",
"629 554 OFFCURVE",
"622 564 OFFCURVE",
"625 574 CURVE",
"626 583 LINE",
"610 607 OFFCURVE",
"575 646 OFFCURVE",
"484 646 CURVE SMOOTH",
"363 646 OFFCURVE",
"189 469 OFFCURVE",
"152 295 CURVE SMOOTH",
"147.307 272.74 OFFCURVE",
"145.148 252.088 OFFCURVE",
"145.148 232.978 CURVE SMOOTH",
"145.148 93.264 OFFCURVE",
"260.551 36 OFFCURVE",
"345 36 CURVE SMOOTH",
"421 36 OFFCURVE",
"503 68 OFFCURVE",
"574 138 CURVE SMOOTH",
"579 142 OFFCURVE",
"584 145 OFFCURVE",
"589 145 CURVE SMOOTH",
"599 145 OFFCURVE",
"608 139 OFFCURVE",
"605 127 CURVE",
"605 123 OFFCURVE",
"602 118 OFFCURVE",
"599 115 CURVE SMOOTH",
"527 40 OFFCURVE",
"433 -2 OFFCURVE",
"337 -2 CURVE SMOOTH",
"324 -2 OFFCURVE",
"312 -1 OFFCURVE",
"301 0 CURVE",
"291 -41 LINE",
"352.525 -41 OFFCURVE",
"381.01 -68.784 OFFCURVE",
"381.01 -105.481 CURVE SMOOTH",
"381.01 -111.132 OFFCURVE",
"380.335 -116.995 OFFCURVE",
"379 -123 CURVE SMOOTH",
"369 -170 OFFCURVE",
"324 -209 OFFCURVE",
"277 -209 CURVE SMOOTH",
"248.256 -209 OFFCURVE",
"214.354 -191.805 OFFCURVE",
"214.354 -168.577 CURVE SMOOTH",
"214.354 -166.753 OFFCURVE",
"214.563 -164.892 OFFCURVE",
"215 -163 CURVE SMOOTH",
"216 -157 OFFCURVE",
"222 -154 OFFCURVE",
"227 -154 CURVE SMOOTH",
"232 -154 OFFCURVE",
"234 -159 OFFCURVE",
"237 -164 CURVE SMOOTH",
"244 -174 OFFCURVE",
"253 -187 OFFCURVE",
"282 -187 CURVE SMOOTH",
"316 -187 OFFCURVE",
"349 -159 OFFCURVE",
"356 -125 CURVE SMOOTH",
"356.906 -120.597 OFFCURVE",
"357.343 -116.312 OFFCURVE",
"357.343 -112.187 CURVE SMOOTH",
"357.343 -84.46 OFFCURVE",
"337.597 -64 OFFCURVE",
"308 -64 CURVE SMOOTH",
"290 -64 OFFCURVE",
"278 -70 OFFCURVE",
"270 -75 CURVE SMOOTH",
"265 -78 OFFCURVE",
"262 -79 OFFCURVE",
"259 -79 CURVE SMOOTH",
"252 -79 OFFCURVE",
"250 -74 OFFCURVE",
"251 -70 CURVE SMOOTH",
"252 -64 OFFCURVE",
"282 -8 OFFCURVE",
"288 2 CURVE"
);
}
);
userData = {
com.fontlab.hintData = {
hhints = (
{
position = -209;
width = 22;
},
{
position = -64;
width = 23;
},
{
position = -2;
width = 38;
},
{
position = 646;
width = 38;
}
);
vhints = (
{
position = 107;
width = 38;
},
{
position = 357;
width = 24;
},
{
position = 625;
width = 38;
}
);
};
};
width = 622;
}
);
unicode = 00C7;
},
{
glyphname = Ccircumflex;
layers = (
{
layerId = master01;
paths = (
{
closed = 1;
nodes = (
"599 145 OFFCURVE",
"608 139 OFFCURVE",
"605 127 CURVE SMOOTH",
"605 123 OFFCURVE",
"602 118 OFFCURVE",
"599 115 CURVE SMOOTH",
"527 40 OFFCURVE",
"433 -2 OFFCURVE",
"337 -2 CURVE SMOOTH",
"202.083 -2 OFFCURVE",
"106.808 93.74 OFFCURVE",
"106.808 228.942 CURVE SMOOTH",
"106.808 250.069 OFFCURVE",
"109.135 272.16 OFFCURVE",
"114 295 CURVE SMOOTH",
"158 500 OFFCURVE",
"355 684 OFFCURVE",
"492 684 CURVE SMOOTH",
"561 684 OFFCURVE",
"606 661 OFFCURVE",
"636 639 CURVE",
"644 650 OFFCURVE",
"654 658 OFFCURVE",
"662 658 CURVE SMOOTH",
"672 658 OFFCURVE",
"679 650 OFFCURVE",
"677 640 CURVE SMOOTH",
"663 574 LINE SMOOTH",
"660 564 OFFCURVE",
"649 554 OFFCURVE",
"639 554 CURVE SMOOTH",
"629 554 OFFCURVE",
"622 564 OFFCURVE",
"625 574 CURVE SMOOTH",
"626 583 LINE",
"610 607 OFFCURVE",
"575 646 OFFCURVE",
"484 646 CURVE SMOOTH",
"363 646 OFFCURVE",
"189 469 OFFCURVE",
"152 295 CURVE SMOOTH",
"147.307 272.74 OFFCURVE",
"145.148 252.088 OFFCURVE",
"145.148 232.978 CURVE SMOOTH",
"145.148 93.264 OFFCURVE",
"260.551 36 OFFCURVE",
"345 36 CURVE SMOOTH",
"421 36 OFFCURVE",
"503 68 OFFCURVE",
"574 138 CURVE SMOOTH",
"579 142 OFFCURVE",
"584 145 OFFCURVE",
"589 145 CURVE SMOOTH"
);
},
{
closed = 1;
nodes = (
"552 902 OFFCURVE",
"558 900 OFFCURVE",
"561 896 CURVE SMOOTH",
"649 783 LINE SMOOTH",
"652 779 OFFCURVE",
"653 776 OFFCURVE",
"652 771 CURVE SMOOTH",
"650 762 OFFCURVE",
"641 753 OFFCURVE",
"632 753 CURVE SMOOTH",
"627 753 OFFCURVE",
"623 755 OFFCURVE",
"620 758 CURVE SMOOTH",
"535 853 LINE",
"390 757 LINE SMOOTH",
"387 755 OFFCURVE",
"383 753 OFFCURVE",
"379 753 CURVE SMOOTH",
"369 753 OFFCURVE",
"362 762 OFFCURVE",
"364 771 CURVE SMOOTH",
"365 776 OFFCURVE",
"370 781 OFFCURVE",
"374 784 CURVE SMOOTH",
"533 897 LINE SMOOTH",
"538 900 OFFCURVE",
"543 902 OFFCURVE",
"547 902 CURVE SMOOTH"
);
}
);
userData = {
com.fontlab.hintData = {
hhints = (
{
position = -2;
width = 38;
},
{
position = 646;
width = 38;
}
);
vhints = (
{
position = 107;
width = 38;
},
{
position = 625;
width = 38;
}
);
};
};
width = 622;
}
);
unicode = 0108;
},
{
glyphname = D;
layers = (
{
layerId = master01;
paths = (
{
closed = 1;
nodes = (
"143 -21 OFFCURVE",
"88 -5 OFFCURVE",
"81 -3 CURVE SMOOTH",
"73 -1 OFFCURVE",
"69 7 OFFCURVE",
"71 15 CURVE SMOOTH",
"208 662 LINE",
"211 673 OFFCURVE",
"221 681 OFFCURVE",
"231 681 CURVE SMOOTH",
"379.104 681 OFFCURVE",
"630.335 635.882 OFFCURVE",
"630.335 390.884 CURVE SMOOTH",
"630.335 362.934 OFFCURVE",
"627.066 332.383 OFFCURVE",
"620 299 CURVE SMOOTH",
"573 76 OFFCURVE",
"394 -21 OFFCURVE",
"202 -21 CURVE SMOOTH"
);
},
{
closed = 1;
nodes = (
"112 31 LINE",
"137 25 OFFCURVE",
"176 18 OFFCURVE",
"210 18 CURVE SMOOTH",
"399 18 OFFCURVE",
"542 109 OFFCURVE",
"582 299 CURVE SMOOTH",
"588.289 328.75 OFFCURVE",
"591.272 356.188 OFFCURVE",
"591.272 381.458 CURVE SMOOTH",
"591.272 565.143 OFFCURVE",
"433.637 634.209 OFFCURVE",
"242 643 CURVE"
);
}
);
userData = {
com.fontlab.hintData = {
hhints = (
{
position = -21;
width = 39;
},
{
position = 643;
width = 38;
}
);
vhints = (
{
position = 591;
width = 39;
}
);
};
};
width = 610;
}
);
unicode = 0044;
},
{
glyphname = Eth;
layers = (
{
layerId = master01;
paths = (
{
closed = 1;
nodes = (
"206 -21 OFFCURVE",
"151 -5 OFFCURVE",
"144 -3 CURVE SMOOTH",
"135 -1 OFFCURVE",
"131 7 OFFCURVE",
"133 15 CURVE SMOOTH",
"191 290 LINE",
"116 290 LINE SMOOTH",
"106 290 OFFCURVE",
"100 298 OFFCURVE",
"102 308 CURVE SMOOTH",
"104 318 OFFCURVE",
"114 328 OFFCURVE",
"124 328 CURVE SMOOTH",
"199 328 LINE",
"270 662 LINE",
"273 673 OFFCURVE",
"284 681 OFFCURVE",
"294 681 CURVE SMOOTH",
"440.341 681 OFFCURVE",
"675.86 636.411 OFFCURVE",
"675.86 395.186 CURVE SMOOTH",
"675.86 366.076 OFFCURVE",
"672.43 334.104 OFFCURVE",
"665 299 CURVE SMOOTH",
"618 76 OFFCURVE",
"457 -21 OFFCURVE",
"264 -21 CURVE SMOOTH"
);
},
{
closed = 1;
nodes = (
"171 31 LINE",
"197 25 OFFCURVE",
"238 18 OFFCURVE",
"272 18 CURVE SMOOTH",
"462 18 OFFCURVE",
"589 109 OFFCURVE",
"629 299 CURVE SMOOTH",
"635.658 330.495 OFFCURVE",
"638.824 359.417 OFFCURVE",
"638.824 385.927 CURVE SMOOTH",
"638.824 566.478 OFFCURVE",
"491.961 635.152 OFFCURVE",
"301 643 CURVE",
"234 328 LINE",
"352 328 LINE SMOOTH",
"362 328 OFFCURVE",
"368 318 OFFCURVE",
"366 308 CURVE SMOOTH",
"364 298 OFFCURVE",
"354 290 OFFCURVE",
"344 290 CURVE SMOOTH",
"226 290 LINE"
);
}
);
userData = {
com.fontlab.hintData = {
hhints = (
{
position = -21;
width = 39;
},
{
position = 290;
width = 38;
},
{
position = 643;
width = 38;
}
);
vhints = (
{
position = 639;
width = 37;
}
);
};
};
width = 645;
}
);
unicode = 00D0;
},
{
glyphname = Dcaron;
layers = (
{
layerId = master01;
paths = (
{
closed = 1;
nodes = (
"143 -21 OFFCURVE",
"88 -5 OFFCURVE",
"81 -3 CURVE SMOOTH",
"73 -1 OFFCURVE",
"69 7 OFFCURVE",
"71 15 CURVE SMOOTH",
"208 662 LINE",
"211 673 OFFCURVE",
"221 681 OFFCURVE",
"231 681 CURVE SMOOTH",
"379.104 681 OFFCURVE",
"630.335 635.882 OFFCURVE",
"630.335 390.884 CURVE SMOOTH",
"630.335 362.934 OFFCURVE",
"627.066 332.383 OFFCURVE",
"620 299 CURVE SMOOTH",
"573 76 OFFCURVE",
"394 -21 OFFCURVE",
"202 -21 CURVE SMOOTH"
);
},
{
closed = 1;
nodes = (
"112 31 LINE",
"137 25 OFFCURVE",
"176 18 OFFCURVE",
"210 18 CURVE SMOOTH",
"399 18 OFFCURVE",
"542 109 OFFCURVE",
"582 299 CURVE SMOOTH",
"588.289 328.75 OFFCURVE",
"591.272 356.188 OFFCURVE",
"591.272 381.458 CURVE SMOOTH",
"591.272 565.143 OFFCURVE",
"433.637 634.209 OFFCURVE",
"242 643 CURVE"
);
},
{
closed = 1;
nodes = (
"415 743 OFFCURVE",
"410 745 OFFCURVE",
"407 749 CURVE SMOOTH",
"319 862 LINE SMOOTH",
"316 866 OFFCURVE",
"314 869 OFFCURVE",
"315 874 CURVE SMOOTH",
"317 883 OFFCURVE",
"327 892 OFFCURVE",
"336 892 CURVE SMOOTH",
"341 892 OFFCURVE",
"345 890 OFFCURVE",
"348 887 CURVE SMOOTH",
"433 792 LINE",
"577 888 LINE SMOOTH",
"581 890 OFFCURVE",
"585 892 OFFCURVE",
"589 892 CURVE SMOOTH",
"599 892 OFFCURVE",
"605 883 OFFCURVE",
"603 874 CURVE SMOOTH",
"602 869 OFFCURVE",
"598 864 OFFCURVE",
"594 861 CURVE SMOOTH",
"434 748 LINE SMOOTH",
"430 745 OFFCURVE",
"424 743 OFFCURVE",
"420 743 CURVE SMOOTH"
);
}
);
userData = {
com.fontlab.hintData = {
hhints = (
{
position = -21;
width = 39;
},
{
position = 643;
width = 38;
}
);
vhints = (
{
position = 591;
width = 39;
}
);
};
};
width = 610;
}
);
unicode = 010E;
},
{
glyphname = Dcroat;
layers = (
{
layerId = master01;
paths = (
{
closed = 1;
nodes = (
"206 -21 OFFCURVE",
"151 -5 OFFCURVE",
"144 -3 CURVE SMOOTH",
"135 -1 OFFCURVE",
"131 7 OFFCURVE",
"133 15 CURVE SMOOTH",
"191 290 LINE",
"116 290 LINE SMOOTH",
"106 290 OFFCURVE",
"100 298 OFFCURVE",
"102 308 CURVE SMOOTH",
"104 318 OFFCURVE",
"114 328 OFFCURVE",
"124 328 CURVE SMOOTH",
"199 328 LINE",
"270 662 LINE",
"273 673 OFFCURVE",
"284 681 OFFCURVE",
"294 681 CURVE SMOOTH",
"440.341 681 OFFCURVE",
"675.86 636.411 OFFCURVE",
"675.86 395.186 CURVE SMOOTH",
"675.86 366.076 OFFCURVE",
"672.43 334.104 OFFCURVE",
"665 299 CURVE SMOOTH",
"618 76 OFFCURVE",
"457 -21 OFFCURVE",
"264 -21 CURVE SMOOTH"
);
},
{
closed = 1;
nodes = (
"171 31 LINE",
"197 25 OFFCURVE",
"238 18 OFFCURVE",
"272 18 CURVE SMOOTH",
"462 18 OFFCURVE",
"589 109 OFFCURVE",
"629 299 CURVE SMOOTH",
"635.658 330.495 OFFCURVE",
"638.824 359.417 OFFCURVE",
"638.824 385.927 CURVE SMOOTH",
"638.824 566.478 OFFCURVE",
"491.961 635.152 OFFCURVE",
"301 643 CURVE",
"234 328 LINE",
"352 328 LINE SMOOTH",
"362 328 OFFCURVE",
"368 318 OFFCURVE",
"366 308 CURVE SMOOTH",
"364 298 OFFCURVE",
"354 290 OFFCURVE",
"344 290 CURVE SMOOTH",
"226 290 LINE"
);
}
);
userData = {
com.fontlab.hintData = {
hhints = (
{
position = -21;
width = 39;
},
{
position = 290;
width = 38;
},
{
position = 643;
width = 38;
}
);
vhints = (
{
position = 639;
width = 37;
}
);
};
};
width = 645;
}
);
unicode = 0110;
},
{
glyphname = E;
layers = (
{
layerId = master01;
paths = (
{
closed = 1;
nodes = (
"534 38 LINE SMOOTH",
"544 38 OFFCURVE",
"551 30 OFFCURVE",
"549 20 CURVE SMOOTH",
"546 9 OFFCURVE",
"536 0 OFFCURVE",
"526 0 CURVE SMOOTH",
"87 0 LINE SMOOTH",
"77 0 OFFCURVE",
"69 9 OFFCURVE",
"72 20 CURVE",
"209 664 LINE SMOOTH",
"211 674 OFFCURVE",
"221 682 OFFCURVE",
"231 682 CURVE SMOOTH",
"672 682 LINE SMOOTH",
"682 682 OFFCURVE",
"690 674 OFFCURVE",
"688 664 CURVE SMOOTH",
"685 653 OFFCURVE",
"674 644 OFFCURVE",
"664 644 CURVE SMOOTH",
"242 644 LINE",
"185 372 LINE",
"557 372 LINE SMOOTH",
"567 372 OFFCURVE",
"573 364 OFFCURVE",
"571 353 CURVE",
"568 343 OFFCURVE",
"558 334 OFFCURVE",
"548 334 CURVE SMOOTH",
"176 334 LINE",
"114 38 LINE"
);
}
);
userData = {
com.fontlab.hintData = {
hhints = (
{
position = 0;
width = 38;
},
{
position = 334;
width = 38;
},
{
position = 644;
width = 38;
}
);
};
};
width = 600;
}
);
unicode = 0045;
},
{
glyphname = Eacute;
layers = (
{
layerId = master01;
paths = (
{
closed = 1;
nodes = (
"534 38 LINE SMOOTH",
"544 38 OFFCURVE",
"551 30 OFFCURVE",
"549 20 CURVE SMOOTH",
"546 9 OFFCURVE",
"536 0 OFFCURVE",
"526 0 CURVE SMOOTH",
"87 0 LINE SMOOTH",
"77 0 OFFCURVE",
"69 9 OFFCURVE",
"72 20 CURVE",
"209 664 LINE SMOOTH",
"211 674 OFFCURVE",
"221 682 OFFCURVE",
"231 682 CURVE SMOOTH",
"672 682 LINE SMOOTH",
"682 682 OFFCURVE",
"690 674 OFFCURVE",
"688 664 CURVE SMOOTH",
"685 653 OFFCURVE",
"674 644 OFFCURVE",
"664 644 CURVE SMOOTH",
"242 644 LINE",
"185 372 LINE",
"557 372 LINE SMOOTH",
"567 372 OFFCURVE",
"573 364 OFFCURVE",
"571 353 CURVE",
"568 343 OFFCURVE",
"558 334 OFFCURVE",
"548 334 CURVE SMOOTH",
"176 334 LINE",
"114 38 LINE"
);
},
{
closed = 1;
nodes = (
"412 759 LINE SMOOTH",
"404 754 OFFCURVE",
"398 752 OFFCURVE",
"394 752 CURVE SMOOTH",
"385 752 OFFCURVE",
"379 760 OFFCURVE",
"381 769 CURVE SMOOTH",
"382 772 OFFCURVE",
"383 777 OFFCURVE",
"390 782 CURVE SMOOTH",
"540 886 LINE SMOOTH",
"550 893 OFFCURVE",
"559 900 OFFCURVE",
"569 900 CURVE SMOOTH",
"578.655 900 OFFCURVE",
"587.539 889.985 OFFCURVE",
"587.539 878.069 CURVE SMOOTH",
"587.539 876.409 OFFCURVE",
"587.367 874.712 OFFCURVE",
"587 873 CURVE SMOOTH",
"586 866 OFFCURVE",
"584 862 OFFCURVE",
"576 857 CURVE SMOOTH"
);
}
);
userData = {
com.fontlab.hintData = {
hhints = (
{
position = 0;
width = 38;
},
{
position = 334;
width = 38;
},
{
position = 644;
width = 38;
}
);
};
};
width = 600;
}
);
unicode = 00C9;
},
{
glyphname = Ecaron;
layers = (
{
layerId = master01;
paths = (
{
closed = 1;
nodes = (
"534 38 LINE SMOOTH",
"544 38 OFFCURVE",
"551 30 OFFCURVE",
"549 20 CURVE SMOOTH",
"546 9 OFFCURVE",
"536 0 OFFCURVE",
"526 0 CURVE SMOOTH",
"87 0 LINE SMOOTH",
"77 0 OFFCURVE",
"69 9 OFFCURVE",
"72 20 CURVE",
"209 664 LINE SMOOTH",
"211 674 OFFCURVE",
"221 682 OFFCURVE",
"231 682 CURVE SMOOTH",
"672 682 LINE SMOOTH",
"682 682 OFFCURVE",
"690 674 OFFCURVE",
"688 664 CURVE SMOOTH",
"685 653 OFFCURVE",
"674 644 OFFCURVE",
"664 644 CURVE SMOOTH",
"242 644 LINE",
"185 372 LINE",
"557 372 LINE SMOOTH",
"567 372 OFFCURVE",
"573 364 OFFCURVE",
"571 353 CURVE",
"568 343 OFFCURVE",
"558 334 OFFCURVE",
"548 334 CURVE SMOOTH",
"176 334 LINE",
"114 38 LINE"
);
},
{
closed = 1;
nodes = (
"453 743 OFFCURVE",
"448 745 OFFCURVE",
"445 749 CURVE SMOOTH",
"357 862 LINE SMOOTH",
"354 866 OFFCURVE",
"352 869 OFFCURVE",
"353 874 CURVE SMOOTH",
"355 883 OFFCURVE",
"365 892 OFFCURVE",
"374 892 CURVE SMOOTH",
"379 892 OFFCURVE",
"383 890 OFFCURVE",
"386 887 CURVE SMOOTH",
"471 792 LINE",
"615 888 LINE SMOOTH",
"619 890 OFFCURVE",
"623 892 OFFCURVE",
"627 892 CURVE SMOOTH",
"637 892 OFFCURVE",
"643 883 OFFCURVE",
"641 874 CURVE SMOOTH",
"640 869 OFFCURVE",
"636 864 OFFCURVE",
"632 861 CURVE SMOOTH",
"472 748 LINE SMOOTH",
"468 745 OFFCURVE",
"462 743 OFFCURVE",
"458 743 CURVE SMOOTH"
);
}
);
userData = {
com.fontlab.hintData = {
hhints = (
{
position = 0;
width = 38;
},
{
position = 334;
width = 38;
},
{
position = 644;
width = 38;
}
);
};
};
width = 600;
}
);
unicode = 011A;
},
{
glyphname = Ecircumflex;
layers = (
{
layerId = master01;
paths = (
{
closed = 1;
nodes = (
"524 902 OFFCURVE",
"530 900 OFFCURVE",
"533 896 CURVE SMOOTH",
"621 783 LINE SMOOTH",
"624 779 OFFCURVE",
"625 776 OFFCURVE",
"624 771 CURVE SMOOTH",
"622 762 OFFCURVE",
"613 753 OFFCURVE",
"604 753 CURVE SMOOTH",
"599 753 OFFCURVE",
"595 755 OFFCURVE",
"592 758 CURVE SMOOTH",
"507 853 LINE",
"362 757 LINE SMOOTH",
"359 755 OFFCURVE",
"355 753 OFFCURVE",
"351 753 CURVE SMOOTH",
"341 753 OFFCURVE",
"334 762 OFFCURVE",
"336 771 CURVE SMOOTH",
"337 776 OFFCURVE",
"342 781 OFFCURVE",
"346 784 CURVE SMOOTH",
"505 897 LINE SMOOTH",
"510 900 OFFCURVE",
"515 902 OFFCURVE",
"519 902 CURVE SMOOTH"
);
},
{
closed = 1;
nodes = (
"534 38 LINE SMOOTH",
"544 38 OFFCURVE",
"551 30 OFFCURVE",
"549 20 CURVE SMOOTH",
"546 9 OFFCURVE",
"536 0 OFFCURVE",
"526 0 CURVE SMOOTH",
"87 0 LINE SMOOTH",
"77 0 OFFCURVE",
"69 9 OFFCURVE",
"72 20 CURVE",
"209 664 LINE SMOOTH",
"211 674 OFFCURVE",
"221 682 OFFCURVE",
"231 682 CURVE SMOOTH",
"672 682 LINE SMOOTH",
"682 682 OFFCURVE",
"690 674 OFFCURVE",
"688 664 CURVE SMOOTH",
"685 653 OFFCURVE",
"674 644 OFFCURVE",
"664 644 CURVE SMOOTH",
"242 644 LINE",
"185 372 LINE",
"557 372 LINE SMOOTH",
"567 372 OFFCURVE",
"573 364 OFFCURVE",
"571 353 CURVE",
"568 343 OFFCURVE",
"558 334 OFFCURVE",
"548 334 CURVE SMOOTH",
"176 334 LINE",
"114 38 LINE"
);
}
);
userData = {
com.fontlab.hintData = {
hhints = (
{
position = 0;
width = 38;
},
{
position = 334;
width = 38;
},
{
position = 644;
width = 38;
}
);
};
};
width = 600;
}
);
unicode = 00CA;
},
{
glyphname = Edieresis;
layers = (
{
layerId = master01;
paths = (
{
closed = 1;
nodes = (
"433 771 OFFCURVE",
"411 755 OFFCURVE",
"387 755 CURVE SMOOTH",
"369.732 755 OFFCURVE",
"356.594 765.738 OFFCURVE",
"356.594 780.457 CURVE SMOOTH",
"356.594 803.066 OFFCURVE",
"383.925 820 OFFCURVE",
"407 820 CURVE SMOOTH",
"423.909 820 OFFCURVE",
"437.65 809.704 OFFCURVE",
"437.65 795.455 CURVE SMOOTH",
"437.65 793.693 OFFCURVE",
"437.44 791.871 OFFCURVE",
"437 790 CURVE SMOOTH"
);
},
{
closed = 1;
nodes = (
"596 771 OFFCURVE",
"575 755 OFFCURVE",
"551 755 CURVE SMOOTH",
"533.732 755 OFFCURVE",
"520.594 765.738 OFFCURVE",
"520.594 780.457 CURVE SMOOTH",
"520.594 803.066 OFFCURVE",
"547.925 820 OFFCURVE",
"571 820 CURVE SMOOTH",
"587.797 820 OFFCURVE",
"600.686 809.84 OFFCURVE",
"600.686 795.739 CURVE SMOOTH",
"600.686 793.889 OFFCURVE",
"600.464 791.971 OFFCURVE",
"600 790 CURVE SMOOTH"
);
},
{
closed = 1;
nodes = (
"534 38 LINE SMOOTH",
"544 38 OFFCURVE",
"551 30 OFFCURVE",
"549 20 CURVE SMOOTH",
"546 9 OFFCURVE",
"536 0 OFFCURVE",
"526 0 CURVE SMOOTH",
"87 0 LINE SMOOTH",
"77 0 OFFCURVE",
"69 9 OFFCURVE",
"72 20 CURVE",
"209 664 LINE SMOOTH",
"211 674 OFFCURVE",
"221 682 OFFCURVE",
"231 682 CURVE SMOOTH",
"672 682 LINE SMOOTH",
"682 682 OFFCURVE",
"690 674 OFFCURVE",
"688 664 CURVE SMOOTH",
"685 653 OFFCURVE",
"674 644 OFFCURVE",
"664 644 CURVE SMOOTH",
"242 644 LINE",
"185 372 LINE",
"557 372 LINE SMOOTH",
"567 372 OFFCURVE",
"573 364 OFFCURVE",
"571 353 CURVE",
"568 343 OFFCURVE",
"558 334 OFFCURVE",
"548 334 CURVE SMOOTH",
"176 334 LINE",
"114 38 LINE"
);
}
);
userData = {
com.fontlab.hintData = {
hhints = (
{
position = 0;
width = 38;
},
{
position = 334;
width = 38;
},
{
position = 644;
width = 38;
},
{
position = 755;
width = 65;
}
);
vhints = (
{
position = 357;
width = 81;
},
{
position = 521;
width = 80;
}
);
};
};
width = 600;
}
);
unicode = 00CB;
},
{
glyphname = Egrave;
layers = (
{
layerId = master01;
paths = (
{
closed = 1;
nodes = (
"534 38 LINE SMOOTH",
"544 38 OFFCURVE",
"551 30 OFFCURVE",
"549 20 CURVE SMOOTH",
"546 9 OFFCURVE",
"536 0 OFFCURVE",
"526 0 CURVE SMOOTH",
"87 0 LINE SMOOTH",
"77 0 OFFCURVE",
"69 9 OFFCURVE",
"72 20 CURVE",
"209 664 LINE SMOOTH",
"211 674 OFFCURVE",
"221 682 OFFCURVE",
"231 682 CURVE SMOOTH",
"672 682 LINE SMOOTH",
"682 682 OFFCURVE",
"690 674 OFFCURVE",
"688 664 CURVE SMOOTH",
"685 653 OFFCURVE",
"674 644 OFFCURVE",
"664 644 CURVE SMOOTH",
"242 644 LINE",
"185 372 LINE",
"557 372 LINE SMOOTH",
"567 372 OFFCURVE",
"573 364 OFFCURVE",
"571 353 CURVE",
"568 343 OFFCURVE",
"558 334 OFFCURVE",
"548 334 CURVE SMOOTH",
"176 334 LINE",
"114 38 LINE"
);
},
{
closed = 1;
nodes = (
"516 765 LINE SMOOTH",
"519 760 OFFCURVE",
"520 756 OFFCURVE",
"519 752 CURVE SMOOTH",
"517 742 OFFCURVE",
"506 736 OFFCURVE",
"497 736 CURVE SMOOTH",
"493 736 OFFCURVE",
"488 738 OFFCURVE",
"485 742 CURVE SMOOTH",
"389 868 LINE SMOOTH",
"385 874 OFFCURVE",
"384 880 OFFCURVE",
"385 887 CURVE SMOOTH",
"388 901 OFFCURVE",
"403 912 OFFCURVE",
"417 912 CURVE SMOOTH",
"425 912 OFFCURVE",
"432 909 OFFCURVE",
"436 901 CURVE SMOOTH"
);
}
);
userData = {
com.fontlab.hintData = {
hhints = (
{
position = 0;
width = 38;
},
{
position = 334;
width = 38;
},
{
position = 644;
width = 38;
}
);
};
};
width = 600;
}
);
unicode = 00C8;
},
{
glyphname = Eogonek;
layers = (
{
layerId = master01;
paths = (
{
closed = 1;
nodes = (
"373.497 -206 OFFCURVE",
"342.85 -174.322 OFFCURVE",
"342.85 -129.961 CURVE SMOOTH",
"342.85 -123.243 OFFCURVE",
"343.553 -116.234 OFFCURVE",
"345 -109 CURVE SMOOTH",
"355 -64 OFFCURVE",
"391 -27 OFFCURVE",
"430 0 CURVE",
"87 0 LINE SMOOTH",
"77 0 OFFCURVE",
"69 9 OFFCURVE",
"72 20 CURVE",
"209 664 LINE SMOOTH",
"211 674 OFFCURVE",
"221 682 OFFCURVE",
"231 682 CURVE SMOOTH",
"672 682 LINE SMOOTH",
"682 682 OFFCURVE",
"690 674 OFFCURVE",
"688 664 CURVE SMOOTH",
"685 653 OFFCURVE",
"674 644 OFFCURVE",
"664 644 CURVE SMOOTH",
"242 644 LINE",
"185 372 LINE",
"557 372 LINE SMOOTH",
"567 372 OFFCURVE",
"573 364 OFFCURVE",
"571 353 CURVE",
"568 343 OFFCURVE",
"558 334 OFFCURVE",
"548 334 CURVE SMOOTH",
"176 334 LINE",
"114 38 LINE",
"534 38 LINE SMOOTH",
"544 38 OFFCURVE",
"551 30 OFFCURVE",
"549 20 CURVE SMOOTH",
"546 9 OFFCURVE",
"536 0 OFFCURVE",
"526 0 CURVE SMOOTH",
"482 0 LINE",
"463 -12 LINE SMOOTH",
"430 -33 OFFCURVE",
"387 -61 OFFCURVE",
"376 -110 CURVE SMOOTH",
"374.992 -114.915 OFFCURVE",
"374.508 -119.608 OFFCURVE",
"374.508 -124.056 CURVE SMOOTH",
"374.508 -154.904 OFFCURVE",
"397.789 -174 OFFCURVE",
"431 -174 CURVE SMOOTH",
"454 -174 OFFCURVE",
"478 -166 OFFCURVE",
"504 -150 CURVE SMOOTH",
"507 -148 OFFCURVE",
"510 -147 OFFCURVE",
"513 -147 CURVE SMOOTH",
"520 -147 OFFCURVE",
"527 -154 OFFCURVE",
"525 -162 CURVE SMOOTH",
"520 -186 OFFCURVE",
"457 -206 OFFCURVE",
"423 -206 CURVE SMOOTH"
);
}
);
userData = {
com.fontlab.hintData = {
hhints = (
{
position = -206;
width = 32;
},
{
position = 0;
width = 38;
},
{
position = 334;
width = 38;
},
{
position = 644;
width = 38;
}
);
vhints = (
{
position = 343;
width = 32;
}
);
};
};
width = 600;
}
);
unicode = 0118;
},
{
glyphname = F;
layers = (
{
layerId = master01;
paths = (
{
closed = 1;
nodes = (
"105 19 LINE",
"102 8 OFFCURVE",
"91 -1 OFFCURVE",
"81 -1 CURVE SMOOTH",
"71 -1 OFFCURVE",
"64 8 OFFCURVE",
"67 19 CURVE",
"203 661 LINE SMOOTH",
"205 672 OFFCURVE",
"216 681 OFFCURVE",
"226 681 CURVE SMOOTH",
"667 681 LINE SMOOTH",
"677 681 OFFCURVE",
"684 672 OFFCURVE",
"682 661 CURVE SMOOTH",
"680 651 OFFCURVE",
"669 643 OFFCURVE",
"659 643 CURVE SMOOTH",
"237 643 LINE",
"179 371 LINE",
"509 371 LINE SMOOTH",
"520 371 OFFCURVE",
"526 362 OFFCURVE",
"524 351 CURVE SMOOTH",
"522 341 OFFCURVE",
"512 333 OFFCURVE",
"501 333 CURVE SMOOTH",
"171 333 LINE"
);
}
);
userData = {
com.fontlab.hintData = {
hhints = (
{
position = -1;
width = 21;
},
{
position = 333;
width = 38;
},
{
position = 643;
width = 38;
}
);
};
};
width = 535;
}
);
unicode = 0046;
},
{
glyphname = G;
layers = (
{
layerId = master01;
paths = (
{
closed = 1;
nodes = (
"742 265 OFFCURVE",
"746 260 OFFCURVE",
"744 250 CURVE SMOOTH",
"741 239 OFFCURVE",
"733 231 OFFCURVE",
"723 231 CURVE SMOOTH",
"717 231 OFFCURVE",
"710 234 OFFCURVE",
"698 237 CURVE",
"638 104 OFFCURVE",
"515 -1 OFFCURVE",
"360 -1 CURVE SMOOTH",
"203.921 -1 OFFCURVE",
"122.579 115.02 OFFCURVE",
"122.579 252.78 CURVE SMOOTH",
"122.579 278.307 OFFCURVE",
"125.372 304.58 OFFCURVE",
"131 331 CURVE SMOOTH",
"166 498 OFFCURVE",
"328 683 OFFCURVE",
"523 683 CURVE SMOOTH",
"696.255 683 OFFCURVE",
"745.901 560.25 OFFCURVE",
"745.901 510.392 CURVE SMOOTH",
"745.901 506.437 OFFCURVE",
"745.588 502.94 OFFCURVE",
"745 500 CURVE SMOOTH",
"743 490 OFFCURVE",
"733 483 OFFCURVE",
"723 483 CURVE SMOOTH",
"714 483 OFFCURVE",
"708 488 OFFCURVE",
"707 498 CURVE SMOOTH",
"696 568 OFFCURVE",
"651 645 OFFCURVE",
"515 645 CURVE SMOOTH",
"309 645 OFFCURVE",
"190 428 OFFCURVE",
"170 331 CURVE SMOOTH",
"165.379 309.264 OFFCURVE",
"162.926 286.356 OFFCURVE",
"162.926 263.314 CURVE SMOOTH",
"162.926 151.727 OFFCURVE",
"220.465 37 OFFCURVE",
"368 37 CURVE SMOOTH",
"493 37 OFFCURVE",
"604 116 OFFCURVE",
"663 244 CURVE",
"645 246 OFFCURVE",
"634 246 OFFCURVE",
"621 246 CURVE SMOOTH",
"564 246 OFFCURVE",
"527 237 OFFCURVE",
"504 232 CURVE SMOOTH",
"493 230 OFFCURVE",
"488 228 OFFCURVE",
"482 228 CURVE SMOOTH",
"473 228 OFFCURVE",
"465 235 OFFCURVE",
"468 247 CURVE SMOOTH",
"469 254 OFFCURVE",
"476 262 OFFCURVE",
"485 265 CURVE SMOOTH",
"488 266 OFFCURVE",
"555 284 OFFCURVE",
"628 284 CURVE SMOOTH",
"691 284 OFFCURVE",
"727 271 OFFCURVE",
"735 268 CURVE SMOOTH"
);
}
);
userData = {
com.fontlab.hintData = {
hhints = (
{
position = -1;
width = 38;
},
{
position = 231;
width = 37;
},
{
position = 246;
width = 38;
},
{
position = 645;
width = 38;
}
);
vhints = (
{
position = 123;
width = 40;
},
{
position = 707;
width = 38;
}
);
};
};
width = 741;
}
);
unicode = 0047;
},
{
glyphname = Gcircumflex;
layers = (
{
layerId = master01;
paths = (
{
closed = 1;
nodes = (
"742 265 OFFCURVE",
"746 260 OFFCURVE",
"744 250 CURVE SMOOTH",
"741 239 OFFCURVE",
"733 231 OFFCURVE",
"723 231 CURVE SMOOTH",
"717 231 OFFCURVE",
"710 234 OFFCURVE",
"698 237 CURVE",
"638 104 OFFCURVE",
"515 -1 OFFCURVE",
"360 -1 CURVE SMOOTH",
"203.921 -1 OFFCURVE",
"122.579 115.02 OFFCURVE",
"122.579 252.78 CURVE SMOOTH",
"122.579 278.307 OFFCURVE",
"125.372 304.58 OFFCURVE",
"131 331 CURVE SMOOTH",
"166 498 OFFCURVE",
"328 683 OFFCURVE",
"523 683 CURVE SMOOTH",
"696.255 683 OFFCURVE",
"745.901 560.25 OFFCURVE",
"745.901 510.392 CURVE SMOOTH",
"745.901 506.437 OFFCURVE",
"745.588 502.94 OFFCURVE",
"745 500 CURVE SMOOTH",
"743 490 OFFCURVE",
"733 483 OFFCURVE",
"723 483 CURVE SMOOTH",
"714 483 OFFCURVE",
"708 488 OFFCURVE",
"707 498 CURVE SMOOTH",
"696 568 OFFCURVE",
"651 645 OFFCURVE",
"515 645 CURVE SMOOTH",
"309 645 OFFCURVE",
"190 428 OFFCURVE",
"170 331 CURVE SMOOTH",
"165.379 309.264 OFFCURVE",
"162.926 286.356 OFFCURVE",
"162.926 263.314 CURVE SMOOTH",
"162.926 151.727 OFFCURVE",
"220.465 37 OFFCURVE",
"368 37 CURVE SMOOTH",
"493 37 OFFCURVE",
"604 116 OFFCURVE",
"663 244 CURVE",
"645 246 OFFCURVE",
"634 246 OFFCURVE",
"621 246 CURVE SMOOTH",
"564 246 OFFCURVE",
"527 237 OFFCURVE",
"504 232 CURVE SMOOTH",
"493 230 OFFCURVE",
"488 228 OFFCURVE",
"482 228 CURVE SMOOTH",
"473 228 OFFCURVE",
"465 235 OFFCURVE",
"468 247 CURVE SMOOTH",
"469 254 OFFCURVE",
"476 262 OFFCURVE",
"485 265 CURVE SMOOTH",
"488 266 OFFCURVE",
"555 284 OFFCURVE",
"628 284 CURVE SMOOTH",
"691 284 OFFCURVE",
"727 271 OFFCURVE",
"735 268 CURVE SMOOTH"
);
},
{
closed = 1;
nodes = (
"572 902 OFFCURVE",
"578 900 OFFCURVE",
"581 896 CURVE SMOOTH",
"669 783 LINE SMOOTH",
"672 779 OFFCURVE",
"673 776 OFFCURVE",
"672 771 CURVE SMOOTH",
"670 762 OFFCURVE",
"661 753 OFFCURVE",
"652 753 CURVE SMOOTH",
"647 753 OFFCURVE",
"643 755 OFFCURVE",
"640 758 CURVE SMOOTH",
"555 853 LINE",
"410 757 LINE SMOOTH",
"407 755 OFFCURVE",
"403 753 OFFCURVE",
"399 753 CURVE SMOOTH",
"389 753 OFFCURVE",
"382 762 OFFCURVE",
"384 771 CURVE SMOOTH",
"385 776 OFFCURVE",
"390 781 OFFCURVE",
"394 784 CURVE SMOOTH",
"553 897 LINE SMOOTH",
"558 900 OFFCURVE",
"563 902 OFFCURVE",
"567 902 CURVE SMOOTH"
);
}
);
userData = {
com.fontlab.hintData = {
hhints = (
{
position = -1;
width = 38;
},
{
position = 231;
width = 37;
},
{
position = 246;
width = 38;
},
{
position = 645;
width = 38;
}
);
vhints = (
{
position = 123;
width = 40;
},
{
position = 707;
width = 38;
}
);
};
};
width = 741;
}
);
unicode = 011C;
},
{
glyphname = H;
layers = (
{
layerId = master01;
paths = (
{
closed = 1;
nodes = (
"754 681 OFFCURVE",
"761 673 OFFCURVE",
"758 662 CURVE",
"622 19 LINE",
"619 8 OFFCURVE",
"610 0 OFFCURVE",
"600 0 CURVE SMOOTH",
"589 0 OFFCURVE",
"581 8 OFFCURVE",
"584 19 CURVE",
"656 361 LINE",
"167 296 LINE",
"109 19 LINE",
"106 8 OFFCURVE",
"96 0 OFFCURVE",
"86 0 CURVE SMOOTH",
"75 0 OFFCURVE",
"68 8 OFFCURVE",
"71 19 CURVE",
"207 662 LINE",
"210 673 OFFCURVE",
"219 681 OFFCURVE",
"230 681 CURVE SMOOTH",
"240 681 OFFCURVE",
"248 673 OFFCURVE",
"245 662 CURVE",
"176 335 LINE",
"665 400 LINE",
"720 662 LINE",
"723 673 OFFCURVE",
"733 681 OFFCURVE",
"744 681 CURVE SMOOTH"
);
}
);
userData = {
com.fontlab.hintData = {
hhints = (
{
position = 0;
width = 21;
},
{
position = 661;
width = 20;
}
);
};
};
width = 675;
}
);
unicode = 0048;
},
{
glyphname = Hcircumflex;
layers = (
{
layerId = master01;
paths = (
{
closed = 1;
nodes = (
"754 681 OFFCURVE",
"761 673 OFFCURVE",
"758 662 CURVE SMOOTH",
"622 19 LINE SMOOTH",
"619 8 OFFCURVE",
"610 0 OFFCURVE",
"600 0 CURVE SMOOTH",
"589 0 OFFCURVE",
"581 8 OFFCURVE",
"584 19 CURVE SMOOTH",
"656 361 LINE",
"167 296 LINE",
"109 19 LINE SMOOTH",
"106 8 OFFCURVE",
"96 0 OFFCURVE",
"86 0 CURVE SMOOTH",
"75 0 OFFCURVE",
"68 8 OFFCURVE",
"71 19 CURVE SMOOTH",
"207 662 LINE SMOOTH",
"210 673 OFFCURVE",
"219 681 OFFCURVE",
"230 681 CURVE SMOOTH",
"240 681 OFFCURVE",
"248 673 OFFCURVE",
"245 662 CURVE SMOOTH",
"176 335 LINE",
"665 400 LINE",
"720 662 LINE SMOOTH",
"723 673 OFFCURVE",
"733 681 OFFCURVE",
"744 681 CURVE SMOOTH"
);
},
{
closed = 1;
nodes = (
"542 902 OFFCURVE",
"548 900 OFFCURVE",
"551 896 CURVE SMOOTH",
"639 783 LINE SMOOTH",
"642 779 OFFCURVE",
"643 776 OFFCURVE",
"642 771 CURVE SMOOTH",
"640 762 OFFCURVE",
"631 753 OFFCURVE",
"622 753 CURVE SMOOTH",
"617 753 OFFCURVE",
"613 755 OFFCURVE",
"610 758 CURVE SMOOTH",
"525 853 LINE",
"380 757 LINE SMOOTH",
"377 755 OFFCURVE",
"373 753 OFFCURVE",
"369 753 CURVE SMOOTH",
"359 753 OFFCURVE",
"352 762 OFFCURVE",
"354 771 CURVE SMOOTH",
"355 776 OFFCURVE",
"360 781 OFFCURVE",
"364 784 CURVE SMOOTH",
"523 897 LINE SMOOTH",
"528 900 OFFCURVE",
"533 902 OFFCURVE",
"537 902 CURVE SMOOTH"
);
}
);
userData = {
com.fontlab.hintData = {
hhints = (
{
position = 0;
width = 21;
},
{
position = 661;
width = 20;
}
);
};
};
width = 675;
}
);
unicode = 0124;
},
{
glyphname = I;
layers = (
{
layerId = master01;
paths = (
{
closed = 1;
nodes = (
"354 37 LINE SMOOTH",
"366 37 OFFCURVE",
"372 29 OFFCURVE",
"370 19 CURVE SMOOTH",
"367 8 OFFCURVE",
"356 -1 OFFCURVE",
"346 -1 CURVE SMOOTH",
"82 -1 LINE SMOOTH",
"72 -1 OFFCURVE",
"65 8 OFFCURVE",
"68 19 CURVE SMOOTH",
"70 29 OFFCURVE",
"80 37 OFFCURVE",
"90 37 CURVE SMOOTH",
"204 37 LINE",
"333 643 LINE",
"219 643 LINE SMOOTH",
"209 643 OFFCURVE",
"202 652 OFFCURVE",
"204 662 CURVE SMOOTH",
"207 673 OFFCURVE",
"217 681 OFFCURVE",
"227 681 CURVE SMOOTH",
"491 681 LINE SMOOTH",
"501 681 OFFCURVE",
"509 673 OFFCURVE",
"506 662 CURVE SMOOTH",
"504 652 OFFCURVE",
"493 643 OFFCURVE",
"483 643 CURVE SMOOTH",
"371 643 LINE",
"242 37 LINE"
);
}
);
userData = {
com.fontlab.hintData = {
hhints = (
{
position = -1;
width = 38;
},
{
position = 643;
width = 38;
}
);
};
};
width = 423;
}
);
unicode = 0049;
},
{
glyphname = Iacute;
layers = (
{
layerId = master01;
paths = (
{
closed = 1;
nodes = (
"354 37 LINE SMOOTH",
"366 37 OFFCURVE",
"372 29 OFFCURVE",
"370 19 CURVE SMOOTH",
"367 8 OFFCURVE",
"356 -1 OFFCURVE",
"346 -1 CURVE SMOOTH",
"82 -1 LINE SMOOTH",
"72 -1 OFFCURVE",
"65 8 OFFCURVE",
"68 19 CURVE SMOOTH",
"70 29 OFFCURVE",
"80 37 OFFCURVE",
"90 37 CURVE SMOOTH",
"204 37 LINE",
"333 643 LINE",
"219 643 LINE SMOOTH",
"209 643 OFFCURVE",
"202 652 OFFCURVE",
"204 662 CURVE SMOOTH",
"207 673 OFFCURVE",
"217 681 OFFCURVE",
"227 681 CURVE SMOOTH",
"491 681 LINE SMOOTH",
"501 681 OFFCURVE",
"509 673 OFFCURVE",
"506 662 CURVE SMOOTH",
"504 652 OFFCURVE",
"493 643 OFFCURVE",
"483 643 CURVE SMOOTH",
"371 643 LINE",
"242 37 LINE"
);
},
{
closed = 1;
nodes = (
"336 759 LINE SMOOTH",
"328 754 OFFCURVE",
"322 752 OFFCURVE",
"318 752 CURVE SMOOTH",
"309 752 OFFCURVE",
"303 760 OFFCURVE",
"305 769 CURVE SMOOTH",
"306 772 OFFCURVE",
"307 777 OFFCURVE",
"314 782 CURVE SMOOTH",
"464 886 LINE SMOOTH",
"474 893 OFFCURVE",
"483 900 OFFCURVE",
"493 900 CURVE SMOOTH",
"502.655 900 OFFCURVE",
"511.539 889.985 OFFCURVE",
"511.539 878.069 CURVE SMOOTH",
"511.539 876.409 OFFCURVE",
"511.367 874.712 OFFCURVE",
"511 873 CURVE SMOOTH",
"510 866 OFFCURVE",
"508 862 OFFCURVE",
"500 857 CURVE SMOOTH"
);
}
);
userData = {
com.fontlab.hintData = {
hhints = (
{
position = -1;
width = 38;
},
{
position = 643;
width = 38;
}
);
};
};
width = 423;
}
);
unicode = 00CD;
},
{
glyphname = Icircumflex;
layers = (
{
layerId = master01;
paths = (
{
closed = 1;
nodes = (
"428 902 OFFCURVE",
"434 900 OFFCURVE",
"437 896 CURVE SMOOTH",
"525 783 LINE SMOOTH",
"528 779 OFFCURVE",
"529 776 OFFCURVE",
"528 771 CURVE SMOOTH",
"526 762 OFFCURVE",
"517 753 OFFCURVE",
"508 753 CURVE SMOOTH",
"503 753 OFFCURVE",
"499 755 OFFCURVE",
"496 758 CURVE SMOOTH",
"411 853 LINE",
"266 757 LINE SMOOTH",
"263 755 OFFCURVE",
"259 753 OFFCURVE",
"255 753 CURVE SMOOTH",
"245 753 OFFCURVE",
"238 762 OFFCURVE",
"240 771 CURVE SMOOTH",
"241 776 OFFCURVE",
"246 781 OFFCURVE",
"250 784 CURVE SMOOTH",
"409 897 LINE SMOOTH",
"414 900 OFFCURVE",
"419 902 OFFCURVE",
"423 902 CURVE SMOOTH"
);
},
{
closed = 1;
nodes = (
"354 37 LINE SMOOTH",
"366 37 OFFCURVE",
"372 29 OFFCURVE",
"370 19 CURVE SMOOTH",
"367 8 OFFCURVE",
"356 -1 OFFCURVE",
"346 -1 CURVE SMOOTH",
"82 -1 LINE SMOOTH",
"72 -1 OFFCURVE",
"65 8 OFFCURVE",
"68 19 CURVE SMOOTH",
"70 29 OFFCURVE",
"80 37 OFFCURVE",
"90 37 CURVE SMOOTH",
"204 37 LINE",
"333 643 LINE",
"219 643 LINE SMOOTH",
"209 643 OFFCURVE",
"202 652 OFFCURVE",
"204 662 CURVE SMOOTH",
"207 673 OFFCURVE",
"217 681 OFFCURVE",
"227 681 CURVE SMOOTH",
"491 681 LINE SMOOTH",
"501 681 OFFCURVE",
"509 673 OFFCURVE",
"506 662 CURVE SMOOTH",
"504 652 OFFCURVE",
"493 643 OFFCURVE",
"483 643 CURVE SMOOTH",
"371 643 LINE",
"242 37 LINE"
);
}
);
userData = {
com.fontlab.hintData = {
hhints = (
{
position = -1;
width = 38;
},
{
position = 643;
width = 38;
}
);
};
};
width = 423;
}
);
unicode = 00CE;
},
{
glyphname = Idieresis;
layers = (
{
layerId = master01;
paths = (
{
closed = 1;
nodes = (
"340 771 OFFCURVE",
"319 755 OFFCURVE",
"295 755 CURVE SMOOTH",
"276.927 755 OFFCURVE",
"264.57 765.615 OFFCURVE",
"264.57 780.205 CURVE SMOOTH",
"264.57 803.005 OFFCURVE",
"290.791 820 OFFCURVE",
"315 820 CURVE SMOOTH",
"331.797 820 OFFCURVE",
"344.686 809.84 OFFCURVE",
"344.686 795.739 CURVE SMOOTH",
"344.686 793.889 OFFCURVE",
"344.464 791.971 OFFCURVE",
"344 790 CURVE SMOOTH"
);
},
{
closed = 1;
nodes = (
"504 771 OFFCURVE",
"482 755 OFFCURVE",
"459 755 CURVE SMOOTH",
"440.927 755 OFFCURVE",
"428.57 765.615 OFFCURVE",
"428.57 780.205 CURVE SMOOTH",
"428.57 803.005 OFFCURVE",
"454.791 820 OFFCURVE",
"479 820 CURVE SMOOTH",
"495.013 820 OFFCURVE",
"508.652 809.712 OFFCURVE",
"508.652 795.472 CURVE SMOOTH",
"508.652 793.705 OFFCURVE",
"508.442 791.877 OFFCURVE",
"508 790 CURVE SMOOTH"
);
},
{
closed = 1;
nodes = (
"354 37 LINE SMOOTH",
"366 37 OFFCURVE",
"372 29 OFFCURVE",
"370 19 CURVE SMOOTH",
"367 8 OFFCURVE",
"356 -1 OFFCURVE",
"346 -1 CURVE SMOOTH",
"82 -1 LINE SMOOTH",
"72 -1 OFFCURVE",
"65 8 OFFCURVE",
"68 19 CURVE SMOOTH",
"70 29 OFFCURVE",
"80 37 OFFCURVE",
"90 37 CURVE SMOOTH",
"204 37 LINE",
"333 643 LINE",
"219 643 LINE SMOOTH",
"209 643 OFFCURVE",
"202 652 OFFCURVE",
"204 662 CURVE SMOOTH",
"207 673 OFFCURVE",
"217 681 OFFCURVE",
"227 681 CURVE SMOOTH",
"491 681 LINE SMOOTH",
"501 681 OFFCURVE",
"509 673 OFFCURVE",
"506 662 CURVE SMOOTH",
"504 652 OFFCURVE",
"493 643 OFFCURVE",
"483 643 CURVE SMOOTH",
"371 643 LINE",
"242 37 LINE"
);
}
);
userData = {
com.fontlab.hintData = {
hhints = (
{
position = -1;
width = 38;
},
{
position = 643;
width = 38;
},
{
position = 755;
width = 65;
}
);
vhints = (
{
position = 265;
width = 80;
},
{
position = 429;
width = 80;
}
);
};
};
width = 423;
}
);
unicode = 00CF;
},
{
glyphname = Igrave;
layers = (
{
layerId = master01;
paths = (
{
closed = 1;
nodes = (
"354 37 LINE SMOOTH",
"366 37 OFFCURVE",
"372 29 OFFCURVE",
"370 19 CURVE SMOOTH",
"367 8 OFFCURVE",
"356 -1 OFFCURVE",
"346 -1 CURVE SMOOTH",
"82 -1 LINE SMOOTH",
"72 -1 OFFCURVE",
"65 8 OFFCURVE",
"68 19 CURVE SMOOTH",
"70 29 OFFCURVE",
"80 37 OFFCURVE",
"90 37 CURVE SMOOTH",
"204 37 LINE",
"333 643 LINE",
"219 643 LINE SMOOTH",
"209 643 OFFCURVE",
"202 652 OFFCURVE",
"204 662 CURVE SMOOTH",
"207 673 OFFCURVE",
"217 681 OFFCURVE",
"227 681 CURVE SMOOTH",
"491 681 LINE SMOOTH",
"501 681 OFFCURVE",
"509 673 OFFCURVE",
"506 662 CURVE SMOOTH",
"504 652 OFFCURVE",
"493 643 OFFCURVE",
"483 643 CURVE SMOOTH",
"371 643 LINE",
"242 37 LINE"
);
},
{
closed = 1;
nodes = (
"446 765 LINE SMOOTH",
"449 760 OFFCURVE",
"450 756 OFFCURVE",
"449 752 CURVE SMOOTH",
"447 742 OFFCURVE",
"436 736 OFFCURVE",
"427 736 CURVE SMOOTH",
"423 736 OFFCURVE",
"418 738 OFFCURVE",
"415 742 CURVE SMOOTH",
"319 868 LINE SMOOTH",
"315 874 OFFCURVE",
"314 880 OFFCURVE",
"315 887 CURVE SMOOTH",
"318 901 OFFCURVE",
"333 912 OFFCURVE",
"347 912 CURVE SMOOTH",
"355 912 OFFCURVE",
"362 909 OFFCURVE",
"366 901 CURVE SMOOTH"
);
}
);
userData = {
com.fontlab.hintData = {
hhints = (
{
position = -1;
width = 38;
},
{
position = 643;
width = 38;
}
);
};
};
width = 423;
}
);
unicode = 00CC;
},
{
glyphname = J;
layers = (
{
layerId = master01;
paths = (
{
closed = 1;
nodes = (
"571 677 LINE SMOOTH",
"581 677 OFFCURVE",
"589 669 OFFCURVE",
"586 658 CURVE SMOOTH",
"584 648 OFFCURVE",
"573 639 OFFCURVE",
"563 639 CURVE SMOOTH",
"527 639 LINE",
"424 154 LINE SMOOTH",
"409 83 OFFCURVE",
"349 0 OFFCURVE",
"226 0 CURVE SMOOTH",
"105.809 0 OFFCURVE",
"83.783 77.531 OFFCURVE",
"83.783 129.757 CURVE SMOOTH",
"83.783 143.58 OFFCURVE",
"85.326 155.629 OFFCURVE",
"87 164 CURVE SMOOTH",
"90 176 OFFCURVE",
"99 185 OFFCURVE",
"112 185 CURVE SMOOTH",
"122 185 OFFCURVE",
"128 176 OFFCURVE",
"126 166 CURVE SMOOTH",
"124.659 159.563 OFFCURVE",
"122.455 147.372 OFFCURVE",
"122.455 132.977 CURVE SMOOTH",
"122.455 93.696 OFFCURVE",
"138.865 38 OFFCURVE",
"234 38 CURVE SMOOTH",
"349 38 OFFCURVE",
"379 118 OFFCURVE",
"386 154 CURVE SMOOTH",
"489 639 LINE",
"352 639 LINE SMOOTH",
"342 639 OFFCURVE",
"334 648 OFFCURVE",
"336 658 CURVE SMOOTH",
"339 669 OFFCURVE",
"350 677 OFFCURVE",
"360 677 CURVE SMOOTH"
);
}
);
userData = {
com.fontlab.hintData = {
hhints = (
{
position = 0;
width = 38;
},
{
position = 639;
width = 38;
}
);
vhints = (
{
position = 84;
width = 39;
}
);
};
};
width = 462;
}
);
unicode = 004A;
},
{
glyphname = Jcircumflex;
layers = (
{
layerId = master01;
paths = (
{
closed = 1;
nodes = (
"571 677 LINE SMOOTH",
"581 677 OFFCURVE",
"589 669 OFFCURVE",
"586 658 CURVE SMOOTH",
"584 648 OFFCURVE",
"573 639 OFFCURVE",
"563 639 CURVE SMOOTH",
"527 639 LINE",
"424 154 LINE SMOOTH",
"409 83 OFFCURVE",
"349 0 OFFCURVE",
"226 0 CURVE SMOOTH",
"105.809 0 OFFCURVE",
"83.783 77.531 OFFCURVE",
"83.783 129.757 CURVE SMOOTH",
"83.783 143.58 OFFCURVE",
"85.326 155.629 OFFCURVE",
"87 164 CURVE SMOOTH",
"90 176 OFFCURVE",
"99 185 OFFCURVE",
"112 185 CURVE SMOOTH",
"122 185 OFFCURVE",
"128 176 OFFCURVE",
"126 166 CURVE SMOOTH",
"124.659 159.563 OFFCURVE",
"122.455 147.372 OFFCURVE",
"122.455 132.977 CURVE SMOOTH",
"122.455 93.696 OFFCURVE",
"138.865 38 OFFCURVE",
"234 38 CURVE SMOOTH",
"349 38 OFFCURVE",
"379 118 OFFCURVE",
"386 154 CURVE SMOOTH",
"489 639 LINE",
"352 639 LINE SMOOTH",
"342 639 OFFCURVE",
"334 648 OFFCURVE",
"336 658 CURVE SMOOTH",
"339 669 OFFCURVE",
"350 677 OFFCURVE",
"360 677 CURVE SMOOTH"
);
},
{
closed = 1;
nodes = (
"542 902 OFFCURVE",
"548 900 OFFCURVE",
"551 896 CURVE SMOOTH",
"639 783 LINE SMOOTH",
"642 779 OFFCURVE",
"643 776 OFFCURVE",
"642 771 CURVE SMOOTH",
"640 762 OFFCURVE",
"631 753 OFFCURVE",
"622 753 CURVE SMOOTH",
"617 753 OFFCURVE",
"613 755 OFFCURVE",
"610 758 CURVE SMOOTH",
"525 853 LINE",
"380 757 LINE SMOOTH",
"377 755 OFFCURVE",
"373 753 OFFCURVE",
"369 753 CURVE SMOOTH",
"359 753 OFFCURVE",
"352 762 OFFCURVE",
"354 771 CURVE SMOOTH",
"355 776 OFFCURVE",
"360 781 OFFCURVE",
"364 784 CURVE SMOOTH",
"523 897 LINE SMOOTH",
"528 900 OFFCURVE",
"533 902 OFFCURVE",
"537 902 CURVE SMOOTH"
);
}
);
userData = {
com.fontlab.hintData = {
hhints = (
{
position = 0;
width = 38;
},
{
position = 639;
width = 38;
}
);
vhints = (
{
position = 84;
width = 39;
}
);
};
};
width = 462;
}
);
unicode = 0134;
},
{
glyphname = K;
layers = (
{
layerId = master01;
paths = (
{
closed = 1;
nodes = (
"609 677 LINE SMOOTH",
"614 680 OFFCURVE",
"618 682 OFFCURVE",
"623 682 CURVE SMOOTH",
"632 682 OFFCURVE",
"639 673 OFFCURVE",
"637 664 CURVE SMOOTH",
"635 658 OFFCURVE",
"631 653 OFFCURVE",
"627 650 CURVE SMOOTH",
"190 335 LINE",
"515 32 LINE SMOOTH",
"520 27 OFFCURVE",
"520 22 OFFCURVE",
"519 17 CURVE SMOOTH",
"517 6 OFFCURVE",
"506 -1 OFFCURVE",
"496 -1 CURVE SMOOTH",
"492 -1 OFFCURVE",
"489 0 OFFCURVE",
"486 3 CURVE SMOOTH",
"167 301 LINE",
"108 19 LINE",
"105 8 OFFCURVE",
"96 0 OFFCURVE",
"85 0 CURVE SMOOTH",
"76 0 OFFCURVE",
"69 8 OFFCURVE",
"72 19 CURVE",
"209 664 LINE SMOOTH",
"211 673 OFFCURVE",
"220 681 OFFCURVE",
"229 681 CURVE SMOOTH",
"240 681 OFFCURVE",
"247 673 OFFCURVE",
"245 664 CURVE SMOOTH",
"182 367 LINE"
);
}
);
userData = {
com.fontlab.hintData = {
hhints = (
{
position = 0;
width = 20;
},
{
position = 662;
width = 19;
}
);
};
};
width = 560;
}
);
unicode = 004B;
},
{
glyphname = L;
layers = (
{
layerId = master01;
paths = (
{
closed = 1;
nodes = (
"87 0 LINE SMOOTH",
"76 -1 OFFCURVE",
"69 7 OFFCURVE",
"72 19 CURVE SMOOTH",
"208 662 LINE",
"211 673 OFFCURVE",
"220 681 OFFCURVE",
"231 681 CURVE SMOOTH",
"241 681 OFFCURVE",
"248 673 OFFCURVE",
"245 662 CURVE",
"113 38 LINE",
"454 62 LINE SMOOTH",
"465 63 OFFCURVE",
"472 54 OFFCURVE",
"470 43 CURVE SMOOTH",
"468 34 OFFCURVE",
"459 26 OFFCURVE",
"448 25 CURVE SMOOTH"
);
}
);
userData = {
com.fontlab.hintData = {
hhints = (
{
position = 661;
width = 20;
}
);
};
};
width = 467;
}
);
unicode = 004C;
},
{
glyphname = Lacute;
layers = (
{
layerId = master01;
paths = (
{
closed = 1;
nodes = (
"87 0 LINE SMOOTH",
"76 -1 OFFCURVE",
"69 7 OFFCURVE",
"72 19 CURVE SMOOTH",
"208 662 LINE",
"211 673 OFFCURVE",
"220 681 OFFCURVE",
"231 681 CURVE SMOOTH",
"241 681 OFFCURVE",
"248 673 OFFCURVE",
"245 662 CURVE",
"113 38 LINE",
"454 62 LINE SMOOTH",
"465 63 OFFCURVE",
"472 54 OFFCURVE",
"470 43 CURVE SMOOTH",
"468 34 OFFCURVE",
"459 26 OFFCURVE",
"448 25 CURVE SMOOTH"
);
},
{
closed = 1;
nodes = (
"346 759 LINE SMOOTH",
"338 754 OFFCURVE",
"332 752 OFFCURVE",
"328 752 CURVE SMOOTH",
"319 752 OFFCURVE",
"313 760 OFFCURVE",
"315 769 CURVE SMOOTH",
"316 772 OFFCURVE",
"317 777 OFFCURVE",
"324 782 CURVE SMOOTH",
"474 886 LINE SMOOTH",
"484 893 OFFCURVE",
"493 900 OFFCURVE",
"503 900 CURVE SMOOTH",
"512.655 900 OFFCURVE",
"521.539 889.985 OFFCURVE",
"521.539 878.069 CURVE SMOOTH",
"521.539 876.409 OFFCURVE",
"521.367 874.712 OFFCURVE",
"521 873 CURVE SMOOTH",
"520 866 OFFCURVE",
"518 862 OFFCURVE",
"510 857 CURVE SMOOTH"
);
}
);
userData = {
com.fontlab.hintData = {
hhints = (
{
position = 661;
width = 20;
}
);
};
};
width = 467;
}
);
unicode = 0139;
},
{
glyphname = Lcaron;
layers = (
{
layerId = master01;
paths = (
{
closed = 1;
nodes = (
"297 743 OFFCURVE",
"292 745 OFFCURVE",
"289 749 CURVE SMOOTH",
"201 862 LINE SMOOTH",
"198 866 OFFCURVE",
"196 869 OFFCURVE",
"197 874 CURVE SMOOTH",
"199 883 OFFCURVE",
"209 892 OFFCURVE",
"218 892 CURVE SMOOTH",
"223 892 OFFCURVE",
"227 890 OFFCURVE",
"230 887 CURVE SMOOTH",
"315 792 LINE",
"459 888 LINE SMOOTH",
"463 890 OFFCURVE",
"467 892 OFFCURVE",
"471 892 CURVE SMOOTH",
"481 892 OFFCURVE",
"487 883 OFFCURVE",
"485 874 CURVE SMOOTH",
"484 869 OFFCURVE",
"480 864 OFFCURVE",
"476 861 CURVE SMOOTH",
"316 748 LINE SMOOTH",
"312 745 OFFCURVE",
"306 743 OFFCURVE",
"302 743 CURVE SMOOTH"
);
},
{
closed = 1;
nodes = (
"87 0 LINE SMOOTH",
"76 -1 OFFCURVE",
"69 7 OFFCURVE",
"72 19 CURVE SMOOTH",
"208 662 LINE",
"211 673 OFFCURVE",
"220 681 OFFCURVE",
"231 681 CURVE SMOOTH",
"241 681 OFFCURVE",
"248 673 OFFCURVE",
"245 662 CURVE",
"113 38 LINE",
"454 62 LINE SMOOTH",
"465 63 OFFCURVE",
"472 54 OFFCURVE",
"470 43 CURVE SMOOTH",
"468 34 OFFCURVE",
"459 26 OFFCURVE",
"448 25 CURVE SMOOTH"
);
}
);
userData = {
com.fontlab.hintData = {
hhints = (
{
position = 661;
width = 20;
}
);
};
};
width = 467;
}
);
unicode = 013D;
},
{
glyphname = Lslash;
layers = (
{
layerId = master01;
paths = (
{
closed = 1;
nodes = (
"197 358 LINE",
"261 662 LINE",
"264 673 OFFCURVE",
"273 681 OFFCURVE",
"283 681 CURVE SMOOTH",
"294 681 OFFCURVE",
"301 673 OFFCURVE",
"298 662 CURVE",
"238 379 LINE",
"321 427 LINE SMOOTH",
"325 429 OFFCURVE",
"329 430 OFFCURVE",
"332 430 CURVE SMOOTH",
"343 430 OFFCURVE",
"350 421 OFFCURVE",
"348 410 CURVE SMOOTH",
"346 404 OFFCURVE",
"342 398 OFFCURVE",
"336 395 CURVE SMOOTH",
"229 335 LINE",
"166 38 LINE",
"507 62 LINE SMOOTH",
"515 63 OFFCURVE",
"523 55 OFFCURVE",
"522 44 CURVE",
"519 34 OFFCURVE",
"511 26 OFFCURVE",
"501 25 CURVE SMOOTH",
"138 0 LINE SMOOTH",
"129 -1 OFFCURVE",
"122 9 OFFCURVE",
"125 19 CURVE",
"187 313 LINE",
"105 266 LINE SMOOTH",
"102 264 OFFCURVE",
"95 263 OFFCURVE",
"92 263 CURVE SMOOTH",
"84 263 OFFCURVE",
"76 269 OFFCURVE",
"78 280 CURVE SMOOTH",
"80 287 OFFCURVE",
"83 294 OFFCURVE",
"90 298 CURVE SMOOTH"
);
}
);
userData = {
com.fontlab.hintData = {
hhints = (
{
position = 661;
width = 20;
}
);
};
};
width = 518;
}
);
unicode = 0141;
},
{
glyphname = M;
layers = (
{
layerId = master01;
paths = (
{
closed = 1;
nodes = (
"431 76 LINE",
"771 670 LINE SMOOTH",
"776 678 OFFCURVE",
"782 681 OFFCURVE",
"791 681 CURVE SMOOTH",
"800 681 OFFCURVE",
"805 676 OFFCURVE",
"805 670 CURVE SMOOTH",
"813 41 LINE",
"814 29 OFFCURVE",
"813 21 OFFCURVE",
"811 14 CURVE SMOOTH",
"810 8 OFFCURVE",
"804 0 OFFCURVE",
"791 0 CURVE SMOOTH",
"782 0 OFFCURVE",
"775 4 OFFCURVE",
"775 14 CURVE SMOOTH",
"770 596 LINE",
"435 11 LINE SMOOTH",
"430 3 OFFCURVE",
"424 0 OFFCURVE",
"415 0 CURVE SMOOTH",
"408 0 OFFCURVE",
"401 3 OFFCURVE",
"400 12 CURVE SMOOTH",
"340 595 LINE",
"88 14 LINE",
"85 5 OFFCURVE",
"76 0 OFFCURVE",
"68 0 CURVE SMOOTH",
"57 0 OFFCURVE",
"51 7 OFFCURVE",
"53 15 CURVE SMOOTH",
"54 20 OFFCURVE",
"58 30 OFFCURVE",
"62 38 CURVE SMOOTH",
"334 667 LINE SMOOTH",
"338 676 OFFCURVE",
"346 681 OFFCURVE",
"355 681 CURVE SMOOTH",
"363 681 OFFCURVE",
"369 676 OFFCURVE",
"370 669 CURVE SMOOTH"
);
}
);
userData = {
com.fontlab.hintData = {
hhints = (
{
position = 0;
width = 21;
},
{
position = 661;
width = 20;
}
);
vhints = (
{
position = 53;
width = 35;
},
{
position = 770;
width = 35;
},
{
position = 775;
width = 36;
}
);
};
};
width = 847;
}
);
unicode = 004D;
},
{
glyphname = N;
layers = (
{
layerId = master01;
paths = (
{
closed = 1;
nodes = (
"234 603 LINE",
"109 19 LINE",
"106 8 OFFCURVE",
"96 0 OFFCURVE",
"86 0 CURVE SMOOTH",
"76 0 OFFCURVE",
"69 8 OFFCURVE",
"72 19 CURVE",
"209 662 LINE",
"212 673 OFFCURVE",
"220 681 OFFCURVE",
"230 681 CURVE SMOOTH",
"238 681 OFFCURVE",
"244 678 OFFCURVE",
"247 670 CURVE",
"530 77 LINE",
"655 664 LINE SMOOTH",
"657 674 OFFCURVE",
"666 682 OFFCURVE",
"676 682 CURVE SMOOTH",
"687 682 OFFCURVE",
"694 674 OFFCURVE",
"692 664 CURVE SMOOTH",
"555 19 LINE",
"552 8 OFFCURVE",
"543 0 OFFCURVE",
"532 0 CURVE SMOOTH",
"525 0 OFFCURVE",
"520 2 OFFCURVE",
"518 7 CURVE SMOOTH"
);
}
);
userData = {
com.fontlab.hintData = {
hhints = (
{
position = 0;
width = 21;
},
{
position = 661;
width = 20;
}
);
};
};
width = 609;
}
);
unicode = 004E;
},
{
glyphname = Nacute;
layers = (
{
layerId = master01;
paths = (
{
closed = 1;
nodes = (
"234 603 LINE",
"109 19 LINE",
"106 8 OFFCURVE",
"96 0 OFFCURVE",
"86 0 CURVE SMOOTH",
"76 0 OFFCURVE",
"69 8 OFFCURVE",
"72 19 CURVE",
"209 662 LINE",
"212 673 OFFCURVE",
"220 681 OFFCURVE",
"230 681 CURVE SMOOTH",
"238 681 OFFCURVE",
"244 678 OFFCURVE",
"247 670 CURVE",
"530 77 LINE",
"655 664 LINE SMOOTH",
"657 674 OFFCURVE",
"666 682 OFFCURVE",
"676 682 CURVE SMOOTH",
"687 682 OFFCURVE",
"694 674 OFFCURVE",
"692 664 CURVE SMOOTH",
"555 19 LINE",
"552 8 OFFCURVE",
"543 0 OFFCURVE",
"532 0 CURVE SMOOTH",
"525 0 OFFCURVE",
"520 2 OFFCURVE",
"518 7 CURVE SMOOTH"
);
},
{
closed = 1;
nodes = (
"433 759 LINE SMOOTH",
"425 754 OFFCURVE",
"419 752 OFFCURVE",
"415 752 CURVE SMOOTH",
"406 752 OFFCURVE",
"400 760 OFFCURVE",
"402 769 CURVE SMOOTH",
"403 772 OFFCURVE",
"404 777 OFFCURVE",
"411 782 CURVE SMOOTH",
"561 886 LINE SMOOTH",
"571 893 OFFCURVE",
"580 900 OFFCURVE",
"590 900 CURVE SMOOTH",
"599.655 900 OFFCURVE",
"608.539 889.985 OFFCURVE",
"608.539 878.069 CURVE SMOOTH",
"608.539 876.409 OFFCURVE",
"608.367 874.712 OFFCURVE",
"608 873 CURVE SMOOTH",
"607 866 OFFCURVE",
"605 862 OFFCURVE",
"597 857 CURVE SMOOTH"
);
}
);
userData = {
com.fontlab.hintData = {
hhints = (
{
position = 0;
width = 21;
},
{
position = 661;
width = 20;
}
);
};
};
width = 609;
}
);
unicode = 0143;
},
{
glyphname = Ncaron;
layers = (
{
layerId = master01;
paths = (
{
closed = 1;
nodes = (
"525 0 OFFCURVE",
"520 2 OFFCURVE",
"518 7 CURVE SMOOTH",
"234 603 LINE",
"109 19 LINE",
"106 8 OFFCURVE",
"96 0 OFFCURVE",
"86 0 CURVE SMOOTH",
"76 0 OFFCURVE",
"69 8 OFFCURVE",
"72 19 CURVE",
"209 662 LINE SMOOTH",
"211 672 OFFCURVE",
"220 681 OFFCURVE",
"230 681 CURVE SMOOTH",
"235 681 OFFCURVE",
"241 676 OFFCURVE",
"246 673 CURVE",
"530 77 LINE",
"655 664 LINE SMOOTH",
"657 674 OFFCURVE",
"666 682 OFFCURVE",
"676 682 CURVE SMOOTH",
"687 682 OFFCURVE",
"694 674 OFFCURVE",
"692 664 CURVE SMOOTH",
"555 19 LINE",
"552 8 OFFCURVE",
"543 0 OFFCURVE",
"532 0 CURVE SMOOTH"
);
},
{
closed = 1;
nodes = (
"460 743 OFFCURVE",
"455 745 OFFCURVE",
"452 749 CURVE SMOOTH",
"364 862 LINE SMOOTH",
"361 866 OFFCURVE",
"359 869 OFFCURVE",
"360 874 CURVE SMOOTH",
"362 883 OFFCURVE",
"372 892 OFFCURVE",
"381 892 CURVE SMOOTH",
"386 892 OFFCURVE",
"390 890 OFFCURVE",
"393 887 CURVE SMOOTH",
"478 792 LINE",
"622 888 LINE SMOOTH",
"626 890 OFFCURVE",
"630 892 OFFCURVE",
"634 892 CURVE SMOOTH",
"644 892 OFFCURVE",
"650 883 OFFCURVE",
"648 874 CURVE SMOOTH",
"647 869 OFFCURVE",
"643 864 OFFCURVE",
"639 861 CURVE SMOOTH",
"479 748 LINE SMOOTH",
"475 745 OFFCURVE",
"469 743 OFFCURVE",
"465 743 CURVE SMOOTH"
);
}
);
userData = {
com.fontlab.hintData = {
hhints = (
{
position = 0;
width = 21;
},
{
position = 661;
width = 20;
}
);
};
};
width = 609;
}
);
unicode = 0147;
},
{
glyphname = Ntilde;
layers = (
{
layerId = master01;
paths = (
{
closed = 1;
nodes = (
"234 603 LINE",
"109 19 LINE",
"106 8 OFFCURVE",
"96 0 OFFCURVE",
"86 0 CURVE SMOOTH",
"76 0 OFFCURVE",
"69 8 OFFCURVE",
"72 19 CURVE",
"209 662 LINE",
"212 673 OFFCURVE",
"220 681 OFFCURVE",
"230 681 CURVE SMOOTH",
"238 681 OFFCURVE",
"244 678 OFFCURVE",
"247 670 CURVE",
"530 77 LINE",
"655 664 LINE SMOOTH",
"657 674 OFFCURVE",
"666 682 OFFCURVE",
"676 682 CURVE SMOOTH",
"687 682 OFFCURVE",
"694 674 OFFCURVE",
"692 664 CURVE SMOOTH",
"555 19 LINE",
"552 8 OFFCURVE",
"543 0 OFFCURVE",
"532 0 CURVE SMOOTH",
"525 0 OFFCURVE",
"520 2 OFFCURVE",
"518 7 CURVE SMOOTH"
);
},
{
closed = 1;
nodes = (
"644 850 OFFCURVE",
"650 855 OFFCURVE",
"659 855 CURVE SMOOTH",
"668 855 OFFCURVE",
"672 849 OFFCURVE",
"670 841 CURVE SMOOTH",
"662 803 OFFCURVE",
"599 735 OFFCURVE",
"545 735 CURVE SMOOTH",
"504 735 OFFCURVE",
"489 766 OFFCURVE",
"476 792 CURVE SMOOTH",
"458 829 OFFCURVE",
"449 842 OFFCURVE",
"429 842 CURVE SMOOTH",
"413 842 OFFCURVE",
"371 829 OFFCURVE",
"341 771 CURVE SMOOTH",
"336 762 OFFCURVE",
"331 758 OFFCURVE",
"324 758 CURVE SMOOTH",
"314 758 OFFCURVE",
"312 766 OFFCURVE",
"314 774 CURVE SMOOTH",
"323 816 OFFCURVE",
"388 869 OFFCURVE",
"435 869 CURVE SMOOTH",
"476 869 OFFCURVE",
"491 839 OFFCURVE",
"504 811 CURVE SMOOTH",
"516 786 OFFCURVE",
"531 761 OFFCURVE",
"552 761 CURVE SMOOTH",
"590 761 OFFCURVE",
"622 812 OFFCURVE",
"641 844 CURVE SMOOTH"
);
}
);
userData = {
com.fontlab.hintData = {
hhints = (
{
position = 0;
width = 21;
},
{
position = 661;
width = 20;
},
{
position = 735;
width = 26;
},
{
position = 842;
width = 27;
}
);
vhints = (
{
position = 314;
width = 27;
},
{
position = 641;
width = 29;
}
);
};
};
width = 609;
}
);
unicode = 00D1;
},
{
glyphname = O;
layers = (
{
layerId = master01;
paths = (
{
closed = 1;
nodes = (
"188.556 -2 OFFCURVE",
"118.821 96.791 OFFCURVE",
"118.821 227.321 CURVE SMOOTH",
"118.821 254.383 OFFCURVE",
"121.818 282.808 OFFCURVE",
"128 312 CURVE SMOOTH",
"171 513 OFFCURVE",
"340 682 OFFCURVE",
"496 682 CURVE SMOOTH",
"613.989 682 OFFCURVE",
"685.03 583.963 OFFCURVE",
"685.03 452.138 CURVE SMOOTH",
"685.03 425.311 OFFCURVE",
"682.087 397.084 OFFCURVE",
"676 368 CURVE SMOOTH",
"633 167 OFFCURVE",
"463 -2 OFFCURVE",
"307 -2 CURVE SMOOTH"
);
},
{
closed = 1;
nodes = (
"350 649 OFFCURVE",
"202 500 OFFCURVE",
"162 312 CURVE SMOOTH",
"156.078 284.545 OFFCURVE",
"153.216 257.894 OFFCURVE",
"153.216 232.644 CURVE SMOOTH",
"153.216 117.183 OFFCURVE",
"213.072 31 OFFCURVE",
"314 31 CURVE SMOOTH",
"446 31 OFFCURVE",
"602 183 OFFCURVE",
"641 364 CURVE SMOOTH",
"646.053 388.252 OFFCURVE",
"648.524 412.42 OFFCURVE",
"648.524 435.843 CURVE SMOOTH",
"648.524 551.495 OFFCURVE",
"588.274 649 OFFCURVE",
"481 649 CURVE SMOOTH"
);
}
);
userData = {
com.fontlab.hintData = {
hhints = (
{
position = -2;
width = 33;
},
{
position = 649;
width = 33;
}
);
vhints = (
{
position = 119;
width = 34;
},
{
position = 649;
width = 37;
}
);
};
};
width = 650;
}
);
unicode = 004F;
},
{
glyphname = Oacute;
layers = (
{
layerId = master01;
paths = (
{
closed = 1;
nodes = (
"188.556 -2 OFFCURVE",
"118.821 96.791 OFFCURVE",
"118.821 227.321 CURVE SMOOTH",
"118.821 254.383 OFFCURVE",
"121.818 282.808 OFFCURVE",
"128 312 CURVE SMOOTH",
"171 513 OFFCURVE",
"340 682 OFFCURVE",
"496 682 CURVE SMOOTH",
"613.989 682 OFFCURVE",
"685.03 583.963 OFFCURVE",
"685.03 452.138 CURVE SMOOTH",
"685.03 425.311 OFFCURVE",
"682.087 397.084 OFFCURVE",
"676 368 CURVE SMOOTH",
"633 167 OFFCURVE",
"463 -2 OFFCURVE",
"307 -2 CURVE SMOOTH"
);
},
{
closed = 1;
nodes = (
"350 649 OFFCURVE",
"202 500 OFFCURVE",
"162 312 CURVE SMOOTH",
"156.078 284.545 OFFCURVE",
"153.216 257.894 OFFCURVE",
"153.216 232.644 CURVE SMOOTH",
"153.216 117.183 OFFCURVE",
"213.072 31 OFFCURVE",
"314 31 CURVE SMOOTH",
"446 31 OFFCURVE",
"602 183 OFFCURVE",
"641 364 CURVE SMOOTH",
"646.053 388.252 OFFCURVE",
"648.524 412.42 OFFCURVE",
"648.524 435.843 CURVE SMOOTH",
"648.524 551.495 OFFCURVE",
"588.274 649 OFFCURVE",
"481 649 CURVE SMOOTH"
);
},
{
closed = 1;
nodes = (
"469 759 LINE SMOOTH",
"461 754 OFFCURVE",
"455 752 OFFCURVE",
"451 752 CURVE SMOOTH",
"442 752 OFFCURVE",
"436 760 OFFCURVE",
"438 769 CURVE SMOOTH",
"439 772 OFFCURVE",
"440 777 OFFCURVE",
"447 782 CURVE SMOOTH",
"597 886 LINE SMOOTH",
"607 893 OFFCURVE",
"616 900 OFFCURVE",
"626 900 CURVE SMOOTH",
"635.655 900 OFFCURVE",
"644.539 889.985 OFFCURVE",
"644.539 878.069 CURVE SMOOTH",
"644.539 876.409 OFFCURVE",
"644.367 874.712 OFFCURVE",
"644 873 CURVE SMOOTH",
"643 866 OFFCURVE",
"641 862 OFFCURVE",
"633 857 CURVE SMOOTH"
);
}
);
userData = {
com.fontlab.hintData = {
hhints = (
{
position = -2;
width = 33;
},
{
position = 649;
width = 33;
}
);
vhints = (
{
position = 119;
width = 34;
},
{
position = 649;
width = 37;
}
);
};
};
width = 650;
}
);
unicode = 00D3;
},
{
glyphname = Ocircumflex;
layers = (
{
layerId = master01;
paths = (
{
closed = 1;
nodes = (
"188.556 -2 OFFCURVE",
"118.821 96.791 OFFCURVE",
"118.821 227.321 CURVE SMOOTH",
"118.821 254.383 OFFCURVE",
"121.818 282.808 OFFCURVE",
"128 312 CURVE SMOOTH",
"171 513 OFFCURVE",
"340 682 OFFCURVE",
"496 682 CURVE SMOOTH",
"613.989 682 OFFCURVE",
"685.03 583.963 OFFCURVE",
"685.03 452.138 CURVE SMOOTH",
"685.03 425.311 OFFCURVE",
"682.087 397.084 OFFCURVE",
"676 368 CURVE SMOOTH",
"633 167 OFFCURVE",
"463 -2 OFFCURVE",
"307 -2 CURVE SMOOTH"
);
},
{
closed = 1;
nodes = (
"350 649 OFFCURVE",
"202 500 OFFCURVE",
"162 312 CURVE SMOOTH",
"156.078 284.545 OFFCURVE",
"153.216 257.894 OFFCURVE",
"153.216 232.644 CURVE SMOOTH",
"153.216 117.183 OFFCURVE",
"213.072 31 OFFCURVE",
"314 31 CURVE SMOOTH",
"446 31 OFFCURVE",
"602 183 OFFCURVE",
"641 364 CURVE SMOOTH",
"646.053 388.252 OFFCURVE",
"648.524 412.42 OFFCURVE",
"648.524 435.843 CURVE SMOOTH",
"648.524 551.495 OFFCURVE",
"588.274 649 OFFCURVE",
"481 649 CURVE SMOOTH"
);
},
{
closed = 1;
nodes = (
"566 902 OFFCURVE",
"572 900 OFFCURVE",
"575 896 CURVE SMOOTH",
"663 783 LINE SMOOTH",
"666 779 OFFCURVE",
"667 776 OFFCURVE",
"666 771 CURVE SMOOTH",
"664 762 OFFCURVE",
"655 753 OFFCURVE",
"646 753 CURVE SMOOTH",
"641 753 OFFCURVE",
"637 755 OFFCURVE",
"634 758 CURVE SMOOTH",
"549 853 LINE",
"404 757 LINE SMOOTH",
"401 755 OFFCURVE",
"397 753 OFFCURVE",
"393 753 CURVE SMOOTH",
"383 753 OFFCURVE",
"376 762 OFFCURVE",
"378 771 CURVE SMOOTH",
"379 776 OFFCURVE",
"384 781 OFFCURVE",
"388 784 CURVE SMOOTH",
"547 897 LINE SMOOTH",
"552 900 OFFCURVE",
"557 902 OFFCURVE",
"561 902 CURVE SMOOTH"
);
}
);
userData = {
com.fontlab.hintData = {
hhints = (
{
position = -2;
width = 33;
},
{
position = 649;
width = 33;
}
);
vhints = (
{
position = 119;
width = 34;
},
{
position = 649;
width = 37;
}
);
};
};
width = 650;
}
);
unicode = 00D4;
},
{
glyphname = Odieresis;
layers = (
{
layerId = master01;
paths = (
{
closed = 1;
nodes = (
"188.556 -2 OFFCURVE",
"118.821 96.791 OFFCURVE",
"118.821 227.321 CURVE SMOOTH",
"118.821 254.383 OFFCURVE",
"121.818 282.808 OFFCURVE",
"128 312 CURVE SMOOTH",
"171 513 OFFCURVE",
"340 682 OFFCURVE",
"496 682 CURVE SMOOTH",
"613.989 682 OFFCURVE",
"685.03 583.963 OFFCURVE",
"685.03 452.138 CURVE SMOOTH",
"685.03 425.311 OFFCURVE",
"682.087 397.084 OFFCURVE",
"676 368 CURVE SMOOTH",
"633 167 OFFCURVE",
"463 -2 OFFCURVE",
"307 -2 CURVE SMOOTH"
);
},
{
closed = 1;
nodes = (
"350 649 OFFCURVE",
"202 500 OFFCURVE",
"162 312 CURVE SMOOTH",
"156.078 284.545 OFFCURVE",
"153.216 257.894 OFFCURVE",
"153.216 232.644 CURVE SMOOTH",
"153.216 117.183 OFFCURVE",
"213.072 31 OFFCURVE",
"314 31 CURVE SMOOTH",
"446 31 OFFCURVE",
"602 183 OFFCURVE",
"641 364 CURVE SMOOTH",
"646.053 388.252 OFFCURVE",
"648.524 412.42 OFFCURVE",
"648.524 435.843 CURVE SMOOTH",
"648.524 551.495 OFFCURVE",
"588.274 649 OFFCURVE",
"481 649 CURVE SMOOTH"
);
},
{
closed = 1;
nodes = (
"484 771 OFFCURVE",
"462 755 OFFCURVE",
"438 755 CURVE SMOOTH",
"420.732 755 OFFCURVE",
"407.594 765.738 OFFCURVE",
"407.594 780.457 CURVE SMOOTH",
"407.594 803.122 OFFCURVE",
"434.91 820 OFFCURVE",
"459 820 CURVE SMOOTH",
"475.013 820 OFFCURVE",
"488.652 809.712 OFFCURVE",
"488.652 795.472 CURVE SMOOTH",
"488.652 793.705 OFFCURVE",
"488.442 791.877 OFFCURVE",
"488 790 CURVE SMOOTH"
);
},
{
closed = 1;
nodes = (
"648 771 OFFCURVE",
"626 755 OFFCURVE",
"602 755 CURVE SMOOTH",
"584.732 755 OFFCURVE",
"571.594 765.738 OFFCURVE",
"571.594 780.457 CURVE SMOOTH",
"571.594 803.066 OFFCURVE",
"598.925 820 OFFCURVE",
"622 820 CURVE SMOOTH",
"638.909 820 OFFCURVE",
"652.65 809.704 OFFCURVE",
"652.65 795.455 CURVE SMOOTH",
"652.65 793.693 OFFCURVE",
"652.44 791.871 OFFCURVE",
"652 790 CURVE SMOOTH"
);
}
);
userData = {
com.fontlab.hintData = {
hhints = (
{
position = -2;
width = 33;
},
{
position = 649;
width = 33;
},
{
position = 755;
width = 65;
}
);
vhints = (
{
position = 119;
width = 34;
},
{
position = 408;
width = 81;
},
{
position = 572;
width = 81;
},
{
position = 649;
width = 37;
}
);
};
};
width = 650;
}
);
unicode = 00D6;
},
{
glyphname = Ograve;
layers = (
{
layerId = master01;
paths = (
{
closed = 1;
nodes = (
"188.556 -2 OFFCURVE",
"118.821 96.791 OFFCURVE",
"118.821 227.321 CURVE SMOOTH",
"118.821 254.383 OFFCURVE",
"121.818 282.808 OFFCURVE",
"128 312 CURVE SMOOTH",
"171 513 OFFCURVE",
"340 682 OFFCURVE",
"496 682 CURVE SMOOTH",
"613.989 682 OFFCURVE",
"685.03 583.963 OFFCURVE",
"685.03 452.138 CURVE SMOOTH",
"685.03 425.311 OFFCURVE",
"682.087 397.084 OFFCURVE",
"676 368 CURVE SMOOTH",
"633 167 OFFCURVE",
"463 -2 OFFCURVE",
"307 -2 CURVE SMOOTH"
);
},
{
closed = 1;
nodes = (
"350 649 OFFCURVE",
"202 500 OFFCURVE",
"162 312 CURVE SMOOTH",
"156.078 284.545 OFFCURVE",
"153.216 257.894 OFFCURVE",
"153.216 232.644 CURVE SMOOTH",
"153.216 117.183 OFFCURVE",
"213.072 31 OFFCURVE",
"314 31 CURVE SMOOTH",
"446 31 OFFCURVE",
"602 183 OFFCURVE",
"641 364 CURVE SMOOTH",
"646.053 388.252 OFFCURVE",
"648.524 412.42 OFFCURVE",
"648.524 435.843 CURVE SMOOTH",
"648.524 551.495 OFFCURVE",
"588.274 649 OFFCURVE",
"481 649 CURVE SMOOTH"
);
},
{
closed = 1;
nodes = (
"586 765 LINE SMOOTH",
"589 760 OFFCURVE",
"590 756 OFFCURVE",
"589 752 CURVE SMOOTH",
"587 742 OFFCURVE",
"576 736 OFFCURVE",
"567 736 CURVE SMOOTH",
"563 736 OFFCURVE",
"558 738 OFFCURVE",
"555 742 CURVE SMOOTH",
"459 868 LINE SMOOTH",
"455 874 OFFCURVE",
"454 880 OFFCURVE",
"455 887 CURVE SMOOTH",
"458 901 OFFCURVE",
"473 912 OFFCURVE",
"487 912 CURVE SMOOTH",
"495 912 OFFCURVE",
"502 909 OFFCURVE",
"506 901 CURVE SMOOTH"
);
}
);
userData = {
com.fontlab.hintData = {
hhints = (
{
position = -2;
width = 33;
},
{
position = 649;
width = 33;
}
);
vhints = (
{
position = 119;
width = 34;
},
{
position = 649;
width = 37;
}
);
};
};
width = 650;
}
);
unicode = 00D2;
},
{
glyphname = Ohungarumlaut;
layers = (
{
layerId = master01;
paths = (
{
closed = 1;
nodes = (
"188.556 -2 OFFCURVE",
"118.821 96.791 OFFCURVE",
"118.821 227.321 CURVE SMOOTH",
"118.821 254.383 OFFCURVE",
"121.818 282.808 OFFCURVE",
"128 312 CURVE SMOOTH",
"171 513 OFFCURVE",
"340 682 OFFCURVE",
"496 682 CURVE SMOOTH",
"613.989 682 OFFCURVE",
"685.03 583.963 OFFCURVE",
"685.03 452.138 CURVE SMOOTH",
"685.03 425.311 OFFCURVE",
"682.087 397.084 OFFCURVE",
"676 368 CURVE SMOOTH",
"633 167 OFFCURVE",
"463 -2 OFFCURVE",
"307 -2 CURVE SMOOTH"
);
},
{
closed = 1;
nodes = (
"350 649 OFFCURVE",
"202 500 OFFCURVE",
"162 312 CURVE SMOOTH",
"156.078 284.545 OFFCURVE",
"153.216 257.894 OFFCURVE",
"153.216 232.644 CURVE SMOOTH",
"153.216 117.183 OFFCURVE",
"213.072 31 OFFCURVE",
"314 31 CURVE SMOOTH",
"446 31 OFFCURVE",
"602 183 OFFCURVE",
"641 364 CURVE SMOOTH",
"646.053 388.252 OFFCURVE",
"648.524 412.42 OFFCURVE",
"648.524 435.843 CURVE SMOOTH",
"648.524 551.495 OFFCURVE",
"588.274 649 OFFCURVE",
"481 649 CURVE SMOOTH"
);
},
{
closed = 1;
nodes = (
"443 748 LINE SMOOTH",
"437 744 OFFCURVE",
"430 741 OFFCURVE",
"426 741 CURVE SMOOTH",
"417 741 OFFCURVE",
"411 749 OFFCURVE",
"413 758 CURVE SMOOTH",
"413 761 OFFCURVE",
"414 766 OFFCURVE",
"424 773 CURVE SMOOTH",
"571 875 LINE SMOOTH",
"580 881 OFFCURVE",
"590 889 OFFCURVE",
"598 889 CURVE SMOOTH",
"609.427 889 OFFCURVE",
"618.536 878.956 OFFCURVE",
"618.536 867.018 CURVE SMOOTH",
"618.536 865.374 OFFCURVE",
"618.363 863.694 OFFCURVE",
"618 862 CURVE SMOOTH",
"616 856 OFFCURVE",
"615 851 OFFCURVE",
"607 846 CURVE SMOOTH"
);
},
{
closed = 1;
nodes = (
"609 748 LINE",
"604 744 OFFCURVE",
"597 741 OFFCURVE",
"593 741 CURVE SMOOTH",
"583 741 OFFCURVE",
"578 749 OFFCURVE",
"580 758 CURVE SMOOTH",
"580 761 OFFCURVE",
"581 766 OFFCURVE",
"590 772 CURVE SMOOTH",
"737 875 LINE",
"747 881 OFFCURVE",
"757 889 OFFCURVE",
"764 889 CURVE SMOOTH",
"776.181 889 OFFCURVE",
"784.577 879.159 OFFCURVE",
"784.577 867.38 CURVE SMOOTH",
"784.577 865.621 OFFCURVE",
"784.39 863.819 OFFCURVE",
"784 862 CURVE SMOOTH",
"782 856 OFFCURVE",
"780 849 OFFCURVE",
"768 842 CURVE SMOOTH"
);
}
);
userData = {
com.fontlab.hintData = {
hhints = (
{
position = -2;
width = 33;
},
{
position = 649;
width = 33;
}
);
vhints = (
{
position = 119;
width = 34;
},
{
position = 649;
width = 37;
}
);
};
};
width = 650;
}
);
unicode = 0150;
},
{
glyphname = Oslash;
layers = (
{
layerId = master01;
paths = (
{
closed = 1;
nodes = (
"157 78 LINE",
"132.443 119.611 OFFCURVE",
"119.053 171.924 OFFCURVE",
"119.053 229.225 CURVE SMOOTH",
"119.053 255.926 OFFCURVE",
"121.961 283.711 OFFCURVE",
"128 312 CURVE SMOOTH",
"171 513 OFFCURVE",
"340 682 OFFCURVE",
"496 682 CURVE SMOOTH",
"531 682 OFFCURVE",
"566 671 OFFCURVE",
"599 650 CURVE",
"664 737 LINE SMOOTH",
"668 742 OFFCURVE",
"674 745 OFFCURVE",
"681 745 CURVE SMOOTH",
"688 745 OFFCURVE",
"696 740 OFFCURVE",
"693 729 CURVE",
"693 726 OFFCURVE",
"691 722 OFFCURVE",
"690 720 CURVE SMOOTH",
"622 632 LINE",
"662.532 586.309 OFFCURVE",
"684.599 522.154 OFFCURVE",
"684.599 449.139 CURVE SMOOTH",
"684.599 423.076 OFFCURVE",
"681.787 395.884 OFFCURVE",
"676 368 CURVE SMOOTH",
"633 167 OFFCURVE",
"463 -2 OFFCURVE",
"307 -2 CURVE SMOOTH",
"257 -2 OFFCURVE",
"212 18 OFFCURVE",
"177 53 CURVE",
"117 -25 LINE SMOOTH",
"113 -30 OFFCURVE",
"108 -33 OFFCURVE",
"102 -33 CURVE SMOOTH",
"90 -33 OFFCURVE",
"86 -26 OFFCURVE",
"88 -16 CURVE SMOOTH",
"89 -13 OFFCURVE",
"91 -9 OFFCURVE",
"93 -6 CURVE SMOOTH"
);
},
{
closed = 1;
nodes = (
"446 31 OFFCURVE",
"602 183 OFFCURVE",
"641 364 CURVE SMOOTH",
"645.841 386.593 OFFCURVE",
"648.223 409.62 OFFCURVE",
"648.223 432.399 CURVE SMOOTH",
"648.223 494.315 OFFCURVE",
"630.628 554.407 OFFCURVE",
"597 599 CURVE",
"200 82 LINE",
"230 49 OFFCURVE",
"268 31 OFFCURVE",
"314 31 CURVE SMOOTH"
);
},
{
closed = 1;
nodes = (
"350 649 OFFCURVE",
"202 500 OFFCURVE",
"162 312 CURVE SMOOTH",
"156.846 287.261 OFFCURVE",
"154.289 262.641 OFFCURVE",
"154.289 238.544 CURVE SMOOTH",
"154.289 192.509 OFFCURVE",
"163.621 148.384 OFFCURVE",
"182 109 CURVE",
"574 619 LINE",
"545 639 OFFCURVE",
"514 649 OFFCURVE",
"481 649 CURVE SMOOTH"
);
}
);
userData = {
com.fontlab.hintData = {
hhints = (
{
position = -2;
width = 33;
},
{
position = 649;
width = 33;
}
);
vhints = (
{
position = 119;
width = 35;
},
{
position = 648;
width = 36;
}
);
};
};
width = 650;
}
);
unicode = 00D8;
},
{
glyphname = Otilde;
layers = (
{
layerId = master01;
paths = (
{
closed = 1;
nodes = (
"188.556 -2 OFFCURVE",
"118.821 96.791 OFFCURVE",
"118.821 227.321 CURVE SMOOTH",
"118.821 254.383 OFFCURVE",
"121.818 282.808 OFFCURVE",
"128 312 CURVE SMOOTH",
"171 513 OFFCURVE",
"340 682 OFFCURVE",
"496 682 CURVE SMOOTH",
"613.989 682 OFFCURVE",
"685.03 583.963 OFFCURVE",
"685.03 452.138 CURVE SMOOTH",
"685.03 425.311 OFFCURVE",
"682.087 397.084 OFFCURVE",
"676 368 CURVE SMOOTH",
"633 167 OFFCURVE",
"463 -2 OFFCURVE",
"307 -2 CURVE SMOOTH"
);
},
{
closed = 1;
nodes = (
"350 649 OFFCURVE",
"202 500 OFFCURVE",
"162 312 CURVE SMOOTH",
"156.078 284.545 OFFCURVE",
"153.216 257.894 OFFCURVE",
"153.216 232.644 CURVE SMOOTH",
"153.216 117.183 OFFCURVE",
"213.072 31 OFFCURVE",
"314 31 CURVE SMOOTH",
"446 31 OFFCURVE",
"602 183 OFFCURVE",
"641 364 CURVE SMOOTH",
"646.053 388.252 OFFCURVE",
"648.524 412.42 OFFCURVE",
"648.524 435.843 CURVE SMOOTH",
"648.524 551.495 OFFCURVE",
"588.274 649 OFFCURVE",
"481 649 CURVE SMOOTH"
);
},
{
closed = 1;
nodes = (
"692 850 OFFCURVE",
"698 855 OFFCURVE",
"707 855 CURVE SMOOTH",
"716 855 OFFCURVE",
"720 849 OFFCURVE",
"718 841 CURVE SMOOTH",
"710 803 OFFCURVE",
"647 735 OFFCURVE",
"593 735 CURVE SMOOTH",
"552 735 OFFCURVE",
"537 766 OFFCURVE",
"524 792 CURVE SMOOTH",
"506 829 OFFCURVE",
"497 842 OFFCURVE",
"477 842 CURVE SMOOTH",
"461 842 OFFCURVE",
"419 829 OFFCURVE",
"389 771 CURVE SMOOTH",
"384 762 OFFCURVE",
"379 758 OFFCURVE",
"372 758 CURVE SMOOTH",
"362 758 OFFCURVE",
"360 766 OFFCURVE",
"362 774 CURVE SMOOTH",
"371 816 OFFCURVE",
"436 869 OFFCURVE",
"483 869 CURVE SMOOTH",
"524 869 OFFCURVE",
"539 839 OFFCURVE",
"552 811 CURVE SMOOTH",
"564 786 OFFCURVE",
"579 761 OFFCURVE",
"600 761 CURVE SMOOTH",
"638 761 OFFCURVE",
"670 812 OFFCURVE",
"689 844 CURVE SMOOTH"
);
}
);
userData = {
com.fontlab.hintData = {
hhints = (
{
position = -2;
width = 33;
},
{
position = 649;
width = 33;
},
{
position = 735;
width = 26;
},
{
position = 842;
width = 27;
}
);
vhints = (
{
position = 119;
width = 34;
},
{
position = 362;
width = 27;
},
{
position = 649;
width = 37;
},
{
position = 689;
width = 29;
}
);
};
};
width = 650;
}
);
unicode = 00D5;
},
{
glyphname = OE;
layers = (
{
layerId = master01;
paths = (
{
closed = 1;
nodes = (
"610 209 LINE",
"541 89 OFFCURVE",
"404 0 OFFCURVE",
"305 0 CURVE SMOOTH",
"186.357 0 OFFCURVE",
"115.899 99.123 OFFCURVE",
"115.899 229.979 CURVE SMOOTH",
"115.899 256.843 OFFCURVE",
"118.868 285.044 OFFCURVE",
"125 314 CURVE SMOOTH",
"168 515 OFFCURVE",
"338 684 OFFCURVE",
"493 684 CURVE SMOOTH",
"571 684 OFFCURVE",
"660 608 OFFCURVE",
"672 496 CURVE",
"708 664 LINE SMOOTH",
"710 674 OFFCURVE",
"720 682 OFFCURVE",
"730 682 CURVE SMOOTH",
"1171 682 LINE SMOOTH",
"1182 682 OFFCURVE",
"1189 674 OFFCURVE",
"1187 664 CURVE SMOOTH",
"1184 653 OFFCURVE",
"1174 644 OFFCURVE",
"1163 644 CURVE SMOOTH",
"741 644 LINE",
"684 372 LINE",
"1056 372 LINE SMOOTH",
"1066 372 OFFCURVE",
"1072 364 OFFCURVE",
"1070 353 CURVE",
"1067 343 OFFCURVE",
"1057 334 OFFCURVE",
"1047 334 CURVE SMOOTH",
"675 334 LINE",
"613 38 LINE",
"1033 38 LINE SMOOTH",
"1044 38 OFFCURVE",
"1050 30 OFFCURVE",
"1048 20 CURVE SMOOTH",
"1045 9 OFFCURVE",
"1036 0 OFFCURVE",
"1025 0 CURVE SMOOTH",
"586 0 LINE SMOOTH",
"576 0 OFFCURVE",
"568 9 OFFCURVE",
"571 20 CURVE"
);
},
{
closed = 1;
nodes = (
"474 33 OFFCURVE",
"608 225 OFFCURVE",
"638 366 CURVE SMOOTH",
"643.343 390.819 OFFCURVE",
"645.953 415.549 OFFCURVE",
"645.953 439.483 CURVE SMOOTH",
"645.953 554.415 OFFCURVE",
"585.766 651 OFFCURVE",
"479 651 CURVE SMOOTH",
"347 651 OFFCURVE",
"199 502 OFFCURVE",
"159 314 CURVE SMOOTH",
"153.333 286.903 OFFCURVE",
"150.582 260.591 OFFCURVE",
"150.582 235.635 CURVE SMOOTH",
"150.582 119.677 OFFCURVE",
"209.961 33 OFFCURVE",
"312 33 CURVE SMOOTH"
);
}
);
userData = {
com.fontlab.hintData = {
hhints = (
{
position = 0;
width = 33;
},
{
position = 334;
width = 38;
},
{
position = 644;
width = 38;
},
{
position = 651;
width = 33;
}
);
vhints = (
{
position = 116;
width = 35;
}
);
};
};
width = 1088;
}
);
unicode = 0152;
},
{
glyphname = P;
layers = (
{
layerId = master01;
paths = (
{
closed = 1;
nodes = (
"76 0 OFFCURVE",
"69 8 OFFCURVE",
"72 19 CURVE",
"206 650 LINE SMOOTH",
"211 674 OFFCURVE",
"214 682 OFFCURVE",
"283 682 CURVE SMOOTH",
"509.716 682 OFFCURVE",
"619.069 623.723 OFFCURVE",
"619.069 518.092 CURVE SMOOTH",
"619.069 506.312 OFFCURVE",
"617.709 493.943 OFFCURVE",
"615 481 CURVE SMOOTH",
"576 298 OFFCURVE",
"301 246 OFFCURVE",
"157 246 CURVE",
"109 19 LINE",
"106 8 OFFCURVE",
"97 0 OFFCURVE",
"86 0 CURVE SMOOTH"
);
},
{
closed = 1;
nodes = (
"165 283 LINE",
"259 283 OFFCURVE",
"542 312 OFFCURVE",
"578 481 CURVE SMOOTH",
"579.953 490.319 OFFCURVE",
"580.921 499.276 OFFCURVE",
"580.921 507.862 CURVE SMOOTH",
"580.921 596.008 OFFCURVE",
"478.894 645 OFFCURVE",
"293 645 CURVE SMOOTH",
"280 645 OFFCURVE",
"260 645 OFFCURVE",
"241 643 CURVE"
);
}
);
userData = {
com.fontlab.hintData = {
hhints = (
{
position = 0;
width = 21;
},
{
position = 246;
width = 37;
},
{
position = 645;
width = 37;
}
);
vhints = (
{
position = 581;
width = 38;
}
);
};
};
width = 537;
}
);
unicode = 0050;
},
{
glyphname = Thorn;
layers = (
{
layerId = master01;
paths = (
{
closed = 1;
nodes = (
"221 569 LINE",
"358.502 569 OFFCURVE",
"552.21 552.819 OFFCURVE",
"552.21 413.576 CURVE SMOOTH",
"552.21 401.932 OFFCURVE",
"550.855 389.428 OFFCURVE",
"548 376 CURVE SMOOTH",
"511 202 OFFCURVE",
"277 150 OFFCURVE",
"131 147 CURVE",
"103 15 LINE SMOOTH",
"101 7 OFFCURVE",
"93 0 OFFCURVE",
"84 0 CURVE SMOOTH",
"75 0 OFFCURVE",
"69 7 OFFCURVE",
"71 16 CURVE SMOOTH",
"211 665 LINE SMOOTH",
"213 673 OFFCURVE",
"221 680 OFFCURVE",
"230 680 CURVE SMOOTH",
"239 680 OFFCURVE",
"244 673 OFFCURVE",
"242 664 CURVE SMOOTH"
);
},
{
closed = 1;
nodes = (
"139 183 LINE",
"249 184 OFFCURVE",
"484 225 OFFCURVE",
"516 376 CURVE SMOOTH",
"518.112 385.598 OFFCURVE",
"519.154 394.818 OFFCURVE",
"519.154 403.645 CURVE SMOOTH",
"519.154 486.782 OFFCURVE",
"426.628 535 OFFCURVE",
"263 535 CURVE SMOOTH",
"248 535 OFFCURVE",
"235 535 OFFCURVE",
"214 533 CURVE"
);
}
);
userData = {
com.fontlab.hintData = {
hhints = (
{
position = 0;
width = 21;
},
{
position = 147;
width = 36;
},
{
position = 533;
width = 36;
}
);
vhints = (
{
position = 519;
width = 33;
}
);
};
};
width = 537;
}
);
unicode = 00DE;
},
{
glyphname = Q;
layers = (
{
layerId = master01;
paths = (
{
closed = 1;
nodes = (
"656 9 LINE SMOOTH",
"662 5 OFFCURVE",
"662 -1 OFFCURVE",
"661 -7 CURVE SMOOTH",
"658 -19 OFFCURVE",
"647 -25 OFFCURVE",
"638 -25 CURVE SMOOTH",
"635 -25 OFFCURVE",
"632 -25 OFFCURVE",
"628 -22 CURVE SMOOTH",
"522 60 LINE",
"459 21 OFFCURVE",
"392 -2 OFFCURVE",
"332 -2 CURVE SMOOTH",
"193.382 -2 OFFCURVE",
"109.005 101.419 OFFCURVE",
"109.005 236.299 CURVE SMOOTH",
"109.005 260.023 OFFCURVE",
"111.615 284.721 OFFCURVE",
"117 310 CURVE SMOOTH",
"160 512 OFFCURVE",
"349 680 OFFCURVE",
"525 680 CURVE SMOOTH",
"662.752 680 OFFCURVE",
"746.999 576.604 OFFCURVE",
"746.999 441.132 CURVE SMOOTH",
"746.999 417.286 OFFCURVE",
"744.388 392.445 OFFCURVE",
"739 367 CURVE SMOOTH",
"716 261 OFFCURVE",
"647 158 OFFCURVE",
"557 83 CURVE"
);
},
{
closed = 1;
nodes = (
"385 33 OFFCURVE",
"437 50 OFFCURVE",
"494 81 CURVE",
"413 143 LINE SMOOTH",
"409 146 OFFCURVE",
"407 152 OFFCURVE",
"408 159 CURVE SMOOTH",
"410 169 OFFCURVE",
"420 177 OFFCURVE",
"429 177 CURVE SMOOTH",
"433 177 OFFCURVE",
"438 176 OFFCURVE",
"440 174 CURVE SMOOTH",
"530 105 LINE",
"608 169 OFFCURVE",
"675 264 OFFCURVE",
"696 364 CURVE SMOOTH",
"700.476 385.335 OFFCURVE",
"702.659 406.559 OFFCURVE",
"702.659 427.23 CURVE SMOOTH",
"702.659 545.107 OFFCURVE",
"631.665 645 OFFCURVE",
"510 645 CURVE SMOOTH",
"364 645 OFFCURVE",
"199 498 OFFCURVE",
"160 314 CURVE SMOOTH",
"154.747 289.009 OFFCURVE",
"152.205 264.854 OFFCURVE",
"152.205 241.902 CURVE SMOOTH",
"152.205 120.666 OFFCURVE",
"223.126 33 OFFCURVE",
"340 33 CURVE SMOOTH"
);
}
);
userData = {
com.fontlab.hintData = {
hhints = (
{
position = -2;
width = 35;
},
{
position = 645;
width = 35;
}
);
vhints = (
{
position = 109;
width = 43;
},
{
position = 703;
width = 44;
}
);
};
};
width = 704;
}
);
unicode = 0051;
},
{
glyphname = R;
layers = (
{
layerId = master01;
paths = (
{
closed = 1;
nodes = (
"547 24 OFFCURVE",
"547 22 OFFCURVE",
"547 19 CURVE",
"544 9 OFFCURVE",
"537 0 OFFCURVE",
"524 0 CURVE SMOOTH",
"517 0 OFFCURVE",
"513 5 OFFCURVE",
"510 11 CURVE",
"423 241 OFFCURVE",
"313 258 OFFCURVE",
"268 258 CURVE SMOOTH",
"247 258 OFFCURVE",
"197 253 OFFCURVE",
"157 247 CURVE",
"109 19 LINE",
"106 8 OFFCURVE",
"96 0 OFFCURVE",
"86 0 CURVE SMOOTH",
"76 0 OFFCURVE",
"69 8 OFFCURVE",
"72 19 CURVE",
"207 657 LINE SMOOTH",
"213.588 687.118 OFFCURVE",
"226.377 688.003 OFFCURVE",
"297.89 688.003 CURVE SMOOTH",
"302.36 688.003 OFFCURVE",
"307.059 688 OFFCURVE",
"312 688 CURVE SMOOTH",
"513.978 688 OFFCURVE",
"623.285 627.563 OFFCURVE",
"623.285 520.433 CURVE SMOOTH",
"623.285 508.222 OFFCURVE",
"621.865 495.404 OFFCURVE",
"619 482 CURVE SMOOTH",
"596 373 OFFCURVE",
"479 311 OFFCURVE",
"367 276 CURVE",
"411 246 OFFCURVE",
"507 161 OFFCURVE",
"546 27 CURVE SMOOTH"
);
},
{
closed = 1;
nodes = (
"165 285 LINE",
"322 288 OFFCURVE",
"552 342 OFFCURVE",
"582 482 CURVE SMOOTH",
"584.244 492.474 OFFCURVE",
"585.352 502.467 OFFCURVE",
"585.352 511.978 CURVE SMOOTH",
"585.352 604.163 OFFCURVE",
"481.296 651 OFFCURVE",
"300 651 CURVE SMOOTH",
"290 651 OFFCURVE",
"258 650 OFFCURVE",
"242 649 CURVE"
);
}
);
userData = {
com.fontlab.hintData = {
hhints = (
{
position = 0;
width = 21;
},
{
position = 258;
width = 27;
},
{
position = 651;
width = 37;
}
);
vhints = (
{
position = 510;
width = 37;
},
{
position = 585;
width = 38;
}
);
};
};
width = 587;
}
);
unicode = 0052;
},
{
glyphname = Racute;
layers = (
{
layerId = master01;
paths = (
{
closed = 1;
nodes = (
"547 24 OFFCURVE",
"547 22 OFFCURVE",
"547 19 CURVE",
"544 9 OFFCURVE",
"537 0 OFFCURVE",
"524 0 CURVE SMOOTH",
"517 0 OFFCURVE",
"513 5 OFFCURVE",
"510 11 CURVE",
"423 241 OFFCURVE",
"313 258 OFFCURVE",
"268 258 CURVE SMOOTH",
"247 258 OFFCURVE",
"197 253 OFFCURVE",
"157 247 CURVE",
"109 19 LINE",
"106 8 OFFCURVE",
"96 0 OFFCURVE",
"86 0 CURVE SMOOTH",
"76 0 OFFCURVE",
"69 8 OFFCURVE",
"72 19 CURVE",
"207 657 LINE SMOOTH",
"213.588 687.118 OFFCURVE",
"226.377 688.003 OFFCURVE",
"297.89 688.003 CURVE SMOOTH",
"302.36 688.003 OFFCURVE",
"307.059 688 OFFCURVE",
"312 688 CURVE SMOOTH",
"513.978 688 OFFCURVE",
"623.285 627.563 OFFCURVE",
"623.285 520.433 CURVE SMOOTH",
"623.285 508.222 OFFCURVE",
"621.865 495.404 OFFCURVE",
"619 482 CURVE SMOOTH",
"596 373 OFFCURVE",
"479 311 OFFCURVE",
"367 276 CURVE",
"411 246 OFFCURVE",
"507 161 OFFCURVE",
"546 27 CURVE SMOOTH"
);
},
{
closed = 1;
nodes = (
"165 285 LINE",
"322 288 OFFCURVE",
"552 342 OFFCURVE",
"582 482 CURVE SMOOTH",
"584.244 492.474 OFFCURVE",
"585.352 502.467 OFFCURVE",
"585.352 511.978 CURVE SMOOTH",
"585.352 604.163 OFFCURVE",
"481.296 651 OFFCURVE",
"300 651 CURVE SMOOTH",
"290 651 OFFCURVE",
"258 650 OFFCURVE",
"242 649 CURVE"
);
},
{
closed = 1;
nodes = (
"417 759 LINE SMOOTH",
"409 754 OFFCURVE",
"403 752 OFFCURVE",
"399 752 CURVE SMOOTH",
"390 752 OFFCURVE",
"384 760 OFFCURVE",
"386 769 CURVE SMOOTH",
"387 772 OFFCURVE",
"388 777 OFFCURVE",
"395 782 CURVE SMOOTH",
"545 886 LINE SMOOTH",
"555 893 OFFCURVE",
"564 900 OFFCURVE",
"574 900 CURVE SMOOTH",
"583.655 900 OFFCURVE",
"592.539 889.985 OFFCURVE",
"592.539 878.069 CURVE SMOOTH",
"592.539 876.409 OFFCURVE",
"592.367 874.712 OFFCURVE",
"592 873 CURVE SMOOTH",
"591 866 OFFCURVE",
"589 862 OFFCURVE",
"581 857 CURVE SMOOTH"
);
}
);
userData = {
com.fontlab.hintData = {
hhints = (
{
position = 0;
width = 21;
},
{
position = 258;
width = 27;
},
{
position = 651;
width = 37;
}
);
vhints = (
{
position = 510;
width = 37;
},
{
position = 585;
width = 38;
}
);
};
};
width = 587;
}
);
unicode = 0154;
},
{
glyphname = Rcaron;
layers = (
{
layerId = master01;
paths = (
{
closed = 1;
nodes = (
"437 743 OFFCURVE",
"432 745 OFFCURVE",
"429 749 CURVE SMOOTH",
"341 862 LINE SMOOTH",
"338 866 OFFCURVE",
"336 869 OFFCURVE",
"337 874 CURVE SMOOTH",
"339 883 OFFCURVE",
"349 892 OFFCURVE",
"358 892 CURVE SMOOTH",
"363 892 OFFCURVE",
"367 890 OFFCURVE",
"370 887 CURVE SMOOTH",
"455 792 LINE",
"599 888 LINE SMOOTH",
"603 890 OFFCURVE",
"607 892 OFFCURVE",
"611 892 CURVE SMOOTH",
"621 892 OFFCURVE",
"627 883 OFFCURVE",
"625 874 CURVE SMOOTH",
"624 869 OFFCURVE",
"620 864 OFFCURVE",
"616 861 CURVE SMOOTH",
"456 748 LINE SMOOTH",
"452 745 OFFCURVE",
"446 743 OFFCURVE",
"442 743 CURVE SMOOTH"
);
},
{
closed = 1;
nodes = (
"547 24 OFFCURVE",
"547 22 OFFCURVE",
"547 19 CURVE",
"544 9 OFFCURVE",
"537 0 OFFCURVE",
"524 0 CURVE SMOOTH",
"517 0 OFFCURVE",
"513 5 OFFCURVE",
"510 11 CURVE",
"423 241 OFFCURVE",
"313 258 OFFCURVE",
"268 258 CURVE SMOOTH",
"247 258 OFFCURVE",
"197 253 OFFCURVE",
"157 247 CURVE",
"109 19 LINE",
"106 8 OFFCURVE",
"96 0 OFFCURVE",
"86 0 CURVE SMOOTH",
"76 0 OFFCURVE",
"69 8 OFFCURVE",
"72 19 CURVE",
"207 657 LINE SMOOTH",
"213.588 687.118 OFFCURVE",
"226.377 688.003 OFFCURVE",
"297.89 688.003 CURVE SMOOTH",
"302.36 688.003 OFFCURVE",
"307.059 688 OFFCURVE",
"312 688 CURVE SMOOTH",
"513.978 688 OFFCURVE",
"623.285 627.563 OFFCURVE",
"623.285 520.433 CURVE SMOOTH",
"623.285 508.222 OFFCURVE",
"621.865 495.404 OFFCURVE",
"619 482 CURVE SMOOTH",
"596 373 OFFCURVE",
"479 311 OFFCURVE",
"367 276 CURVE",
"411 246 OFFCURVE",
"507 161 OFFCURVE",
"546 27 CURVE SMOOTH"
);
},
{
closed = 1;
nodes = (
"165 285 LINE",
"322 288 OFFCURVE",
"552 342 OFFCURVE",
"582 482 CURVE SMOOTH",
"584.244 492.474 OFFCURVE",
"585.352 502.467 OFFCURVE",
"585.352 511.978 CURVE SMOOTH",
"585.352 604.163 OFFCURVE",
"481.296 651 OFFCURVE",
"300 651 CURVE SMOOTH",
"290 651 OFFCURVE",
"258 650 OFFCURVE",
"242 649 CURVE"
);
}
);
userData = {
com.fontlab.hintData = {
hhints = (
{
position = 0;
width = 21;
},
{
position = 258;
width = 27;
},
{
position = 651;
width = 37;
}
);
vhints = (
{
position = 510;
width = 37;
},
{
position = 585;
width = 38;
}
);
};
};
width = 587;
}
);
unicode = 0158;
},
{
glyphname = S;
layers = (
{
layerId = master01;
paths = (
{
closed = 1;
nodes = (
"514.835 343.137 OFFCURVE",
"575.756 292.737 OFFCURVE",
"575.756 220.438 CURVE SMOOTH",
"575.756 210.082 OFFCURVE",
"574.506 199.276 OFFCURVE",
"572 188 CURVE SMOOTH",
"545 61 OFFCURVE",
"406 0 OFFCURVE",
"304 0 CURVE SMOOTH",
"191 0 OFFCURVE",
"111 56 OFFCURVE",
"95 138 CURVE SMOOTH",
"94 141 OFFCURVE",
"94 147 OFFCURVE",
"95 151 CURVE SMOOTH",
"97 162 OFFCURVE",
"109 171 OFFCURVE",
"120 171 CURVE SMOOTH",
"131 171 OFFCURVE",
"136 165 OFFCURVE",
"137 156 CURVE SMOOTH",
"148 76 OFFCURVE",
"234 34 OFFCURVE",
"310 34 CURVE SMOOTH",
"391 34 OFFCURVE",
"506 77 OFFCURVE",
"529 188 CURVE",
"530.8 195.8 OFFCURVE",
"532.32 204.76 OFFCURVE",
"532.32 214.472 CURVE SMOOTH",
"532.32 253.32 OFFCURVE",
"508 304.2 OFFCURVE",
"380 341 CURVE SMOOTH",
"296.957 364.726 OFFCURVE",
"206.42 410.105 OFFCURVE",
"206.42 490.814 CURVE SMOOTH",
"206.42 498.547 OFFCURVE",
"207.251 506.605 OFFCURVE",
"209 515 CURVE SMOOTH",
"236 642 OFFCURVE",
"359 682 OFFCURVE",
"471 682 CURVE SMOOTH",
"538.586 682 OFFCURVE",
"647.856 661.158 OFFCURVE",
"647.856 567.72 CURVE SMOOTH",
"647.856 563.001 OFFCURVE",
"647.577 558.096 OFFCURVE",
"647 553 CURVE",
"645 543 OFFCURVE",
"637 534 OFFCURVE",
"626 534 CURVE SMOOTH",
"615 534 OFFCURVE",
"610 541 OFFCURVE",
"611 549 CURVE SMOOTH",
"611.298 551.979 OFFCURVE",
"611.444 554.886 OFFCURVE",
"611.444 557.724 CURVE SMOOTH",
"611.444 621.582 OFFCURVE",
"537.639 650 OFFCURVE",
"462 650 CURVE SMOOTH",
"368 650 OFFCURVE",
"271 619 OFFCURVE",
"250 520 CURVE SMOOTH",
"248.521 513.133 OFFCURVE",
"247.79 506.49 OFFCURVE",
"247.79 500.062 CURVE SMOOTH",
"247.79 445.648 OFFCURVE",
"300.198 406.725 OFFCURVE",
"395 379 CURVE SMOOTH"
);
}
);
userData = {
com.fontlab.hintData = {
hhints = (
{
position = 0;
width = 34;
},
{
position = 650;
width = 32;
}
);
vhints = (
{
position = 95;
width = 42;
},
{
position = 206;
width = 41;
},
{
position = 532;
width = 43;
},
{
position = 611;
width = 36;
}
);
};
};
width = 588;
}
);
unicode = 0053;
},
{
glyphname = Sacute;
layers = (
{
layerId = master01;
paths = (
{
closed = 1;
nodes = (
"514.835 343.137 OFFCURVE",
"575.756 292.737 OFFCURVE",
"575.756 220.438 CURVE SMOOTH",
"575.756 210.082 OFFCURVE",
"574.506 199.276 OFFCURVE",
"572 188 CURVE SMOOTH",
"545 61 OFFCURVE",
"406 0 OFFCURVE",
"304 0 CURVE SMOOTH",
"191 0 OFFCURVE",
"111 56 OFFCURVE",
"95 138 CURVE SMOOTH",
"94 141 OFFCURVE",
"94 147 OFFCURVE",
"95 151 CURVE SMOOTH",
"97 162 OFFCURVE",
"109 171 OFFCURVE",
"120 171 CURVE SMOOTH",
"131 171 OFFCURVE",
"136 165 OFFCURVE",
"137 156 CURVE SMOOTH",
"148 76 OFFCURVE",
"234 34 OFFCURVE",
"310 34 CURVE SMOOTH",
"391 34 OFFCURVE",
"506 77 OFFCURVE",
"529 188 CURVE",
"530.8 195.8 OFFCURVE",
"532.32 204.76 OFFCURVE",
"532.32 214.472 CURVE SMOOTH",
"532.32 253.32 OFFCURVE",
"508 304.2 OFFCURVE",
"380 341 CURVE SMOOTH",
"296.957 364.726 OFFCURVE",
"206.42 410.105 OFFCURVE",
"206.42 490.814 CURVE SMOOTH",
"206.42 498.547 OFFCURVE",
"207.251 506.605 OFFCURVE",
"209 515 CURVE SMOOTH",
"236 642 OFFCURVE",
"359 682 OFFCURVE",
"471 682 CURVE SMOOTH",
"538.586 682 OFFCURVE",
"647.856 661.158 OFFCURVE",
"647.856 567.72 CURVE SMOOTH",
"647.856 563.001 OFFCURVE",
"647.577 558.096 OFFCURVE",
"647 553 CURVE",
"645 543 OFFCURVE",
"637 534 OFFCURVE",
"626 534 CURVE SMOOTH",
"615 534 OFFCURVE",
"610 541 OFFCURVE",
"611 549 CURVE SMOOTH",
"611.298 551.979 OFFCURVE",
"611.444 554.886 OFFCURVE",
"611.444 557.724 CURVE SMOOTH",
"611.444 621.582 OFFCURVE",
"537.639 650 OFFCURVE",
"462 650 CURVE SMOOTH",
"368 650 OFFCURVE",
"271 619 OFFCURVE",
"250 520 CURVE SMOOTH",
"248.521 513.133 OFFCURVE",
"247.79 506.49 OFFCURVE",
"247.79 500.062 CURVE SMOOTH",
"247.79 445.648 OFFCURVE",
"300.198 406.725 OFFCURVE",
"395 379 CURVE SMOOTH"
);
},
{
closed = 1;
nodes = (
"441 759 LINE SMOOTH",
"433 754 OFFCURVE",
"427 752 OFFCURVE",
"423 752 CURVE SMOOTH",
"414 752 OFFCURVE",
"408 760 OFFCURVE",
"410 769 CURVE SMOOTH",
"411 772 OFFCURVE",
"412 777 OFFCURVE",
"419 782 CURVE SMOOTH",
"569 886 LINE SMOOTH",
"579 893 OFFCURVE",
"588 900 OFFCURVE",
"598 900 CURVE SMOOTH",
"607.655 900 OFFCURVE",
"616.539 889.985 OFFCURVE",
"616.539 878.069 CURVE SMOOTH",
"616.539 876.409 OFFCURVE",
"616.367 874.712 OFFCURVE",
"616 873 CURVE SMOOTH",
"615 866 OFFCURVE",
"613 862 OFFCURVE",
"605 857 CURVE SMOOTH"
);
}
);
userData = {
com.fontlab.hintData = {
hhints = (
{
position = 0;
width = 34;
},
{
position = 650;
width = 32;
}
);
vhints = (
{
position = 95;
width = 42;
},
{
position = 206;
width = 41;
},
{
position = 532;
width = 43;
},
{
position = 611;
width = 36;
}
);
};
};
width = 588;
}
);
unicode = 015A;
},
{
glyphname = Scaron;
layers = (
{
layerId = master01;
paths = (
{
closed = 1;
nodes = (
"478 752 OFFCURVE",
"473 754 OFFCURVE",
"470 758 CURVE SMOOTH",
"382 871 LINE SMOOTH",
"378 875 OFFCURVE",
"377 878 OFFCURVE",
"378 883 CURVE SMOOTH",
"380 892 OFFCURVE",
"390 901 OFFCURVE",
"399 901 CURVE SMOOTH",
"404 901 OFFCURVE",
"408 899 OFFCURVE",
"411 896 CURVE SMOOTH",
"496 801 LINE",
"640 897 LINE SMOOTH",
"644 899 OFFCURVE",
"648 901 OFFCURVE",
"652 901 CURVE SMOOTH",
"662 901 OFFCURVE",
"668 892 OFFCURVE",
"666 883 CURVE SMOOTH",
"665 878 OFFCURVE",
"661 873 OFFCURVE",
"656 870 CURVE SMOOTH",
"497 757 LINE SMOOTH",
"493 754 OFFCURVE",
"487 752 OFFCURVE",
"483 752 CURVE SMOOTH"
);
},
{
closed = 1;
nodes = (
"514.835 343.137 OFFCURVE",
"575.756 292.737 OFFCURVE",
"575.756 220.438 CURVE SMOOTH",
"575.756 210.082 OFFCURVE",
"574.506 199.276 OFFCURVE",
"572 188 CURVE SMOOTH",
"545 61 OFFCURVE",
"406 0 OFFCURVE",
"304 0 CURVE SMOOTH",
"191 0 OFFCURVE",
"111 56 OFFCURVE",
"95 138 CURVE SMOOTH",
"94 141 OFFCURVE",
"94 147 OFFCURVE",
"95 151 CURVE SMOOTH",
"97 162 OFFCURVE",
"109 171 OFFCURVE",
"120 171 CURVE SMOOTH",
"131 171 OFFCURVE",
"136 165 OFFCURVE",
"137 156 CURVE SMOOTH",
"148 76 OFFCURVE",
"234 34 OFFCURVE",
"310 34 CURVE SMOOTH",
"391 34 OFFCURVE",
"506 77 OFFCURVE",
"529 188 CURVE",
"530.8 195.8 OFFCURVE",
"532.32 204.76 OFFCURVE",
"532.32 214.472 CURVE SMOOTH",
"532.32 253.32 OFFCURVE",
"508 304.2 OFFCURVE",
"380 341 CURVE SMOOTH",
"296.957 364.726 OFFCURVE",
"206.42 410.105 OFFCURVE",
"206.42 490.814 CURVE SMOOTH",
"206.42 498.547 OFFCURVE",
"207.251 506.605 OFFCURVE",
"209 515 CURVE SMOOTH",
"236 642 OFFCURVE",
"359 682 OFFCURVE",
"471 682 CURVE SMOOTH",
"538.586 682 OFFCURVE",
"647.856 661.158 OFFCURVE",
"647.856 567.72 CURVE SMOOTH",
"647.856 563.001 OFFCURVE",
"647.577 558.096 OFFCURVE",
"647 553 CURVE",
"645 543 OFFCURVE",
"637 534 OFFCURVE",
"626 534 CURVE SMOOTH",
"615 534 OFFCURVE",
"610 541 OFFCURVE",
"611 549 CURVE SMOOTH",
"611.298 551.979 OFFCURVE",
"611.444 554.886 OFFCURVE",
"611.444 557.724 CURVE SMOOTH",
"611.444 621.582 OFFCURVE",
"537.639 650 OFFCURVE",
"462 650 CURVE SMOOTH",
"368 650 OFFCURVE",
"271 619 OFFCURVE",
"250 520 CURVE SMOOTH",
"248.521 513.133 OFFCURVE",
"247.79 506.49 OFFCURVE",
"247.79 500.062 CURVE SMOOTH",
"247.79 445.648 OFFCURVE",
"300.198 406.725 OFFCURVE",
"395 379 CURVE SMOOTH"
);
}
);
userData = {
com.fontlab.hintData = {
hhints = (
{
position = 0;
width = 34;
},
{
position = 650;
width = 32;
}
);
vhints = (
{
position = 95;
width = 42;
},
{
position = 206;
width = 41;
},
{
position = 532;
width = 43;
},
{
position = 611;
width = 36;
}
);
};
};
width = 588;
}
);
unicode = 0160;
},
{
glyphname = Scedilla;
layers = (
{
layerId = master01;
paths = (
{
closed = 1;
nodes = (
"176 14 OFFCURVE",
"109 64 OFFCURVE",
"95 138 CURVE SMOOTH",
"94 141 OFFCURVE",
"94 147 OFFCURVE",
"95 151 CURVE SMOOTH",
"97 162 OFFCURVE",
"109 171 OFFCURVE",
"120 171 CURVE SMOOTH",
"131 171 OFFCURVE",
"136 165 OFFCURVE",
"137 156 CURVE SMOOTH",
"148 76 OFFCURVE",
"234 34 OFFCURVE",
"310 34 CURVE SMOOTH",
"391 34 OFFCURVE",
"506 77 OFFCURVE",
"529 188 CURVE",
"530.8 195.8 OFFCURVE",
"532.32 204.76 OFFCURVE",
"532.32 214.472 CURVE SMOOTH",
"532.32 253.32 OFFCURVE",
"508 304.2 OFFCURVE",
"380 341 CURVE SMOOTH",
"296.957 364.726 OFFCURVE",
"206.42 410.105 OFFCURVE",
"206.42 490.814 CURVE SMOOTH",
"206.42 498.547 OFFCURVE",
"207.251 506.605 OFFCURVE",
"209 515 CURVE SMOOTH",
"236 642 OFFCURVE",
"359 682 OFFCURVE",
"471 682 CURVE SMOOTH",
"538.586 682 OFFCURVE",
"647.856 661.158 OFFCURVE",
"647.856 567.72 CURVE SMOOTH",
"647.856 563.001 OFFCURVE",
"647.577 558.096 OFFCURVE",
"647 553 CURVE",
"645 543 OFFCURVE",
"637 534 OFFCURVE",
"626 534 CURVE SMOOTH",
"615 534 OFFCURVE",
"610 541 OFFCURVE",
"611 549 CURVE SMOOTH",
"611.298 551.979 OFFCURVE",
"611.444 554.886 OFFCURVE",
"611.444 557.724 CURVE SMOOTH",
"611.444 621.582 OFFCURVE",
"537.639 650 OFFCURVE",
"462 650 CURVE SMOOTH",
"368 650 OFFCURVE",
"271 619 OFFCURVE",
"250 520 CURVE SMOOTH",
"248.521 513.133 OFFCURVE",
"247.79 506.49 OFFCURVE",
"247.79 500.062 CURVE SMOOTH",
"247.79 445.648 OFFCURVE",
"300.198 406.725 OFFCURVE",
"395 379 CURVE SMOOTH",
"514.835 343.137 OFFCURVE",
"575.756 292.737 OFFCURVE",
"575.756 220.438 CURVE SMOOTH",
"575.756 210.082 OFFCURVE",
"574.506 199.276 OFFCURVE",
"572 188 CURVE SMOOTH",
"545 61 OFFCURVE",
"406 0 OFFCURVE",
"304 0 CURVE SMOOTH",
"283 0 LINE",
"273 -41 LINE",
"334.525 -41 OFFCURVE",
"363.01 -68.784 OFFCURVE",
"363.01 -105.481 CURVE SMOOTH",
"363.01 -111.132 OFFCURVE",
"362.335 -116.995 OFFCURVE",
"361 -123 CURVE SMOOTH",
"351 -170 OFFCURVE",
"306 -209 OFFCURVE",
"259 -209 CURVE SMOOTH",
"230.256 -209 OFFCURVE",
"196.354 -191.805 OFFCURVE",
"196.354 -168.577 CURVE SMOOTH",
"196.354 -166.753 OFFCURVE",
"196.563 -164.892 OFFCURVE",
"197 -163 CURVE SMOOTH",
"198 -157 OFFCURVE",
"204 -154 OFFCURVE",
"209 -154 CURVE SMOOTH",
"214 -154 OFFCURVE",
"216 -159 OFFCURVE",
"219 -164 CURVE SMOOTH",
"226 -174 OFFCURVE",
"235 -187 OFFCURVE",
"264 -187 CURVE SMOOTH",
"298 -187 OFFCURVE",
"331 -159 OFFCURVE",
"338 -125 CURVE SMOOTH",
"338.906 -120.597 OFFCURVE",
"339.343 -116.312 OFFCURVE",
"339.343 -112.187 CURVE SMOOTH",
"339.343 -84.46 OFFCURVE",
"319.597 -64 OFFCURVE",
"290 -64 CURVE SMOOTH",
"272 -64 OFFCURVE",
"260 -70 OFFCURVE",
"252 -75 CURVE SMOOTH",
"247 -78 OFFCURVE",
"244 -79 OFFCURVE",
"242 -79 CURVE SMOOTH",
"236 -79 OFFCURVE",
"232 -75 OFFCURVE",
"233 -69 CURVE SMOOTH",
"234 -65 OFFCURVE",
"265 -8 OFFCURVE",
"270 1 CURVE"
);
}
);
userData = {
com.fontlab.hintData = {
hhints = (
{
position = -209;
width = 22;
},
{
position = -64;
width = 23;
},
{
position = 0;
width = 34;
},
{
position = 650;
width = 32;
}
);
vhints = (
{
position = 95;
width = 42;
},
{
position = 206;
width = 41;
},
{
position = 339;
width = 24;
},
{
position = 532;
width = 43;
},
{
position = 611;
width = 36;
}
);
};
};
width = 588;
}
);
unicode = 015E;
},
{
glyphname = Scircumflex;
layers = (
{
layerId = master01;
paths = (
{
closed = 1;
nodes = (
"514.835 343.137 OFFCURVE",
"575.756 292.737 OFFCURVE",
"575.756 220.438 CURVE SMOOTH",
"575.756 210.082 OFFCURVE",
"574.506 199.276 OFFCURVE",
"572 188 CURVE SMOOTH",
"545 61 OFFCURVE",
"406 0 OFFCURVE",
"304 0 CURVE SMOOTH",
"191 0 OFFCURVE",
"111 56 OFFCURVE",
"95 138 CURVE SMOOTH",
"94 141 OFFCURVE",
"94 147 OFFCURVE",
"95 151 CURVE SMOOTH",
"97 162 OFFCURVE",
"109 171 OFFCURVE",
"120 171 CURVE SMOOTH",
"131 171 OFFCURVE",
"136 165 OFFCURVE",
"137 156 CURVE SMOOTH",
"148 76 OFFCURVE",
"234 34 OFFCURVE",
"310 34 CURVE SMOOTH",
"391 34 OFFCURVE",
"506 77 OFFCURVE",
"529 188 CURVE SMOOTH",
"530.8 195.8 OFFCURVE",
"532.32 204.76 OFFCURVE",
"532.32 214.472 CURVE SMOOTH",
"532.32 253.32 OFFCURVE",
"508 304.2 OFFCURVE",
"380 341 CURVE SMOOTH",
"296.957 364.726 OFFCURVE",
"206.42 410.105 OFFCURVE",
"206.42 490.814 CURVE SMOOTH",
"206.42 498.547 OFFCURVE",
"207.251 506.605 OFFCURVE",
"209 515 CURVE SMOOTH",
"236 642 OFFCURVE",
"359 682 OFFCURVE",
"471 682 CURVE SMOOTH",
"538.586 682 OFFCURVE",
"647.856 661.158 OFFCURVE",
"647.856 567.72 CURVE SMOOTH",
"647.856 563.001 OFFCURVE",
"647.577 558.096 OFFCURVE",
"647 553 CURVE SMOOTH",
"645 543 OFFCURVE",
"637 534 OFFCURVE",
"626 534 CURVE SMOOTH",
"615 534 OFFCURVE",
"610 541 OFFCURVE",
"611 549 CURVE SMOOTH",
"611.298 551.979 OFFCURVE",
"611.444 554.886 OFFCURVE",
"611.444 557.724 CURVE SMOOTH",
"611.444 621.582 OFFCURVE",
"537.639 650 OFFCURVE",
"462 650 CURVE SMOOTH",
"368 650 OFFCURVE",
"271 619 OFFCURVE",
"250 520 CURVE SMOOTH",
"248.521 513.133 OFFCURVE",
"247.79 506.49 OFFCURVE",
"247.79 500.062 CURVE SMOOTH",
"247.79 445.648 OFFCURVE",
"300.198 406.725 OFFCURVE",
"395 379 CURVE SMOOTH"
);
},
{
closed = 1;
nodes = (
"532 902 OFFCURVE",
"538 900 OFFCURVE",
"541 896 CURVE SMOOTH",
"629 783 LINE SMOOTH",
"632 779 OFFCURVE",
"633 776 OFFCURVE",
"632 771 CURVE SMOOTH",
"630 762 OFFCURVE",
"621 753 OFFCURVE",
"612 753 CURVE SMOOTH",
"607 753 OFFCURVE",
"603 755 OFFCURVE",
"600 758 CURVE SMOOTH",
"515 853 LINE",
"370 757 LINE SMOOTH",
"367 755 OFFCURVE",
"363 753 OFFCURVE",
"359 753 CURVE SMOOTH",
"349 753 OFFCURVE",
"342 762 OFFCURVE",
"344 771 CURVE SMOOTH",
"345 776 OFFCURVE",
"350 781 OFFCURVE",
"354 784 CURVE SMOOTH",
"513 897 LINE SMOOTH",
"518 900 OFFCURVE",
"523 902 OFFCURVE",
"527 902 CURVE SMOOTH"
);
}
);
userData = {
com.fontlab.hintData = {
hhints = (
{
position = 0;
width = 34;
},
{
position = 650;
width = 32;
}
);
vhints = (
{
position = 95;
width = 42;
},
{
position = 206;
width = 41;
},
{
position = 532;
width = 43;
},
{
position = 611;
width = 36;
}
);
};
};
width = 588;
}
);
unicode = 015C;
},
{
glyphname = T;
layers = (
{
layerId = master01;
paths = (
{
closed = 1;
nodes = (
"634 681 LINE SMOOTH",
"644 681 OFFCURVE",
"652 673 OFFCURVE",
"649 662 CURVE SMOOTH",
"647 652 OFFCURVE",
"636 644 OFFCURVE",
"626 644 CURVE SMOOTH",
"407 644 LINE",
"275 19 LINE",
"272 8 OFFCURVE",
"263 0 OFFCURVE",
"253 0 CURVE SMOOTH",
"242 0 OFFCURVE",
"235 8 OFFCURVE",
"238 19 CURVE",
"370 644 LINE",
"166 644 LINE SMOOTH",
"156 644 OFFCURVE",
"149 652 OFFCURVE",
"151 662 CURVE SMOOTH",
"154 673 OFFCURVE",
"164 681 OFFCURVE",
"174 681 CURVE SMOOTH"
);
}
);
userData = {
com.fontlab.hintData = {
hhints = (
{
position = 0;
width = 21;
},
{
position = 644;
width = 37;
}
);
};
};
width = 512;
}
);
unicode = 0054;
},
{
glyphname = Tcaron;
layers = (
{
layerId = master01;
paths = (
{
closed = 1;
nodes = (
"411 743 OFFCURVE",
"406 745 OFFCURVE",
"403 749 CURVE SMOOTH",
"315 862 LINE SMOOTH",
"312 866 OFFCURVE",
"310 869 OFFCURVE",
"311 874 CURVE SMOOTH",
"313 883 OFFCURVE",
"323 892 OFFCURVE",
"332 892 CURVE SMOOTH",
"337 892 OFFCURVE",
"341 890 OFFCURVE",
"344 887 CURVE SMOOTH",
"429 792 LINE",
"573 888 LINE SMOOTH",
"577 890 OFFCURVE",
"581 892 OFFCURVE",
"585 892 CURVE SMOOTH",
"595 892 OFFCURVE",
"601 883 OFFCURVE",
"599 874 CURVE SMOOTH",
"598 869 OFFCURVE",
"594 864 OFFCURVE",
"590 861 CURVE SMOOTH",
"430 748 LINE SMOOTH",
"426 745 OFFCURVE",
"420 743 OFFCURVE",
"416 743 CURVE SMOOTH"
);
},
{
closed = 1;
nodes = (
"634 681 LINE SMOOTH",
"644 681 OFFCURVE",
"652 673 OFFCURVE",
"649 662 CURVE SMOOTH",
"647 652 OFFCURVE",
"636 644 OFFCURVE",
"626 644 CURVE SMOOTH",
"407 644 LINE",
"275 19 LINE",
"272 8 OFFCURVE",
"263 0 OFFCURVE",
"253 0 CURVE SMOOTH",
"242 0 OFFCURVE",
"235 8 OFFCURVE",
"238 19 CURVE",
"370 644 LINE",
"166 644 LINE SMOOTH",
"156 644 OFFCURVE",
"149 652 OFFCURVE",
"151 662 CURVE SMOOTH",
"154 673 OFFCURVE",
"164 681 OFFCURVE",
"174 681 CURVE SMOOTH"
);
}
);
userData = {
com.fontlab.hintData = {
hhints = (
{
position = 0;
width = 21;
},
{
position = 644;
width = 37;
}
);
};
};
width = 512;
}
);
unicode = 0164;
},
{
glyphname = U;
layers = (
{
layerId = master01;
paths = (
{
closed = 1;
nodes = (
"730 527 OFFCURVE",
"708 400 OFFCURVE",
"663 270 CURVE SMOOTH",
"608 110 OFFCURVE",
"502 0 OFFCURVE",
"329 0 CURVE SMOOTH",
"202.421 0 OFFCURVE",
"134.248 80.226 OFFCURVE",
"134.248 236.565 CURVE SMOOTH",
"134.248 275.374 OFFCURVE",
"138.449 318.873 OFFCURVE",
"147 367 CURVE",
"165 474 OFFCURVE",
"188 570 OFFCURVE",
"207 655 CURVE SMOOTH",
"210 671 OFFCURVE",
"218 681 OFFCURVE",
"232 681 CURVE SMOOTH",
"242.827 681 OFFCURVE",
"246.36 675.27 OFFCURVE",
"246.36 666.065 CURVE SMOOTH",
"246.36 662.516 OFFCURVE",
"245.835 658.452 OFFCURVE",
"245 654 CURVE",
"224 565 OFFCURVE",
"202 474 OFFCURVE",
"185 381 CURVE",
"177.612 338.151 OFFCURVE",
"171.622 290.063 OFFCURVE",
"171.622 243.574 CURVE SMOOTH",
"171.622 132.744 OFFCURVE",
"205.669 31 OFFCURVE",
"336 31 CURVE SMOOTH",
"496 31 OFFCURVE",
"583 139 OFFCURVE",
"628 277 CURVE SMOOTH",
"667 397 OFFCURVE",
"687 518 OFFCURVE",
"715 651 CURVE SMOOTH",
"718 667 OFFCURVE",
"722 681 OFFCURVE",
"740 681 CURVE SMOOTH",
"750.365 681 OFFCURVE",
"753.568 674.793 OFFCURVE",
"753.568 666.008 CURVE SMOOTH",
"753.568 662.08 OFFCURVE",
"752.927 657.635 OFFCURVE",
"752 653 CURVE SMOOTH"
);
}
);
userData = {
com.fontlab.hintData = {
hhints = (
{
position = 0;
width = 31;
},
{
position = 661;
width = 20;
}
);
vhints = (
{
position = 134;
width = 37;
},
{
position = 207;
width = 39;
}
);
};
};
width = 673;
}
);
unicode = 0055;
},
{
glyphname = Uacute;
layers = (
{
layerId = master01;
paths = (
{
closed = 1;
nodes = (
"730 527 OFFCURVE",
"708 400 OFFCURVE",
"663 270 CURVE SMOOTH",
"608 110 OFFCURVE",
"502 0 OFFCURVE",
"329 0 CURVE SMOOTH",
"202.421 0 OFFCURVE",
"134.248 80.226 OFFCURVE",
"134.248 236.565 CURVE SMOOTH",
"134.248 275.374 OFFCURVE",
"138.449 318.873 OFFCURVE",
"147 367 CURVE",
"165 474 OFFCURVE",
"188 570 OFFCURVE",
"207 655 CURVE SMOOTH",
"210 671 OFFCURVE",
"218 681 OFFCURVE",
"232 681 CURVE SMOOTH",
"242.827 681 OFFCURVE",
"246.36 675.27 OFFCURVE",
"246.36 666.065 CURVE SMOOTH",
"246.36 662.516 OFFCURVE",
"245.835 658.452 OFFCURVE",
"245 654 CURVE",
"224 565 OFFCURVE",
"202 474 OFFCURVE",
"185 381 CURVE",
"177.612 338.151 OFFCURVE",
"171.622 290.063 OFFCURVE",
"171.622 243.574 CURVE SMOOTH",
"171.622 132.744 OFFCURVE",
"205.669 31 OFFCURVE",
"336 31 CURVE SMOOTH",
"496 31 OFFCURVE",
"583 139 OFFCURVE",
"628 277 CURVE SMOOTH",
"667 397 OFFCURVE",
"687 518 OFFCURVE",
"715 651 CURVE SMOOTH",
"718 667 OFFCURVE",
"722 681 OFFCURVE",
"740 681 CURVE SMOOTH",
"750.365 681 OFFCURVE",
"753.568 674.793 OFFCURVE",
"753.568 666.008 CURVE SMOOTH",
"753.568 662.08 OFFCURVE",
"752.927 657.635 OFFCURVE",
"752 653 CURVE SMOOTH"
);
},
{
closed = 1;
nodes = (
"466 759 LINE SMOOTH",
"458 754 OFFCURVE",
"452 752 OFFCURVE",
"448 752 CURVE SMOOTH",
"439 752 OFFCURVE",
"433 760 OFFCURVE",
"435 769 CURVE SMOOTH",
"436 772 OFFCURVE",
"437 777 OFFCURVE",
"444 782 CURVE SMOOTH",
"594 886 LINE SMOOTH",
"604 893 OFFCURVE",
"613 900 OFFCURVE",
"623 900 CURVE SMOOTH",
"632.655 900 OFFCURVE",
"641.539 889.985 OFFCURVE",
"641.539 878.069 CURVE SMOOTH",
"641.539 876.409 OFFCURVE",
"641.367 874.712 OFFCURVE",
"641 873 CURVE SMOOTH",
"640 866 OFFCURVE",
"638 862 OFFCURVE",
"630 857 CURVE SMOOTH"
);
}
);
userData = {
com.fontlab.hintData = {
hhints = (
{
position = 0;
width = 31;
},
{
position = 661;
width = 20;
}
);
vhints = (
{
position = 134;
width = 37;
},
{
position = 207;
width = 39;
}
);
};
};
width = 673;
}
);
unicode = 00DA;
},
{
glyphname = Ubreve;
layers = (
{
layerId = master01;
paths = (
{
closed = 1;
nodes = (
"730 527 OFFCURVE",
"708 400 OFFCURVE",
"663 270 CURVE SMOOTH",
"608 110 OFFCURVE",
"502 0 OFFCURVE",
"329 0 CURVE SMOOTH",
"202.421 0 OFFCURVE",
"134.248 80.226 OFFCURVE",
"134.248 236.565 CURVE SMOOTH",
"134.248 275.374 OFFCURVE",
"138.449 318.873 OFFCURVE",
"147 367 CURVE SMOOTH",
"165 474 OFFCURVE",
"188 570 OFFCURVE",
"207 655 CURVE SMOOTH",
"210 671 OFFCURVE",
"218 681 OFFCURVE",
"232 681 CURVE SMOOTH",
"242.827 681 OFFCURVE",
"246.36 675.27 OFFCURVE",
"246.36 666.065 CURVE SMOOTH",
"246.36 662.516 OFFCURVE",
"245.835 658.452 OFFCURVE",
"245 654 CURVE SMOOTH",
"224 565 OFFCURVE",
"202 474 OFFCURVE",
"185 381 CURVE SMOOTH",
"177.612 338.151 OFFCURVE",
"171.622 290.063 OFFCURVE",
"171.622 243.574 CURVE SMOOTH",
"171.622 132.744 OFFCURVE",
"205.669 31 OFFCURVE",
"336 31 CURVE SMOOTH",
"496 31 OFFCURVE",
"583 139 OFFCURVE",
"628 277 CURVE SMOOTH",
"667 397 OFFCURVE",
"687 518 OFFCURVE",
"715 651 CURVE SMOOTH",
"718 667 OFFCURVE",
"722 681 OFFCURVE",
"740 681 CURVE SMOOTH",
"750.365 681 OFFCURVE",
"753.568 674.793 OFFCURVE",
"753.568 666.008 CURVE SMOOTH",
"753.568 662.08 OFFCURVE",
"752.927 657.635 OFFCURVE",
"752 653 CURVE SMOOTH"
);
},
{
closed = 1;
nodes = (
"398 807 OFFCURVE",
"456 790 OFFCURVE",
"498 790 CURVE SMOOTH",
"554 790 OFFCURVE",
"600 816 OFFCURVE",
"634 868 CURVE SMOOTH",
"640 876 OFFCURVE",
"645 883 OFFCURVE",
"652 883 CURVE SMOOTH",
"656 883 OFFCURVE",
"659 880 OFFCURVE",
"658 876 CURVE SMOOTH",
"649 833 OFFCURVE",
"582 762 OFFCURVE",
"489 762 CURVE SMOOTH",
"382.626 762 OFFCURVE",
"357.535 836.438 OFFCURVE",
"357.535 863.433 CURVE SMOOTH",
"357.535 865.623 OFFCURVE",
"357.7 867.5 OFFCURVE",
"358 869 CURVE SMOOTH",
"359 873 OFFCURVE",
"361 878 OFFCURVE",
"368 878 CURVE SMOOTH",
"374 878 OFFCURVE",
"377 870 OFFCURVE",
"379 865 CURVE SMOOTH"
);
}
);
userData = {
com.fontlab.hintData = {
hhints = (
{
position = 0;
width = 31;
},
{
position = 661;
width = 20;
},
{
position = 762;
width = 28;
}
);
vhints = (
{
position = 134;
width = 37;
},
{
position = 207;
width = 39;
},
{
position = 634;
width = 24;
}
);
};
};
width = 673;
}
);
unicode = 016C;
},
{
glyphname = Ucircumflex;
layers = (
{
layerId = master01;
paths = (
{
closed = 1;
nodes = (
"559 902 OFFCURVE",
"565 900 OFFCURVE",
"568 896 CURVE SMOOTH",
"656 783 LINE SMOOTH",
"659 779 OFFCURVE",
"660 776 OFFCURVE",
"659 771 CURVE SMOOTH",
"657 762 OFFCURVE",
"648 753 OFFCURVE",
"639 753 CURVE SMOOTH",
"634 753 OFFCURVE",
"630 755 OFFCURVE",
"627 758 CURVE SMOOTH",
"542 853 LINE",
"397 757 LINE SMOOTH",
"394 755 OFFCURVE",
"390 753 OFFCURVE",
"386 753 CURVE SMOOTH",
"376 753 OFFCURVE",
"369 762 OFFCURVE",
"371 771 CURVE SMOOTH",
"372 776 OFFCURVE",
"377 781 OFFCURVE",
"381 784 CURVE SMOOTH",
"540 897 LINE SMOOTH",
"545 900 OFFCURVE",
"550 902 OFFCURVE",
"554 902 CURVE SMOOTH"
);
},
{
closed = 1;
nodes = (
"730 527 OFFCURVE",
"708 400 OFFCURVE",
"663 270 CURVE SMOOTH",
"608 110 OFFCURVE",
"502 0 OFFCURVE",
"329 0 CURVE SMOOTH",
"202.421 0 OFFCURVE",
"134.248 80.226 OFFCURVE",
"134.248 236.565 CURVE SMOOTH",
"134.248 275.374 OFFCURVE",
"138.449 318.873 OFFCURVE",
"147 367 CURVE",
"165 474 OFFCURVE",
"188 570 OFFCURVE",
"207 655 CURVE SMOOTH",
"210 671 OFFCURVE",
"218 681 OFFCURVE",
"232 681 CURVE SMOOTH",
"242.827 681 OFFCURVE",
"246.36 675.27 OFFCURVE",
"246.36 666.065 CURVE SMOOTH",
"246.36 662.516 OFFCURVE",
"245.835 658.452 OFFCURVE",
"245 654 CURVE",
"224 565 OFFCURVE",
"202 474 OFFCURVE",
"185 381 CURVE",
"177.612 338.151 OFFCURVE",
"171.622 290.063 OFFCURVE",
"171.622 243.574 CURVE SMOOTH",
"171.622 132.744 OFFCURVE",
"205.669 31 OFFCURVE",
"336 31 CURVE SMOOTH",
"496 31 OFFCURVE",
"583 139 OFFCURVE",
"628 277 CURVE SMOOTH",
"667 397 OFFCURVE",
"687 518 OFFCURVE",
"715 651 CURVE SMOOTH",
"718 667 OFFCURVE",
"722 681 OFFCURVE",
"740 681 CURVE SMOOTH",
"750.365 681 OFFCURVE",
"753.568 674.793 OFFCURVE",
"753.568 666.008 CURVE SMOOTH",
"753.568 662.08 OFFCURVE",
"752.927 657.635 OFFCURVE",
"752 653 CURVE SMOOTH"
);
}
);
userData = {
com.fontlab.hintData = {
hhints = (
{
position = 0;
width = 31;
},
{
position = 661;
width = 20;
}
);
vhints = (
{
position = 134;
width = 37;
},
{
position = 207;
width = 39;
}
);
};
};
width = 673;
}
);
unicode = 00DB;
},
{
glyphname = Udieresis;
layers = (
{
layerId = master01;
paths = (
{
closed = 1;
nodes = (
"464 771 OFFCURVE",
"442 755 OFFCURVE",
"419 755 CURVE SMOOTH",
"400.927 755 OFFCURVE",
"388.57 765.615 OFFCURVE",
"388.57 780.205 CURVE SMOOTH",
"388.57 803.005 OFFCURVE",
"414.791 820 OFFCURVE",
"439 820 CURVE SMOOTH",
"455.013 820 OFFCURVE",
"468.652 809.712 OFFCURVE",
"468.652 795.472 CURVE SMOOTH",
"468.652 793.705 OFFCURVE",
"468.442 791.877 OFFCURVE",
"468 790 CURVE SMOOTH"
);
},
{
closed = 1;
nodes = (
"628 771 OFFCURVE",
"606 755 OFFCURVE",
"583 755 CURVE SMOOTH",
"564.818 755 OFFCURVE",
"551.595 765.744 OFFCURVE",
"551.595 780.47 CURVE SMOOTH",
"551.595 803.124 OFFCURVE",
"578.918 820 OFFCURVE",
"603 820 CURVE SMOOTH",
"619.013 820 OFFCURVE",
"632.652 809.712 OFFCURVE",
"632.652 795.472 CURVE SMOOTH",
"632.652 793.705 OFFCURVE",
"632.442 791.877 OFFCURVE",
"632 790 CURVE SMOOTH"
);
},
{
closed = 1;
nodes = (
"730 527 OFFCURVE",
"708 400 OFFCURVE",
"663 270 CURVE SMOOTH",
"608 110 OFFCURVE",
"502 0 OFFCURVE",
"329 0 CURVE SMOOTH",
"202.421 0 OFFCURVE",
"134.248 80.226 OFFCURVE",
"134.248 236.565 CURVE SMOOTH",
"134.248 275.374 OFFCURVE",
"138.449 318.873 OFFCURVE",
"147 367 CURVE",
"165 474 OFFCURVE",
"188 570 OFFCURVE",
"207 655 CURVE SMOOTH",
"210 671 OFFCURVE",
"218 681 OFFCURVE",
"232 681 CURVE SMOOTH",
"242.827 681 OFFCURVE",
"246.36 675.27 OFFCURVE",
"246.36 666.065 CURVE SMOOTH",
"246.36 662.516 OFFCURVE",
"245.835 658.452 OFFCURVE",
"245 654 CURVE",
"224 565 OFFCURVE",
"202 474 OFFCURVE",
"185 381 CURVE",
"177.612 338.151 OFFCURVE",
"171.622 290.063 OFFCURVE",
"171.622 243.574 CURVE SMOOTH",
"171.622 132.744 OFFCURVE",
"205.669 31 OFFCURVE",
"336 31 CURVE SMOOTH",
"496 31 OFFCURVE",
"583 139 OFFCURVE",
"628 277 CURVE SMOOTH",
"667 397 OFFCURVE",
"687 518 OFFCURVE",
"715 651 CURVE SMOOTH",
"718 667 OFFCURVE",
"722 681 OFFCURVE",
"740 681 CURVE SMOOTH",
"750.365 681 OFFCURVE",
"753.568 674.793 OFFCURVE",
"753.568 666.008 CURVE SMOOTH",
"753.568 662.08 OFFCURVE",
"752.927 657.635 OFFCURVE",
"752 653 CURVE SMOOTH"
);
}
);
userData = {
com.fontlab.hintData = {
hhints = (
{
position = 0;
width = 31;
},
{
position = 661;
width = 20;
},
{
position = 755;
width = 65;
}
);
vhints = (
{
position = 134;
width = 37;
},
{
position = 207;
width = 39;
},
{
position = 389;
width = 80;
},
{
position = 552;
width = 81;
}
);
};
};
width = 673;
}
);
unicode = 00DC;
},
{
glyphname = Ugrave;
layers = (
{
layerId = master01;
paths = (
{
closed = 1;
nodes = (
"730 527 OFFCURVE",
"708 400 OFFCURVE",
"663 270 CURVE SMOOTH",
"608 110 OFFCURVE",
"502 0 OFFCURVE",
"329 0 CURVE SMOOTH",
"202.421 0 OFFCURVE",
"134.248 80.226 OFFCURVE",
"134.248 236.565 CURVE SMOOTH",
"134.248 275.374 OFFCURVE",
"138.449 318.873 OFFCURVE",
"147 367 CURVE",
"165 474 OFFCURVE",
"188 570 OFFCURVE",
"207 655 CURVE SMOOTH",
"210 671 OFFCURVE",
"218 681 OFFCURVE",
"232 681 CURVE SMOOTH",
"242.827 681 OFFCURVE",
"246.36 675.27 OFFCURVE",
"246.36 666.065 CURVE SMOOTH",
"246.36 662.516 OFFCURVE",
"245.835 658.452 OFFCURVE",
"245 654 CURVE",
"224 565 OFFCURVE",
"202 474 OFFCURVE",
"185 381 CURVE",
"177.612 338.151 OFFCURVE",
"171.622 290.063 OFFCURVE",
"171.622 243.574 CURVE SMOOTH",
"171.622 132.744 OFFCURVE",
"205.669 31 OFFCURVE",
"336 31 CURVE SMOOTH",
"496 31 OFFCURVE",
"583 139 OFFCURVE",
"628 277 CURVE SMOOTH",
"667 397 OFFCURVE",
"687 518 OFFCURVE",
"715 651 CURVE SMOOTH",
"718 667 OFFCURVE",
"722 681 OFFCURVE",
"740 681 CURVE SMOOTH",
"750.365 681 OFFCURVE",
"753.568 674.793 OFFCURVE",
"753.568 666.008 CURVE SMOOTH",
"753.568 662.08 OFFCURVE",
"752.927 657.635 OFFCURVE",
"752 653 CURVE SMOOTH"
);
},
{
closed = 1;
nodes = (
"564 765 LINE SMOOTH",
"567 760 OFFCURVE",
"568 756 OFFCURVE",
"567 752 CURVE SMOOTH",
"565 742 OFFCURVE",
"554 736 OFFCURVE",
"545 736 CURVE SMOOTH",
"541 736 OFFCURVE",
"536 738 OFFCURVE",
"533 742 CURVE SMOOTH",
"437 868 LINE SMOOTH",
"433 874 OFFCURVE",
"432 880 OFFCURVE",
"433 887 CURVE SMOOTH",
"436 901 OFFCURVE",
"451 912 OFFCURVE",
"465 912 CURVE SMOOTH",
"473 912 OFFCURVE",
"480 909 OFFCURVE",
"484 901 CURVE SMOOTH"
);
}
);
userData = {
com.fontlab.hintData = {
hhints = (
{
position = 0;
width = 31;
},
{
position = 661;
width = 20;
}
);
vhints = (
{
position = 134;
width = 37;
},
{
position = 207;
width = 39;
}
);
};
};
width = 673;
}
);
unicode = 00D9;
},
{
glyphname = Uhungarumlaut;
layers = (
{
layerId = master01;
paths = (
{
closed = 1;
nodes = (
"730 527 OFFCURVE",
"708 400 OFFCURVE",
"663 270 CURVE SMOOTH",
"608 110 OFFCURVE",
"502 0 OFFCURVE",
"329 0 CURVE SMOOTH",
"202.421 0 OFFCURVE",
"134.248 80.226 OFFCURVE",
"134.248 236.565 CURVE SMOOTH",
"134.248 275.374 OFFCURVE",
"138.449 318.873 OFFCURVE",
"147 367 CURVE",
"165 474 OFFCURVE",
"188 570 OFFCURVE",
"207 655 CURVE SMOOTH",
"210 671 OFFCURVE",
"218 681 OFFCURVE",
"232 681 CURVE SMOOTH",
"242.827 681 OFFCURVE",
"246.36 675.27 OFFCURVE",
"246.36 666.065 CURVE SMOOTH",
"246.36 662.516 OFFCURVE",
"245.835 658.452 OFFCURVE",
"245 654 CURVE",
"224 565 OFFCURVE",
"202 474 OFFCURVE",
"185 381 CURVE",
"177.612 338.151 OFFCURVE",
"171.622 290.063 OFFCURVE",
"171.622 243.574 CURVE SMOOTH",
"171.622 132.744 OFFCURVE",
"205.669 31 OFFCURVE",
"336 31 CURVE SMOOTH",
"496 31 OFFCURVE",
"583 139 OFFCURVE",
"628 277 CURVE SMOOTH",
"667 397 OFFCURVE",
"687 518 OFFCURVE",
"715 651 CURVE SMOOTH",
"718 667 OFFCURVE",
"722 681 OFFCURVE",
"740 681 CURVE SMOOTH",
"750.365 681 OFFCURVE",
"753.568 674.793 OFFCURVE",
"753.568 666.008 CURVE SMOOTH",
"753.568 662.08 OFFCURVE",
"752.927 657.635 OFFCURVE",
"752 653 CURVE SMOOTH"
);
},
{
closed = 1;
nodes = (
"394 748 LINE SMOOTH",
"388 744 OFFCURVE",
"381 741 OFFCURVE",
"377 741 CURVE SMOOTH",
"368 741 OFFCURVE",
"362 749 OFFCURVE",
"364 758 CURVE SMOOTH",
"364 761 OFFCURVE",
"365 766 OFFCURVE",
"375 773 CURVE SMOOTH",
"522 875 LINE SMOOTH",
"531 881 OFFCURVE",
"541 889 OFFCURVE",
"549 889 CURVE SMOOTH",
"560.427 889 OFFCURVE",
"569.536 878.956 OFFCURVE",
"569.536 867.018 CURVE SMOOTH",
"569.536 865.374 OFFCURVE",
"569.363 863.694 OFFCURVE",
"569 862 CURVE SMOOTH",
"567 856 OFFCURVE",
"566 851 OFFCURVE",
"558 846 CURVE SMOOTH"
);
},
{
closed = 1;
nodes = (
"560 748 LINE",
"555 744 OFFCURVE",
"548 741 OFFCURVE",
"544 741 CURVE SMOOTH",
"534 741 OFFCURVE",
"529 749 OFFCURVE",
"531 758 CURVE SMOOTH",
"531 761 OFFCURVE",
"532 766 OFFCURVE",
"541 772 CURVE SMOOTH",
"688 875 LINE",
"698 881 OFFCURVE",
"708 889 OFFCURVE",
"715 889 CURVE SMOOTH",
"727.181 889 OFFCURVE",
"735.577 879.159 OFFCURVE",
"735.577 867.38 CURVE SMOOTH",
"735.577 865.621 OFFCURVE",
"735.39 863.819 OFFCURVE",
"735 862 CURVE SMOOTH",
"733 856 OFFCURVE",
"731 849 OFFCURVE",
"719 842 CURVE SMOOTH"
);
}
);
userData = {
com.fontlab.hintData = {
hhints = (
{
position = 0;
width = 31;
},
{
position = 661;
width = 20;
}
);
vhints = (
{
position = 134;
width = 37;
},
{
position = 207;
width = 39;
}
);
};
};
width = 673;
}
);
unicode = 0170;
},
{
glyphname = Uring;
layers = (
{
layerId = master01;
paths = (
{
closed = 1;
nodes = (
"730 527 OFFCURVE",
"708 400 OFFCURVE",
"663 270 CURVE SMOOTH",
"608 110 OFFCURVE",
"502 0 OFFCURVE",
"329 0 CURVE SMOOTH",
"202.421 0 OFFCURVE",
"134.248 80.226 OFFCURVE",
"134.248 236.565 CURVE SMOOTH",
"134.248 275.374 OFFCURVE",
"138.449 318.873 OFFCURVE",
"147 367 CURVE",
"165 474 OFFCURVE",
"188 570 OFFCURVE",
"207 655 CURVE SMOOTH",
"210 671 OFFCURVE",
"218 681 OFFCURVE",
"232 681 CURVE SMOOTH",
"242.827 681 OFFCURVE",
"246.36 675.27 OFFCURVE",
"246.36 666.065 CURVE SMOOTH",
"246.36 662.516 OFFCURVE",
"245.835 658.452 OFFCURVE",
"245 654 CURVE",
"224 565 OFFCURVE",
"202 474 OFFCURVE",
"185 381 CURVE",
"177.612 338.151 OFFCURVE",
"171.622 290.063 OFFCURVE",
"171.622 243.574 CURVE SMOOTH",
"171.622 132.744 OFFCURVE",
"205.669 31 OFFCURVE",
"336 31 CURVE SMOOTH",
"496 31 OFFCURVE",
"583 139 OFFCURVE",
"628 277 CURVE SMOOTH",
"667 397 OFFCURVE",
"687 518 OFFCURVE",
"715 651 CURVE SMOOTH",
"718 667 OFFCURVE",
"722 681 OFFCURVE",
"740 681 CURVE SMOOTH",
"750.365 681 OFFCURVE",
"753.568 674.793 OFFCURVE",
"753.568 666.008 CURVE SMOOTH",
"753.568 662.08 OFFCURVE",
"752.927 657.635 OFFCURVE",
"752 653 CURVE SMOOTH"
);
},
{
closed = 1;
nodes = (
"446.209 743 OFFCURVE",
"409.829 775.364 OFFCURVE",
"409.829 819.122 CURVE SMOOTH",
"409.829 825.213 OFFCURVE",
"410.534 831.524 OFFCURVE",
"412 838 CURVE",
"425 902 OFFCURVE",
"500 948 OFFCURVE",
"565 948 CURVE SMOOTH",
"614.836 948 OFFCURVE",
"652.792 914.738 OFFCURVE",
"652.792 869.357 CURVE SMOOTH",
"652.792 863.743 OFFCURVE",
"652.211 857.944 OFFCURVE",
"651 852 CURVE SMOOTH",
"637 787 OFFCURVE",
"562 743 OFFCURVE",
"498 743 CURVE SMOOTH"
);
},
{
closed = 1;
nodes = (
"493 920 OFFCURVE",
"442 873 OFFCURVE",
"435 838 CURVE",
"433.849 833.051 OFFCURVE",
"433.294 828.341 OFFCURVE",
"433.294 823.88 CURVE SMOOTH",
"433.294 789.577 OFFCURVE",
"466.099 770 OFFCURVE",
"513 770 CURVE SMOOTH",
"553 770 OFFCURVE",
"617 801 OFFCURVE",
"627 850 CURVE SMOOTH",
"627.864 853.781 OFFCURVE",
"628.285 857.562 OFFCURVE",
"628.285 861.299 CURVE SMOOTH",
"628.285 892.153 OFFCURVE",
"599.599 920 OFFCURVE",
"555 920 CURVE SMOOTH"
);
}
);
userData = {
com.fontlab.hintData = {
hhints = (
{
position = 0;
width = 31;
},
{
position = 661;
width = 20;
},
{
position = 743;
width = 27;
},
{
position = 920;
width = 28;
}
);
vhints = (
{
position = 134;
width = 37;
},
{
position = 207;
width = 39;
},
{
position = 410;
width = 23;
},
{
position = 628;
width = 25;
}
);
};
};
width = 673;
}
);
unicode = 016E;
},
{
glyphname = V;
layers = (
{
layerId = master01;
paths = (
{
closed = 1;
nodes = (
"241 0 OFFCURVE",
"233 3 OFFCURVE",
"232 12 CURVE SMOOTH",
"153 650 LINE SMOOTH",
"153 654 OFFCURVE",
"153 659 OFFCURVE",
"153 662 CURVE SMOOTH",
"155 672 OFFCURVE",
"164 680 OFFCURVE",
"176 680 CURVE SMOOTH",
"185 680 OFFCURVE",
"190 676 OFFCURVE",
"191 668 CURVE SMOOTH",
"266 74 LINE",
"626 669 LINE SMOOTH",
"630 676 OFFCURVE",
"637 680 OFFCURVE",
"645 680 CURVE SMOOTH",
"655 680 OFFCURVE",
"664 674 OFFCURVE",
"662 664 CURVE SMOOTH",
"660 658 OFFCURVE",
"659 655 OFFCURVE",
"657 652 CURVE SMOOTH",
"268 12 LINE SMOOTH",
"263 4 OFFCURVE",
"257 0 OFFCURVE",
"249 0 CURVE SMOOTH"
);
}
);
userData = {
com.fontlab.hintData = {
hhints = (
{
position = 0;
width = 21;
}
);
vhints = (
{
position = 153;
width = 38;
}
);
};
};
width = 525;
}
);
unicode = 0056;
},
{
glyphname = W;
layers = (
{
layerId = master01;
paths = (
{
closed = 1;
nodes = (
"240 78 LINE",
"557 669 LINE SMOOTH",
"561 677 OFFCURVE",
"569 681 OFFCURVE",
"577 681 CURVE SMOOTH",
"585 681 OFFCURVE",
"590 676 OFFCURVE",
"590 668 CURVE SMOOTH",
"627 79 LINE",
"964 667 LINE SMOOTH",
"970 677 OFFCURVE",
"977 681 OFFCURVE",
"986 681 CURVE SMOOTH",
"998 681 OFFCURVE",
"1002 672 OFFCURVE",
"1001 665 CURVE SMOOTH",
"1000 660 OFFCURVE",
"998 656 OFFCURVE",
"996 653 CURVE SMOOTH",
"629 11 LINE SMOOTH",
"626 5 OFFCURVE",
"619 0 OFFCURVE",
"610 0 CURVE SMOOTH",
"600 0 OFFCURVE",
"594 4 OFFCURVE",
"594 12 CURVE SMOOTH",
"557 601 LINE",
"243 12 LINE SMOOTH",
"238 3 OFFCURVE",
"232 0 OFFCURVE",
"223 0 CURVE SMOOTH",
"216 0 OFFCURVE",
"209 4 OFFCURVE",
"209 12 CURVE",
"151 644 LINE SMOOTH",
"150 657 OFFCURVE",
"150 661 OFFCURVE",
"151 664 CURVE SMOOTH",
"153 674 OFFCURVE",
"162 681 OFFCURVE",
"172 681 CURVE SMOOTH",
"181 681 OFFCURVE",
"186 676 OFFCURVE",
"186 668 CURVE"
);
}
);
userData = {
com.fontlab.hintData = {
hhints = (
{
position = 0;
width = 21;
},
{
position = 661;
width = 20;
}
);
vhints = (
{
position = 151;
width = 35;
},
{
position = 964;
width = 37;
}
);
};
};
width = 857;
}
);
unicode = 0057;
},
{
glyphname = X;
layers = (
{
layerId = master01;
paths = (
{
closed = 1;
nodes = (
"411 316 LINE",
"86 6 LINE SMOOTH",
"82 2 OFFCURVE",
"76 0 OFFCURVE",
"71 0 CURVE SMOOTH",
"60 0 OFFCURVE",
"53 9 OFFCURVE",
"56 19 CURVE",
"56 23 OFFCURVE",
"59 28 OFFCURVE",
"63 31 CURVE SMOOTH",
"395 346 LINE",
"216 651 LINE SMOOTH",
"215 654 OFFCURVE",
"213 659 OFFCURVE",
"214 664 CURVE SMOOTH",
"216 673 OFFCURVE",
"227 681 OFFCURVE",
"237 681 CURVE SMOOTH",
"242 681 OFFCURVE",
"247 680 OFFCURVE",
"250 675 CURVE SMOOTH",
"424 375 LINE",
"740 675 LINE SMOOTH",
"745 680 OFFCURVE",
"750 681 OFFCURVE",
"755 681 CURVE SMOOTH",
"765 681 OFFCURVE",
"773 673 OFFCURVE",
"771 664 CURVE SMOOTH",
"770 659 OFFCURVE",
"768 655 OFFCURVE",
"763 650 CURVE SMOOTH",
"442 345 LINE",
"626 30 LINE SMOOTH",
"627 27 OFFCURVE",
"627 23 OFFCURVE",
"627 19 CURVE",
"624 8 OFFCURVE",
"615 0 OFFCURVE",
"606 0 CURVE SMOOTH",
"601 0 OFFCURVE",
"596 1 OFFCURVE",
"593 6 CURVE SMOOTH"
);
}
);
userData = {
com.fontlab.hintData = {
hhints = (
{
position = 0;
width = 21;
},
{
position = 661;
width = 20;
}
);
};
};
width = 671;
}
);
unicode = 0058;
},
{
glyphname = Y;
layers = (
{
layerId = master01;
paths = (
{
closed = 1;
nodes = (
"725 681 OFFCURVE",
"733 674 OFFCURVE",
"731 664 CURVE SMOOTH",
"730 660 OFFCURVE",
"728 656 OFFCURVE",
"720 646 CURVE SMOOTH",
"206 9 LINE SMOOTH",
"201 2 OFFCURVE",
"196 0 OFFCURVE",
"191 0 CURVE SMOOTH",
"179 0 OFFCURVE",
"172 9 OFFCURVE",
"174 17 CURVE SMOOTH",
"175 23 OFFCURVE",
"178 27 OFFCURVE",
"182 32 CURVE SMOOTH",
"326 210 LINE",
"163 649 LINE SMOOTH",
"162 653 OFFCURVE",
"161 659 OFFCURVE",
"162 664 CURVE SMOOTH",
"164 675 OFFCURVE",
"175 681 OFFCURVE",
"185 681 CURVE SMOOTH",
"190 681 OFFCURVE",
"196 678 OFFCURVE",
"197 672 CURVE",
"356 246 LINE",
"698 672 LINE SMOOTH",
"703 678 OFFCURVE",
"709 681 OFFCURVE",
"715 681 CURVE SMOOTH"
);
}
);
userData = {
com.fontlab.hintData = {
hhints = (
{
position = 0;
width = 21;
},
{
position = 661;
width = 20;
}
);
vhints = (
{
position = 162;
width = 35;
}
);
};
};
width = 583;
}
);
unicode = 0059;
},
{
glyphname = Yacute;
layers = (
{
layerId = master01;
paths = (
{
closed = 1;
nodes = (
"725 681 OFFCURVE",
"733 674 OFFCURVE",
"731 664 CURVE SMOOTH",
"730 660 OFFCURVE",
"728 656 OFFCURVE",
"720 646 CURVE SMOOTH",
"206 9 LINE SMOOTH",
"201 2 OFFCURVE",
"196 0 OFFCURVE",
"191 0 CURVE SMOOTH",
"179 0 OFFCURVE",
"172 9 OFFCURVE",
"174 17 CURVE SMOOTH",
"175 23 OFFCURVE",
"178 27 OFFCURVE",
"182 32 CURVE SMOOTH",
"326 210 LINE",
"163 649 LINE SMOOTH",
"162 653 OFFCURVE",
"161 659 OFFCURVE",
"162 664 CURVE SMOOTH",
"164 675 OFFCURVE",
"175 681 OFFCURVE",
"185 681 CURVE SMOOTH",
"190 681 OFFCURVE",
"196 678 OFFCURVE",
"197 672 CURVE",
"356 246 LINE",
"698 672 LINE SMOOTH",
"703 678 OFFCURVE",
"709 681 OFFCURVE",
"715 681 CURVE SMOOTH"
);
},
{
closed = 1;
nodes = (
"418 759 LINE SMOOTH",
"410 754 OFFCURVE",
"404 752 OFFCURVE",
"400 752 CURVE SMOOTH",
"391 752 OFFCURVE",
"385 760 OFFCURVE",
"387 769 CURVE SMOOTH",
"388 772 OFFCURVE",
"389 777 OFFCURVE",
"396 782 CURVE SMOOTH",
"546 886 LINE SMOOTH",
"556 893 OFFCURVE",
"565 900 OFFCURVE",
"575 900 CURVE SMOOTH",
"584.655 900 OFFCURVE",
"593.539 889.985 OFFCURVE",
"593.539 878.069 CURVE SMOOTH",
"593.539 876.409 OFFCURVE",
"593.367 874.712 OFFCURVE",
"593 873 CURVE SMOOTH",
"592 866 OFFCURVE",
"590 862 OFFCURVE",
"582 857 CURVE SMOOTH"
);
}
);
userData = {
com.fontlab.hintData = {
hhints = (
{
position = 0;
width = 21;
},
{
position = 661;
width = 20;
}
);
vhints = (
{
position = 162;
width = 35;
}
);
};
};
width = 583;
}
);
unicode = 00DD;
},
{
glyphname = Ydieresis;
layers = (
{
layerId = master01;
paths = (
{
closed = 1;
nodes = (
"421 760 OFFCURVE",
"400 745 OFFCURVE",
"376 745 CURVE SMOOTH",
"358.311 745 OFFCURVE",
"345.316 754.387 OFFCURVE",
"345.316 769.009 CURVE SMOOTH",
"345.316 770.92 OFFCURVE",
"345.538 772.92 OFFCURVE",
"346 775 CURVE SMOOTH",
"350 793 OFFCURVE",
"373 810 OFFCURVE",
"396 810 CURVE SMOOTH",
"412.797 810 OFFCURVE",
"425.686 799.059 OFFCURVE",
"425.686 785.467 CURVE SMOOTH",
"425.686 783.684 OFFCURVE",
"425.464 781.855 OFFCURVE",
"425 780 CURVE SMOOTH"
);
},
{
closed = 1;
nodes = (
"585 760 OFFCURVE",
"564 745 OFFCURVE",
"540 745 CURVE SMOOTH",
"522.311 745 OFFCURVE",
"509.316 754.387 OFFCURVE",
"509.316 769.009 CURVE SMOOTH",
"509.316 770.92 OFFCURVE",
"509.538 772.92 OFFCURVE",
"510 775 CURVE SMOOTH",
"514 793 OFFCURVE",
"536 810 OFFCURVE",
"560 810 CURVE SMOOTH",
"576.797 810 OFFCURVE",
"589.686 799.059 OFFCURVE",
"589.686 785.467 CURVE SMOOTH",
"589.686 783.684 OFFCURVE",
"589.464 781.855 OFFCURVE",
"589 780 CURVE SMOOTH"
);
},
{
closed = 1;
nodes = (
"725 681 OFFCURVE",
"733 674 OFFCURVE",
"731 664 CURVE SMOOTH",
"730 660 OFFCURVE",
"728 656 OFFCURVE",
"720 646 CURVE SMOOTH",
"206 9 LINE SMOOTH",
"201 2 OFFCURVE",
"196 0 OFFCURVE",
"191 0 CURVE SMOOTH",
"179 0 OFFCURVE",
"172 9 OFFCURVE",
"174 17 CURVE SMOOTH",
"175 23 OFFCURVE",
"178 27 OFFCURVE",
"182 32 CURVE SMOOTH",
"326 210 LINE",
"163 649 LINE SMOOTH",
"162 653 OFFCURVE",
"161 659 OFFCURVE",
"162 664 CURVE SMOOTH",
"164 675 OFFCURVE",
"175 681 OFFCURVE",
"185 681 CURVE SMOOTH",
"190 681 OFFCURVE",
"196 678 OFFCURVE",
"197 672 CURVE",
"356 246 LINE",
"698 672 LINE SMOOTH",
"703 678 OFFCURVE",
"709 681 OFFCURVE",
"715 681 CURVE SMOOTH"
);
}
);
userData = {
com.fontlab.hintData = {
hhints = (
{
position = 0;
width = 21;
},
{
position = 661;
width = 20;
},
{
position = 745;
width = 65;
}
);
vhints = (
{
position = 162;
width = 35;
},
{
position = 345;
width = 80;
},
{
position = 509;
width = 80;
}
);
};
};
width = 583;
}
);
unicode = 0178;
},
{
glyphname = Z;
layers = (
{
layerId = master01;
paths = (
{
closed = 1;
nodes = (
"558 41 LINE SMOOTH",
"568 41 OFFCURVE",
"575 32 OFFCURVE",
"573 21 CURVE SMOOTH",
"570 9 OFFCURVE",
"560 0 OFFCURVE",
"550 0 CURVE SMOOTH",
"74 0 LINE SMOOTH",
"62.218 0 OFFCURVE",
"53.722 6.571 OFFCURVE",
"53.722 18.224 CURVE SMOOTH",
"53.722 26.968 OFFCURVE",
"58.151 34.151 OFFCURVE",
"64 40 CURVE SMOOTH",
"673 638 LINE",
"222 638 LINE SMOOTH",
"212 638 OFFCURVE",
"204 647 OFFCURVE",
"207 659 CURVE SMOOTH",
"209 671 OFFCURVE",
"221 680 OFFCURVE",
"231 680 CURVE SMOOTH",
"707 680 LINE SMOOTH",
"718.301 680 OFFCURVE",
"726.579 672.443 OFFCURVE",
"726.579 661.928 CURVE SMOOTH",
"726.579 660.347 OFFCURVE",
"726.392 658.699 OFFCURVE",
"726 657 CURVE SMOOTH",
"725 652 OFFCURVE",
"721 645 OFFCURVE",
"717 641 CURVE SMOOTH",
"106 41 LINE"
);
}
);
userData = {
com.fontlab.hintData = {
hhints = (
{
position = 0;
width = 41;
},
{
position = 638;
width = 42;
}
);
};
};
width = 629;
}
);
unicode = 005A;
},
{
glyphname = Zacute;
layers = (
{
layerId = master01;
paths = (
{
closed = 1;
nodes = (
"558 41 LINE SMOOTH",
"568 41 OFFCURVE",
"575 32 OFFCURVE",
"573 21 CURVE SMOOTH",
"570 9 OFFCURVE",
"560 0 OFFCURVE",
"550 0 CURVE SMOOTH",
"74 0 LINE SMOOTH",
"62.218 0 OFFCURVE",
"53.722 6.571 OFFCURVE",
"53.722 18.224 CURVE SMOOTH",
"53.722 26.968 OFFCURVE",
"58.151 34.151 OFFCURVE",
"64 40 CURVE SMOOTH",
"673 638 LINE",
"222 638 LINE SMOOTH",
"212 638 OFFCURVE",
"204 647 OFFCURVE",
"207 659 CURVE SMOOTH",
"209 671 OFFCURVE",
"221 680 OFFCURVE",
"231 680 CURVE SMOOTH",
"707 680 LINE SMOOTH",
"718.301 680 OFFCURVE",
"726.579 672.443 OFFCURVE",
"726.579 661.928 CURVE SMOOTH",
"726.579 660.347 OFFCURVE",
"726.392 658.699 OFFCURVE",
"726 657 CURVE SMOOTH",
"725 652 OFFCURVE",
"721 645 OFFCURVE",
"717 641 CURVE SMOOTH",
"106 41 LINE"
);
},
{
closed = 1;
nodes = (
"450 759 LINE SMOOTH",
"442 754 OFFCURVE",
"436 752 OFFCURVE",
"432 752 CURVE SMOOTH",
"423 752 OFFCURVE",
"417 760 OFFCURVE",
"419 769 CURVE SMOOTH",
"420 772 OFFCURVE",
"421 777 OFFCURVE",
"428 782 CURVE SMOOTH",
"578 886 LINE SMOOTH",
"588 893 OFFCURVE",
"597 900 OFFCURVE",
"607 900 CURVE SMOOTH",
"616.655 900 OFFCURVE",
"625.539 889.985 OFFCURVE",
"625.539 878.069 CURVE SMOOTH",
"625.539 876.409 OFFCURVE",
"625.367 874.712 OFFCURVE",
"625 873 CURVE SMOOTH",
"624 866 OFFCURVE",
"622 862 OFFCURVE",
"614 857 CURVE SMOOTH"
);
}
);
userData = {
com.fontlab.hintData = {
hhints = (
{
position = 0;
width = 41;
},
{
position = 638;
width = 42;
}
);
};
};
width = 629;
}
);
unicode = 0179;
},
{
glyphname = Zcaron;
layers = (
{
layerId = master01;
paths = (
{
closed = 1;
nodes = (
"558 41 LINE SMOOTH",
"568 41 OFFCURVE",
"575 32 OFFCURVE",
"573 21 CURVE SMOOTH",
"570 9 OFFCURVE",
"560 0 OFFCURVE",
"550 0 CURVE SMOOTH",
"74 0 LINE SMOOTH",
"62.218 0 OFFCURVE",
"53.722 6.571 OFFCURVE",
"53.722 18.224 CURVE SMOOTH",
"53.722 26.968 OFFCURVE",
"58.151 34.151 OFFCURVE",
"64 40 CURVE SMOOTH",
"673 638 LINE",
"222 638 LINE SMOOTH",
"212 638 OFFCURVE",
"204 647 OFFCURVE",
"207 659 CURVE SMOOTH",
"209 671 OFFCURVE",
"221 680 OFFCURVE",
"231 680 CURVE SMOOTH",
"707 680 LINE SMOOTH",
"718.301 680 OFFCURVE",
"726.579 672.443 OFFCURVE",
"726.579 661.928 CURVE SMOOTH",
"726.579 660.347 OFFCURVE",
"726.392 658.699 OFFCURVE",
"726 657 CURVE SMOOTH",
"725 652 OFFCURVE",
"721 645 OFFCURVE",
"717 641 CURVE SMOOTH",
"106 41 LINE"
);
},
{
closed = 1;
nodes = (
"464 743 OFFCURVE",
"459 745 OFFCURVE",
"456 749 CURVE SMOOTH",
"368 862 LINE SMOOTH",
"365 866 OFFCURVE",
"363 869 OFFCURVE",
"364 874 CURVE SMOOTH",
"366 883 OFFCURVE",
"376 892 OFFCURVE",
"385 892 CURVE SMOOTH",
"390 892 OFFCURVE",
"394 890 OFFCURVE",
"397 887 CURVE SMOOTH",
"482 792 LINE",
"626 888 LINE SMOOTH",
"630 890 OFFCURVE",
"634 892 OFFCURVE",
"638 892 CURVE SMOOTH",
"648 892 OFFCURVE",
"654 883 OFFCURVE",
"652 874 CURVE SMOOTH",
"651 869 OFFCURVE",
"647 864 OFFCURVE",
"643 861 CURVE SMOOTH",
"483 748 LINE SMOOTH",
"479 745 OFFCURVE",
"473 743 OFFCURVE",
"469 743 CURVE SMOOTH"
);
}
);
userData = {
com.fontlab.hintData = {
hhints = (
{
position = 0;
width = 41;
},
{
position = 638;
width = 42;
}
);
};
};
width = 629;
}
);
unicode = 017D;
},
{
glyphname = Zdotaccent;
layers = (
{
layerId = master01;
paths = (
{
closed = 1;
nodes = (
"536 771 OFFCURVE",
"515 755 OFFCURVE",
"491 755 CURVE SMOOTH",
"473.732 755 OFFCURVE",
"460.594 765.738 OFFCURVE",
"460.594 780.457 CURVE SMOOTH",
"460.594 803.066 OFFCURVE",
"487.925 820 OFFCURVE",
"511 820 CURVE SMOOTH",
"527.797 820 OFFCURVE",
"540.686 809.84 OFFCURVE",
"540.686 795.739 CURVE SMOOTH",
"540.686 793.889 OFFCURVE",
"540.464 791.971 OFFCURVE",
"540 790 CURVE SMOOTH"
);
},
{
closed = 1;
nodes = (
"558 41 LINE SMOOTH",
"568 41 OFFCURVE",
"575 32 OFFCURVE",
"573 21 CURVE SMOOTH",
"570 9 OFFCURVE",
"560 0 OFFCURVE",
"550 0 CURVE SMOOTH",
"74 0 LINE SMOOTH",
"62.218 0 OFFCURVE",
"53.722 6.571 OFFCURVE",
"53.722 18.224 CURVE SMOOTH",
"53.722 26.968 OFFCURVE",
"58.151 34.151 OFFCURVE",
"64 40 CURVE SMOOTH",
"673 638 LINE",
"222 638 LINE SMOOTH",
"212 638 OFFCURVE",
"204 647 OFFCURVE",
"207 659 CURVE SMOOTH",
"209 671 OFFCURVE",
"221 680 OFFCURVE",
"231 680 CURVE SMOOTH",
"707 680 LINE SMOOTH",
"718.301 680 OFFCURVE",
"726.579 672.443 OFFCURVE",
"726.579 661.928 CURVE SMOOTH",
"726.579 660.347 OFFCURVE",
"726.392 658.699 OFFCURVE",
"726 657 CURVE SMOOTH",
"725 652 OFFCURVE",
"721 645 OFFCURVE",
"717 641 CURVE SMOOTH",
"106 41 LINE"
);
}
);
userData = {
com.fontlab.hintData = {
hhints = (
{
position = 0;
width = 41;
},
{
position = 638;
width = 42;
},
{
position = 755;
width = 65;
}
);
vhints = (
{
position = 461;
width = 80;
}
);
};
};
width = 629;
}
);
unicode = 017B;
},
{
glyphname = uni0162;
layers = (
{
layerId = master01;
paths = (
{
closed = 1;
nodes = (
"221 -113 LINE",
"214 -105 OFFCURVE",
"212 -94 OFFCURVE",
"213 -85 CURVE",
"218 -65 OFFCURVE",
"236 -49 OFFCURVE",
"252 -49 CURVE SMOOTH",
"263.156 -49 OFFCURVE",
"270.63 -57.837 OFFCURVE",
"270.63 -67.296 CURVE SMOOTH",
"270.63 -68.859 OFFCURVE",
"270.426 -70.44 OFFCURVE",
"270 -72 CURVE SMOOTH",
"266 -90 OFFCURVE",
"262 -97 OFFCURVE",
"239 -135 CURVE SMOOTH",
"214 -175 OFFCURVE",
"197 -204 OFFCURVE",
"186 -204 CURVE SMOOTH",
"179 -204 OFFCURVE",
"174 -199 OFFCURVE",
"175 -194 CURVE SMOOTH",
"176 -191 OFFCURVE",
"176 -189 OFFCURVE",
"179 -184 CURVE SMOOTH"
);
},
{
closed = 1;
nodes = (
"634 681 LINE SMOOTH",
"644 681 OFFCURVE",
"652 673 OFFCURVE",
"649 662 CURVE SMOOTH",
"647 652 OFFCURVE",
"636 644 OFFCURVE",
"626 644 CURVE SMOOTH",
"407 644 LINE",
"275 19 LINE",
"272 8 OFFCURVE",
"263 0 OFFCURVE",
"253 0 CURVE SMOOTH",
"242 0 OFFCURVE",
"235 8 OFFCURVE",
"238 19 CURVE",
"370 644 LINE",
"166 644 LINE SMOOTH",
"156 644 OFFCURVE",
"149 652 OFFCURVE",
"151 662 CURVE SMOOTH",
"154 673 OFFCURVE",
"164 681 OFFCURVE",
"174 681 CURVE SMOOTH"
);
}
);
userData = {
com.fontlab.hintData = {
hhints = (
{
position = -204;
width = 21;
},
{
position = 0;
width = 21;
},
{
position = 644;
width = 37;
}
);
vhints = (
{
position = 213;
width = 58;
}
);
};
};
width = 512;
}
);
unicode = 0162;
},
{
glyphname = a;
layers = (
{
layerId = master01;
paths = (
{
closed = 1;
nodes = (
"442 21 LINE SMOOTH",
"439 9 OFFCURVE",
"430 0 OFFCURVE",
"419 0 CURVE SMOOTH",
"408.714 0 OFFCURVE",
"403.571 7.347 OFFCURVE",
"403.571 17.633 CURVE SMOOTH",
"403.571 19.347 OFFCURVE",
"403.714 21.143 OFFCURVE",
"404 23 CURVE",
"414 66 LINE",
"365 39 OFFCURVE",
"294 8 OFFCURVE",
"239 8 CURVE SMOOTH",
"149.921 8 OFFCURVE",
"92.622 69.441 OFFCURVE",
"92.622 165.022 CURVE SMOOTH",
"92.622 183.178 OFFCURVE",
"94.69 202.567 OFFCURVE",
"99 223 CURVE SMOOTH",
"121 327 OFFCURVE",
"226 515 OFFCURVE",
"400 515 CURVE SMOOTH",
"461 515 OFFCURVE",
"516 489 OFFCURVE",
"539 476 CURVE"
);
},
{
closed = 1;
nodes = (
"498 452 LINE",
"478 463 OFFCURVE",
"432 478 OFFCURVE",
"395 478 CURVE SMOOTH",
"245 478 OFFCURVE",
"158 316 OFFCURVE",
"138 225 CURVE SMOOTH",
"134.648 208.866 OFFCURVE",
"132.7 191.591 OFFCURVE",
"132.7 174.361 CURVE SMOOTH",
"132.7 109.359 OFFCURVE",
"160.419 45 OFFCURVE",
"245 45 CURVE SMOOTH",
"310 45 OFFCURVE",
"391 93 OFFCURVE",
"421 110 CURVE"
);
}
);
userData = {
com.fontlab.hintData = {
hhints = (
{
position = 8;
width = 37;
},
{
position = 478;
width = 37;
}
);
vhints = (
{
position = 93;
width = 40;
}
);
};
};
width = 495;
}
);
unicode = 0061;
},
{
glyphname = aacute;
layers = (
{
layerId = master01;
paths = (
{
closed = 1;
nodes = (
"442 21 LINE SMOOTH",
"439 9 OFFCURVE",
"430 0 OFFCURVE",
"419 0 CURVE SMOOTH",
"408.714 0 OFFCURVE",
"403.571 7.347 OFFCURVE",
"403.571 17.633 CURVE SMOOTH",
"403.571 19.347 OFFCURVE",
"403.714 21.143 OFFCURVE",
"404 23 CURVE",
"414 66 LINE",
"365 39 OFFCURVE",
"294 8 OFFCURVE",
"239 8 CURVE SMOOTH",
"149.921 8 OFFCURVE",
"92.622 69.441 OFFCURVE",
"92.622 165.022 CURVE SMOOTH",
"92.622 183.178 OFFCURVE",
"94.69 202.567 OFFCURVE",
"99 223 CURVE SMOOTH",
"121 327 OFFCURVE",
"226 515 OFFCURVE",
"400 515 CURVE SMOOTH",
"461 515 OFFCURVE",
"516 489 OFFCURVE",
"539 476 CURVE"
);
},
{
closed = 1;
nodes = (
"498 452 LINE",
"478 463 OFFCURVE",
"432 478 OFFCURVE",
"395 478 CURVE SMOOTH",
"245 478 OFFCURVE",
"158 316 OFFCURVE",
"138 225 CURVE SMOOTH",
"134.648 208.866 OFFCURVE",
"132.7 191.591 OFFCURVE",
"132.7 174.361 CURVE SMOOTH",
"132.7 109.359 OFFCURVE",
"160.419 45 OFFCURVE",
"245 45 CURVE SMOOTH",
"310 45 OFFCURVE",
"391 93 OFFCURVE",
"421 110 CURVE"
);
},
{
closed = 1;
nodes = (
"399 594 LINE SMOOTH",
"391 589 OFFCURVE",
"385 587 OFFCURVE",
"381 587 CURVE SMOOTH",
"372 587 OFFCURVE",
"366 595 OFFCURVE",
"368 604 CURVE SMOOTH",
"369 607 OFFCURVE",
"370 612 OFFCURVE",
"377 617 CURVE SMOOTH",
"527 721 LINE SMOOTH",
"537 728 OFFCURVE",
"546 735 OFFCURVE",
"556 735 CURVE SMOOTH",
"565.655 735 OFFCURVE",
"574.539 724.985 OFFCURVE",
"574.539 713.069 CURVE SMOOTH",
"574.539 711.409 OFFCURVE",
"574.367 709.712 OFFCURVE",
"574 708 CURVE SMOOTH",
"573 701 OFFCURVE",
"571 697 OFFCURVE",
"563 692 CURVE SMOOTH"
);
}
);
userData = {
com.fontlab.hintData = {
hhints = (
{
position = 8;
width = 37;
},
{
position = 478;
width = 37;
}
);
vhints = (
{
position = 93;
width = 40;
}
);
};
};
width = 495;
}
);
unicode = 00E1;
},
{
glyphname = abreve;
layers = (
{
layerId = master01;
paths = (
{
closed = 1;
nodes = (
"442 21 LINE SMOOTH",
"439 9 OFFCURVE",
"430 0 OFFCURVE",
"419 0 CURVE SMOOTH",
"408.714 0 OFFCURVE",
"403.571 7.347 OFFCURVE",
"403.571 17.633 CURVE SMOOTH",
"403.571 19.347 OFFCURVE",
"403.714 21.143 OFFCURVE",
"404 23 CURVE",
"414 66 LINE",
"365 39 OFFCURVE",
"294 8 OFFCURVE",
"239 8 CURVE SMOOTH",
"149.921 8 OFFCURVE",
"92.622 69.441 OFFCURVE",
"92.622 165.022 CURVE SMOOTH",
"92.622 183.178 OFFCURVE",
"94.69 202.567 OFFCURVE",
"99 223 CURVE SMOOTH",
"121 327 OFFCURVE",
"226 515 OFFCURVE",
"400 515 CURVE SMOOTH",
"461 515 OFFCURVE",
"516 489 OFFCURVE",
"539 476 CURVE"
);
},
{
closed = 1;
nodes = (
"498 452 LINE",
"478 463 OFFCURVE",
"432 478 OFFCURVE",
"395 478 CURVE SMOOTH",
"245 478 OFFCURVE",
"158 316 OFFCURVE",
"138 225 CURVE SMOOTH",
"134.648 208.866 OFFCURVE",
"132.7 191.591 OFFCURVE",
"132.7 174.361 CURVE SMOOTH",
"132.7 109.359 OFFCURVE",
"160.419 45 OFFCURVE",
"245 45 CURVE SMOOTH",
"310 45 OFFCURVE",
"391 93 OFFCURVE",
"421 110 CURVE"
);
},
{
closed = 1;
nodes = (
"319 627 OFFCURVE",
"377 610 OFFCURVE",
"419 610 CURVE SMOOTH",
"475 610 OFFCURVE",
"521 636 OFFCURVE",
"555 688 CURVE SMOOTH",
"560 696 OFFCURVE",
"566 703 OFFCURVE",
"573 703 CURVE SMOOTH",
"577 703 OFFCURVE",
"579 700 OFFCURVE",
"578 696 CURVE SMOOTH",
"569 653 OFFCURVE",
"503 582 OFFCURVE",
"410 582 CURVE SMOOTH",
"303.626 582 OFFCURVE",
"278.535 656.438 OFFCURVE",
"278.535 683.433 CURVE SMOOTH",
"278.535 685.623 OFFCURVE",
"278.7 687.5 OFFCURVE",
"279 689 CURVE SMOOTH",
"280 693 OFFCURVE",
"282 698 OFFCURVE",
"289 698 CURVE SMOOTH",
"295 698 OFFCURVE",
"298 690 OFFCURVE",
"300 685 CURVE SMOOTH"
);
}
);
userData = {
com.fontlab.hintData = {
hhints = (
{
position = 8;
width = 37;
},
{
position = 478;
width = 37;
},
{
position = 582;
width = 28;
}
);
vhints = (
{
position = 93;
width = 40;
},
{
position = 555;
width = 23;
}
);
};
};
width = 495;
}
);
unicode = 0103;
},
{
glyphname = acircumflex;
layers = (
{
layerId = master01;
paths = (
{
closed = 1;
nodes = (
"473 748 OFFCURVE",
"479 746 OFFCURVE",
"482 742 CURVE SMOOTH",
"570 629 LINE SMOOTH",
"573 625 OFFCURVE",
"575 622 OFFCURVE",
"574 617 CURVE SMOOTH",
"572 608 OFFCURVE",
"562 599 OFFCURVE",
"553 599 CURVE SMOOTH",
"548 599 OFFCURVE",
"544 601 OFFCURVE",
"541 604 CURVE SMOOTH",
"456 699 LINE",
"312 603 LINE SMOOTH",
"308 601 OFFCURVE",
"304 599 OFFCURVE",
"300 599 CURVE SMOOTH",
"290 599 OFFCURVE",
"284 608 OFFCURVE",
"286 617 CURVE SMOOTH",
"287 622 OFFCURVE",
"291 627 OFFCURVE",
"295 630 CURVE SMOOTH",
"454 743 LINE SMOOTH",
"459 746 OFFCURVE",
"464 748 OFFCURVE",
"468 748 CURVE SMOOTH"
);
},
{
closed = 1;
nodes = (
"442 21 LINE SMOOTH",
"439 9 OFFCURVE",
"430 0 OFFCURVE",
"419 0 CURVE SMOOTH",
"408.714 0 OFFCURVE",
"403.571 7.347 OFFCURVE",
"403.571 17.633 CURVE SMOOTH",
"403.571 19.347 OFFCURVE",
"403.714 21.143 OFFCURVE",
"404 23 CURVE",
"414 66 LINE",
"365 39 OFFCURVE",
"294 8 OFFCURVE",
"239 8 CURVE SMOOTH",
"149.921 8 OFFCURVE",
"92.622 69.441 OFFCURVE",
"92.622 165.022 CURVE SMOOTH",
"92.622 183.178 OFFCURVE",
"94.69 202.567 OFFCURVE",
"99 223 CURVE SMOOTH",
"121 327 OFFCURVE",
"226 515 OFFCURVE",
"400 515 CURVE SMOOTH",
"461 515 OFFCURVE",
"516 489 OFFCURVE",
"539 476 CURVE"
);
},
{
closed = 1;
nodes = (
"498 452 LINE",
"478 463 OFFCURVE",
"432 478 OFFCURVE",
"395 478 CURVE SMOOTH",
"245 478 OFFCURVE",
"158 316 OFFCURVE",
"138 225 CURVE SMOOTH",
"134.648 208.866 OFFCURVE",
"132.7 191.591 OFFCURVE",
"132.7 174.361 CURVE SMOOTH",
"132.7 109.359 OFFCURVE",
"160.419 45 OFFCURVE",
"245 45 CURVE SMOOTH",
"310 45 OFFCURVE",
"391 93 OFFCURVE",
"421 110 CURVE"
);
}
);
userData = {
com.fontlab.hintData = {
hhints = (
{
position = 8;
width = 37;
},
{
position = 478;
width = 37;
}
);
vhints = (
{
position = 93;
width = 40;
}
);
};
};
width = 495;
}
);
unicode = 00E2;
},
{
glyphname = adieresis;
layers = (
{
layerId = master01;
paths = (
{
closed = 1;
nodes = (
"378.384 616.883 OFFCURVE",
"349.977 600 OFFCURVE",
"327 600 CURVE SMOOTH",
"309.732 600 OFFCURVE",
"296.594 610.738 OFFCURVE",
"296.594 625.457 CURVE SMOOTH",
"296.594 626.934 OFFCURVE",
"296.726 628.45 OFFCURVE",
"297 630 CURVE SMOOTH",
"301 649 OFFCURVE",
"324 666 OFFCURVE",
"348 666 CURVE SMOOTH",
"364.444 666 OFFCURVE",
"378.384 654.316 OFFCURVE",
"378.384 640.097 CURVE SMOOTH"
);
},
{
closed = 1;
nodes = (
"544.384 616.881 OFFCURVE",
"515.97 600 OFFCURVE",
"493 600 CURVE SMOOTH",
"474.927 600 OFFCURVE",
"462.57 610.615 OFFCURVE",
"462.57 625.205 CURVE SMOOTH",
"462.57 626.761 OFFCURVE",
"462.711 628.362 OFFCURVE",
"463 630 CURVE SMOOTH",
"467 649 OFFCURVE",
"489 666 OFFCURVE",
"513 666 CURVE SMOOTH",
"530.362 666 OFFCURVE",
"544.384 654.31 OFFCURVE",
"544.384 640.086 CURVE SMOOTH"
);
},
{
closed = 1;
nodes = (
"442 21 LINE SMOOTH",
"439 9 OFFCURVE",
"430 0 OFFCURVE",
"419 0 CURVE SMOOTH",
"408.714 0 OFFCURVE",
"403.571 7.347 OFFCURVE",
"403.571 17.633 CURVE SMOOTH",
"403.571 19.347 OFFCURVE",
"403.714 21.143 OFFCURVE",
"404 23 CURVE",
"414 66 LINE",
"365 39 OFFCURVE",
"294 8 OFFCURVE",
"239 8 CURVE SMOOTH",
"149.921 8 OFFCURVE",
"92.622 69.441 OFFCURVE",
"92.622 165.022 CURVE SMOOTH",
"92.622 183.178 OFFCURVE",
"94.69 202.567 OFFCURVE",
"99 223 CURVE SMOOTH",
"121 327 OFFCURVE",
"226 515 OFFCURVE",
"400 515 CURVE SMOOTH",
"461 515 OFFCURVE",
"516 489 OFFCURVE",
"539 476 CURVE"
);
},
{
closed = 1;
nodes = (
"498 452 LINE",
"478 463 OFFCURVE",
"432 478 OFFCURVE",
"395 478 CURVE SMOOTH",
"245 478 OFFCURVE",
"158 316 OFFCURVE",
"138 225 CURVE SMOOTH",
"134.648 208.866 OFFCURVE",
"132.7 191.591 OFFCURVE",
"132.7 174.361 CURVE SMOOTH",
"132.7 109.359 OFFCURVE",
"160.419 45 OFFCURVE",
"245 45 CURVE SMOOTH",
"310 45 OFFCURVE",
"391 93 OFFCURVE",
"421 110 CURVE"
);
}
);
userData = {
com.fontlab.hintData = {
hhints = (
{
position = 8;
width = 37;
},
{
position = 478;
width = 37;
},
{
position = 600;
width = 66;
}
);
vhints = (
{
position = 93;
width = 40;
},
{
position = 297;
width = 82;
},
{
position = 463;
width = 82;
}
);
};
};
width = 495;
}
);
unicode = 00E4;
},
{
glyphname = agrave;
layers = (
{
layerId = master01;
paths = (
{
closed = 1;
nodes = (
"442 21 LINE SMOOTH",
"439 9 OFFCURVE",
"430 0 OFFCURVE",
"419 0 CURVE SMOOTH",
"408.714 0 OFFCURVE",
"403.571 7.347 OFFCURVE",
"403.571 17.633 CURVE SMOOTH",
"403.571 19.347 OFFCURVE",
"403.714 21.143 OFFCURVE",
"404 23 CURVE",
"414 66 LINE",
"365 39 OFFCURVE",
"294 8 OFFCURVE",
"239 8 CURVE SMOOTH",
"149.921 8 OFFCURVE",
"92.622 69.441 OFFCURVE",
"92.622 165.022 CURVE SMOOTH",
"92.622 183.178 OFFCURVE",
"94.69 202.567 OFFCURVE",
"99 223 CURVE SMOOTH",
"121 327 OFFCURVE",
"226 515 OFFCURVE",
"400 515 CURVE SMOOTH",
"461 515 OFFCURVE",
"516 489 OFFCURVE",
"539 476 CURVE"
);
},
{
closed = 1;
nodes = (
"498 452 LINE",
"478 463 OFFCURVE",
"432 478 OFFCURVE",
"395 478 CURVE SMOOTH",
"245 478 OFFCURVE",
"158 316 OFFCURVE",
"138 225 CURVE SMOOTH",
"134.648 208.866 OFFCURVE",
"132.7 191.591 OFFCURVE",
"132.7 174.361 CURVE SMOOTH",
"132.7 109.359 OFFCURVE",
"160.419 45 OFFCURVE",
"245 45 CURVE SMOOTH",
"310 45 OFFCURVE",
"391 93 OFFCURVE",
"421 110 CURVE"
);
},
{
closed = 1;
nodes = (
"494 611 LINE SMOOTH",
"497 606 OFFCURVE",
"498 602 OFFCURVE",
"498 598 CURVE",
"495 588 OFFCURVE",
"484 582 OFFCURVE",
"475 582 CURVE SMOOTH",
"471 582 OFFCURVE",
"467 584 OFFCURVE",
"463 588 CURVE",
"367 714 LINE",
"364 720 OFFCURVE",
"362 726 OFFCURVE",
"363 733 CURVE SMOOTH",
"366 747 OFFCURVE",
"382 758 OFFCURVE",
"396 758 CURVE SMOOTH",
"404 758 OFFCURVE",
"410 755 OFFCURVE",
"414 747 CURVE SMOOTH"
);
}
);
userData = {
com.fontlab.hintData = {
hhints = (
{
position = 8;
width = 37;
},
{
position = 478;
width = 37;
}
);
vhints = (
{
position = 93;
width = 40;
}
);
};
};
width = 495;
}
);
unicode = 00E0;
},
{
glyphname = aogonek;
layers = (
{
layerId = master01;
paths = (
{
closed = 1;
nodes = (
"414 66 LINE",
"365 39 OFFCURVE",
"294 8 OFFCURVE",
"239 8 CURVE SMOOTH",
"149.921 8 OFFCURVE",
"92.622 69.441 OFFCURVE",
"92.622 165.022 CURVE SMOOTH",
"92.622 183.178 OFFCURVE",
"94.69 202.567 OFFCURVE",
"99 223 CURVE SMOOTH",
"121 327 OFFCURVE",
"226 515 OFFCURVE",
"400 515 CURVE SMOOTH",
"461 515 OFFCURVE",
"516 489 OFFCURVE",
"539 476 CURVE",
"442 21 LINE SMOOTH",
"439 5 OFFCURVE",
"421 -3 OFFCURVE",
"407 -12 CURVE SMOOTH",
"374 -33 OFFCURVE",
"331 -61 OFFCURVE",
"320 -110 CURVE SMOOTH",
"318.992 -114.915 OFFCURVE",
"318.508 -119.608 OFFCURVE",
"318.508 -124.056 CURVE SMOOTH",
"318.508 -154.904 OFFCURVE",
"341.789 -174 OFFCURVE",
"375 -174 CURVE SMOOTH",
"398 -174 OFFCURVE",
"422 -166 OFFCURVE",
"448 -150 CURVE SMOOTH",
"451 -148 OFFCURVE",
"454 -147 OFFCURVE",
"457 -147 CURVE SMOOTH",
"464 -147 OFFCURVE",
"471 -154 OFFCURVE",
"469 -162 CURVE SMOOTH",
"464 -186 OFFCURVE",
"401 -206 OFFCURVE",
"367 -206 CURVE SMOOTH",
"317.497 -206 OFFCURVE",
"286.85 -174.322 OFFCURVE",
"286.85 -129.961 CURVE SMOOTH",
"286.85 -123.243 OFFCURVE",
"287.553 -116.234 OFFCURVE",
"289 -109 CURVE SMOOTH",
"301 -53 OFFCURVE",
"354 -8 OFFCURVE",
"404 19 CURVE"
);
},
{
closed = 1;
nodes = (
"498 452 LINE",
"478 463 OFFCURVE",
"432 478 OFFCURVE",
"395 478 CURVE SMOOTH",
"245 478 OFFCURVE",
"158 316 OFFCURVE",
"138 225 CURVE SMOOTH",
"134.648 208.866 OFFCURVE",
"132.7 191.591 OFFCURVE",
"132.7 174.361 CURVE SMOOTH",
"132.7 109.359 OFFCURVE",
"160.419 45 OFFCURVE",
"245 45 CURVE SMOOTH",
"310 45 OFFCURVE",
"391 93 OFFCURVE",
"421 110 CURVE"
);
}
);
userData = {
com.fontlab.hintData = {
hhints = (
{
position = -206;
width = 32;
},
{
position = 8;
width = 37;
},
{
position = 478;
width = 37;
}
);
vhints = (
{
position = 93;
width = 40;
},
{
position = 287;
width = 32;
}
);
};
};
width = 495;
}
);
unicode = 0105;
},
{
glyphname = aring;
layers = (
{
layerId = master01;
paths = (
{
closed = 1;
nodes = (
"366.077 587 OFFCURVE",
"328.869 619.528 OFFCURVE",
"328.869 664.138 CURVE SMOOTH",
"328.869 670.218 OFFCURVE",
"329.561 676.523 OFFCURVE",
"331 683 CURVE SMOOTH",
"344 747 OFFCURVE",
"419 794 OFFCURVE",
"485 794 CURVE SMOOTH",
"535.733 794 OFFCURVE",
"573.79 759.936 OFFCURVE",
"573.79 714.371 CURVE SMOOTH",
"573.79 708.742 OFFCURVE",
"573.209 702.938 OFFCURVE",
"572 697 CURVE SMOOTH",
"558 631 OFFCURVE",
"483 587 OFFCURVE",
"418 587 CURVE SMOOTH"
);
},
{
closed = 1;
nodes = (
"412 766 OFFCURVE",
"361 718 OFFCURVE",
"354 683 CURVE SMOOTH",
"353.03 678.366 OFFCURVE",
"352.56 673.93 OFFCURVE",
"352.56 669.703 CURVE SMOOTH",
"352.56 634.699 OFFCURVE",
"384.819 614 OFFCURVE",
"433 614 CURVE SMOOTH",
"474 614 OFFCURVE",
"538 645 OFFCURVE",
"548 695 CURVE SMOOTH",
"548.863 698.775 OFFCURVE",
"549.284 702.562 OFFCURVE",
"549.284 706.314 CURVE SMOOTH",
"549.284 737.347 OFFCURVE",
"520.499 766 OFFCURVE",
"475 766 CURVE SMOOTH"
);
},
{
closed = 1;
nodes = (
"442 21 LINE SMOOTH",
"439 9 OFFCURVE",
"430 0 OFFCURVE",
"419 0 CURVE SMOOTH",
"408.714 0 OFFCURVE",
"403.571 7.347 OFFCURVE",
"403.571 17.633 CURVE SMOOTH",
"403.571 19.347 OFFCURVE",
"403.714 21.143 OFFCURVE",
"404 23 CURVE",
"414 66 LINE",
"365 39 OFFCURVE",
"294 8 OFFCURVE",
"239 8 CURVE SMOOTH",
"149.921 8 OFFCURVE",
"92.622 69.441 OFFCURVE",
"92.622 165.022 CURVE SMOOTH",
"92.622 183.178 OFFCURVE",
"94.69 202.567 OFFCURVE",
"99 223 CURVE SMOOTH",
"121 327 OFFCURVE",
"226 515 OFFCURVE",
"400 515 CURVE SMOOTH",
"461 515 OFFCURVE",
"516 489 OFFCURVE",
"539 476 CURVE"
);
},
{
closed = 1;
nodes = (
"498 452 LINE",
"478 463 OFFCURVE",
"432 478 OFFCURVE",
"395 478 CURVE SMOOTH",
"245 478 OFFCURVE",
"158 316 OFFCURVE",
"138 225 CURVE SMOOTH",
"134.648 208.866 OFFCURVE",
"132.7 191.591 OFFCURVE",
"132.7 174.361 CURVE SMOOTH",
"132.7 109.359 OFFCURVE",
"160.419 45 OFFCURVE",
"245 45 CURVE SMOOTH",
"310 45 OFFCURVE",
"391 93 OFFCURVE",
"421 110 CURVE"
);
}
);
userData = {
com.fontlab.hintData = {
hhints = (
{
position = 8;
width = 37;
},
{
position = 478;
width = 37;
},
{
position = 587;
width = 27;
},
{
position = 766;
width = 28;
}
);
vhints = (
{
position = 93;
width = 40;
},
{
position = 329;
width = 24;
},
{
position = 549;
width = 25;
}
);
};
};
width = 495;
}
);
unicode = 00E5;
},
{
glyphname = atilde;
layers = (
{
layerId = master01;
paths = (
{
closed = 1;
nodes = (
"442 21 LINE SMOOTH",
"439 9 OFFCURVE",
"430 0 OFFCURVE",
"419 0 CURVE SMOOTH",
"408.714 0 OFFCURVE",
"403.571 7.347 OFFCURVE",
"403.571 17.633 CURVE SMOOTH",
"403.571 19.347 OFFCURVE",
"403.714 21.143 OFFCURVE",
"404 23 CURVE",
"414 66 LINE",
"365 39 OFFCURVE",
"294 8 OFFCURVE",
"239 8 CURVE SMOOTH",
"149.921 8 OFFCURVE",
"92.622 69.441 OFFCURVE",
"92.622 165.022 CURVE SMOOTH",
"92.622 183.178 OFFCURVE",
"94.69 202.567 OFFCURVE",
"99 223 CURVE SMOOTH",
"121 327 OFFCURVE",
"226 515 OFFCURVE",
"400 515 CURVE SMOOTH",
"461 515 OFFCURVE",
"516 489 OFFCURVE",
"539 476 CURVE"
);
},
{
closed = 1;
nodes = (
"498 452 LINE",
"478 463 OFFCURVE",
"432 478 OFFCURVE",
"395 478 CURVE SMOOTH",
"245 478 OFFCURVE",
"158 316 OFFCURVE",
"138 225 CURVE SMOOTH",
"134.648 208.866 OFFCURVE",
"132.7 191.591 OFFCURVE",
"132.7 174.361 CURVE SMOOTH",
"132.7 109.359 OFFCURVE",
"160.419 45 OFFCURVE",
"245 45 CURVE SMOOTH",
"310 45 OFFCURVE",
"391 93 OFFCURVE",
"421 110 CURVE"
);
},
{
closed = 1;
nodes = (
"557 696 OFFCURVE",
"564 701 OFFCURVE",
"573 701 CURVE SMOOTH",
"582 701 OFFCURVE",
"585 695 OFFCURVE",
"584 687 CURVE",
"575 649 OFFCURVE",
"512 581 OFFCURVE",
"458 581 CURVE SMOOTH",
"417 581 OFFCURVE",
"403 612 OFFCURVE",
"389 638 CURVE",
"371 675 OFFCURVE",
"363 688 OFFCURVE",
"343 688 CURVE SMOOTH",
"327 688 OFFCURVE",
"284 675 OFFCURVE",
"255 617 CURVE SMOOTH",
"250 608 OFFCURVE",
"244 604 OFFCURVE",
"237 604 CURVE SMOOTH",
"227 604 OFFCURVE",
"226 612 OFFCURVE",
"227 620 CURVE",
"236 662 OFFCURVE",
"301 715 OFFCURVE",
"348 715 CURVE SMOOTH",
"389 715 OFFCURVE",
"404 685 OFFCURVE",
"417 657 CURVE SMOOTH",
"429 632 OFFCURVE",
"445 607 OFFCURVE",
"466 607 CURVE SMOOTH",
"504 607 OFFCURVE",
"535 658 OFFCURVE",
"554 690 CURVE SMOOTH"
);
}
);
userData = {
com.fontlab.hintData = {
hhints = (
{
position = 8;
width = 37;
},
{
position = 478;
width = 37;
},
{
position = 581;
width = 26;
},
{
position = 688;
width = 27;
}
);
vhints = (
{
position = 93;
width = 40;
},
{
position = 227;
width = 28;
}
);
};
};
width = 495;
}
);
unicode = 00E3;
},
{
glyphname = ae;
layers = (
{
layerId = master01;
paths = (
{
closed = 1;
nodes = (
"786 98 OFFCURVE",
"789 100 OFFCURVE",
"794 100 CURVE SMOOTH",
"803 100 OFFCURVE",
"808 93 OFFCURVE",
"807 85 CURVE",
"805 79 OFFCURVE",
"804 77 OFFCURVE",
"799 72 CURVE SMOOTH",
"757 32 OFFCURVE",
"684 0 OFFCURVE",
"624 0 CURVE SMOOTH",
"547 0 OFFCURVE",
"485 34 OFFCURVE",
"443 104 CURVE",
"424 18 LINE SMOOTH",
"422 9 OFFCURVE",
"412 0 OFFCURVE",
"403 0 CURVE SMOOTH",
"392 0 OFFCURVE",
"385 9 OFFCURVE",
"387 18 CURVE SMOOTH",
"397 64 LINE",
"351 38 OFFCURVE",
"282 8 OFFCURVE",
"230 8 CURVE SMOOTH",
"144.347 8 OFFCURVE",
"87.606 62.297 OFFCURVE",
"87.606 155.494 CURVE SMOOTH",
"87.606 173.281 OFFCURVE",
"89.673 192.486 OFFCURVE",
"94 213 CURVE SMOOTH",
"129 379 OFFCURVE",
"259 498 OFFCURVE",
"378 498 CURVE SMOOTH",
"432 498 OFFCURVE",
"493 475 OFFCURVE",
"518 462 CURVE",
"499 374 LINE",
"557 444 OFFCURVE",
"648 482 OFFCURVE",
"708 482 CURVE SMOOTH",
"815.254 482 OFFCURVE",
"857.241 414.256 OFFCURVE",
"857.241 370.378 CURVE SMOOTH",
"857.241 365.982 OFFCURVE",
"856.82 361.825 OFFCURVE",
"856 358 CURVE",
"854 352 OFFCURVE",
"848 345 OFFCURVE",
"834 338 CURVE SMOOTH",
"462 147 LINE",
"488 65 OFFCURVE",
"550 33 OFFCURVE",
"638 33 CURVE SMOOTH",
"687 33 OFFCURVE",
"745 60 OFFCURVE",
"783 95 CURVE SMOOTH"
);
},
{
closed = 1;
nodes = (
"480 438 LINE",
"462 447 OFFCURVE",
"416 464 OFFCURVE",
"379 464 CURVE SMOOTH",
"233 464 OFFCURVE",
"148 304 OFFCURVE",
"129 216 CURVE SMOOTH",
"125.411 198.774 OFFCURVE",
"123.626 182.16 OFFCURVE",
"123.626 166.493 CURVE SMOOTH",
"123.626 94.846 OFFCURVE",
"160.97 43 OFFCURVE",
"234 43 CURVE SMOOTH",
"290 43 OFFCURVE",
"369 81 OFFCURVE",
"404 106 CURVE"
);
},
{
closed = 1;
nodes = (
"594 448 OFFCURVE",
"491 355 OFFCURVE",
"464 228 CURVE SMOOTH",
"462 217 OFFCURVE",
"459 207 OFFCURVE",
"459 179 CURVE",
"824 362 LINE",
"807 424 OFFCURVE",
"773 448 OFFCURVE",
"701 448 CURVE SMOOTH"
);
}
);
userData = {
com.fontlab.hintData = {
hhints = (
{
position = 0;
width = 33;
},
{
position = 8;
width = 35;
},
{
position = 448;
width = 34;
},
{
position = 464;
width = 34;
}
);
vhints = (
{
position = 88;
width = 36;
}
);
};
};
width = 822;
}
);
unicode = 00E6;
},
{
glyphname = b;
layers = (
{
layerId = master01;
paths = (
{
closed = 1;
nodes = (
"503.806 491 OFFCURVE",
"537.743 420.501 OFFCURVE",
"537.743 341.244 CURVE SMOOTH",
"537.743 318.398 OFFCURVE",
"534.923 294.823 OFFCURVE",
"530 272 CURVE SMOOTH",
"499 126 OFFCURVE",
"411 7 OFFCURVE",
"258 7 CURVE SMOOTH",
"205 7 OFFCURVE",
"148 26 OFFCURVE",
"112 42 CURVE",
"107 17 LINE SMOOTH",
"105 8 OFFCURVE",
"96 0 OFFCURVE",
"86 0 CURVE SMOOTH",
"76 0 OFFCURVE",
"68 7 OFFCURVE",
"70 17 CURVE SMOOTH",
"212 683 LINE SMOOTH",
"214 692 OFFCURVE",
"224 698 OFFCURVE",
"234 698 CURVE SMOOTH",
"244 698 OFFCURVE",
"251 692 OFFCURVE",
"249 683 CURVE SMOOTH",
"186 388 LINE",
"253 451 OFFCURVE",
"337 491 OFFCURVE",
"406 491 CURVE SMOOTH"
);
},
{
closed = 1;
nodes = (
"395 42 OFFCURVE",
"466 133 OFFCURVE",
"495 272 CURVE SMOOTH",
"499.061 291.29 OFFCURVE",
"501.705 312.449 OFFCURVE",
"501.705 333.285 CURVE SMOOTH",
"501.705 394.538 OFFCURVE",
"478.856 453 OFFCURVE",
"402 453 CURVE SMOOTH",
"286 453 OFFCURVE",
"185 383 OFFCURVE",
"166 296 CURVE SMOOTH",
"119 74 LINE",
"138 65 OFFCURVE",
"196 42 OFFCURVE",
"257 42 CURVE SMOOTH"
);
}
);
userData = {
com.fontlab.hintData = {
hhints = (
{
position = 0;
width = 21;
},
{
position = 7;
width = 35;
},
{
position = 453;
width = 38;
}
);
vhints = (
{
position = 502;
width = 36;
}
);
};
};
width = 514;
}
);
unicode = 0062;
},
{
glyphname = c;
layers = (
{
layerId = master01;
paths = (
{
closed = 1;
nodes = (
"479 103 OFFCURVE",
"474 97 OFFCURVE",
"470 93 CURVE SMOOTH",
"426 43 OFFCURVE",
"351 3 OFFCURVE",
"277 0 CURVE SMOOTH",
"273.458 -0.18 OFFCURVE",
"269.943 -0.269 OFFCURVE",
"266.455 -0.269 CURVE SMOOTH",
"167.931 -0.269 OFFCURVE",
"92.14 70.854 OFFCURVE",
"92.14 170.411 CURVE SMOOTH",
"92.14 184.728 OFFCURVE",
"93.707 199.633 OFFCURVE",
"97 215 CURVE SMOOTH",
"107 263 OFFCURVE",
"131 308 OFFCURVE",
"146 334 CURVE",
"189 401 OFFCURVE",
"286 500 OFFCURVE",
"379 500 CURVE SMOOTH",
"451 500 OFFCURVE",
"483 474 OFFCURVE",
"512 430 CURVE SMOOTH",
"514 427 OFFCURVE",
"515 422 OFFCURVE",
"514 418 CURVE SMOOTH",
"512 408 OFFCURVE",
"503 400 OFFCURVE",
"494 400 CURVE SMOOTH",
"489 400 OFFCURVE",
"484 402 OFFCURVE",
"482 405 CURVE SMOOTH",
"459 441 OFFCURVE",
"431 467 OFFCURVE",
"374 467 CURVE SMOOTH",
"300 467 OFFCURVE",
"215 386 OFFCURVE",
"176 323 CURVE SMOOTH",
"151 281 OFFCURVE",
"139 246 OFFCURVE",
"133 217 CURVE SMOOTH",
"129.508 201.006 OFFCURVE",
"127.92 186.28 OFFCURVE",
"127.92 172.74 CURVE SMOOTH",
"127.92 66.071 OFFCURVE",
"226.519 33 OFFCURVE",
"270 33 CURVE SMOOTH",
"349 33 OFFCURVE",
"406 71 OFFCURVE",
"444 111 CURVE SMOOTH",
"449 117 OFFCURVE",
"457 124 OFFCURVE",
"466 124 CURVE SMOOTH",
"475 124 OFFCURVE",
"482 117 OFFCURVE",
"480 108 CURVE SMOOTH"
);
}
);
userData = {
com.fontlab.hintData = {
hhints = (
{
position = 0;
width = 33;
},
{
position = 467;
width = 33;
}
);
vhints = (
{
position = 92;
width = 36;
}
);
};
};
width = 499;
}
);
unicode = 0063;
},
{
glyphname = cacute;
layers = (
{
layerId = master01;
paths = (
{
closed = 1;
nodes = (
"479 103 OFFCURVE",
"474 97 OFFCURVE",
"470 93 CURVE SMOOTH",
"426 43 OFFCURVE",
"351 3 OFFCURVE",
"277 0 CURVE SMOOTH",
"273.458 -0.18 OFFCURVE",
"269.943 -0.269 OFFCURVE",
"266.455 -0.269 CURVE SMOOTH",
"167.931 -0.269 OFFCURVE",
"92.14 70.854 OFFCURVE",
"92.14 170.411 CURVE SMOOTH",
"92.14 184.728 OFFCURVE",
"93.707 199.633 OFFCURVE",
"97 215 CURVE SMOOTH",
"107 263 OFFCURVE",
"131 308 OFFCURVE",
"146 334 CURVE",
"189 401 OFFCURVE",
"286 500 OFFCURVE",
"379 500 CURVE SMOOTH",
"451 500 OFFCURVE",
"483 474 OFFCURVE",
"512 430 CURVE SMOOTH",
"514 427 OFFCURVE",
"515 422 OFFCURVE",
"514 418 CURVE SMOOTH",
"512 408 OFFCURVE",
"503 400 OFFCURVE",
"494 400 CURVE SMOOTH",
"489 400 OFFCURVE",
"484 402 OFFCURVE",
"482 405 CURVE SMOOTH",
"459 441 OFFCURVE",
"431 467 OFFCURVE",
"374 467 CURVE SMOOTH",
"300 467 OFFCURVE",
"215 386 OFFCURVE",
"176 323 CURVE SMOOTH",
"151 281 OFFCURVE",
"139 246 OFFCURVE",
"133 217 CURVE SMOOTH",
"129.508 201.006 OFFCURVE",
"127.92 186.28 OFFCURVE",
"127.92 172.74 CURVE SMOOTH",
"127.92 66.071 OFFCURVE",
"226.519 33 OFFCURVE",
"270 33 CURVE SMOOTH",
"349 33 OFFCURVE",
"406 71 OFFCURVE",
"444 111 CURVE SMOOTH",
"449 117 OFFCURVE",
"457 124 OFFCURVE",
"466 124 CURVE SMOOTH",
"475 124 OFFCURVE",
"482 117 OFFCURVE",
"480 108 CURVE SMOOTH"
);
},
{
closed = 1;
nodes = (
"372 594 LINE SMOOTH",
"364 589 OFFCURVE",
"358 587 OFFCURVE",
"354 587 CURVE SMOOTH",
"345 587 OFFCURVE",
"339 595 OFFCURVE",
"341 604 CURVE SMOOTH",
"342 607 OFFCURVE",
"343 612 OFFCURVE",
"350 617 CURVE SMOOTH",
"500 721 LINE SMOOTH",
"510 728 OFFCURVE",
"519 735 OFFCURVE",
"529 735 CURVE SMOOTH",
"538.655 735 OFFCURVE",
"547.539 724.985 OFFCURVE",
"547.539 713.069 CURVE SMOOTH",
"547.539 711.409 OFFCURVE",
"547.367 709.712 OFFCURVE",
"547 708 CURVE SMOOTH",
"546 701 OFFCURVE",
"544 697 OFFCURVE",
"536 692 CURVE SMOOTH"
);
}
);
userData = {
com.fontlab.hintData = {
hhints = (
{
position = 0;
width = 33;
},
{
position = 467;
width = 33;
}
);
vhints = (
{
position = 92;
width = 36;
}
);
};
};
width = 499;
}
);
unicode = 0107;
},
{
glyphname = ccaron;
layers = (
{
layerId = master01;
paths = (
{
closed = 1;
nodes = (
"392 589 OFFCURVE",
"386 591 OFFCURVE",
"383 595 CURVE SMOOTH",
"295 708 LINE SMOOTH",
"292 712 OFFCURVE",
"290 715 OFFCURVE",
"292 720 CURVE",
"293 729 OFFCURVE",
"303 738 OFFCURVE",
"312 738 CURVE SMOOTH",
"317 738 OFFCURVE",
"321 736 OFFCURVE",
"324 733 CURVE SMOOTH",
"409 638 LINE",
"554 734 LINE SMOOTH",
"557 736 OFFCURVE",
"561 738 OFFCURVE",
"565 738 CURVE SMOOTH",
"575 738 OFFCURVE",
"581 729 OFFCURVE",
"580 720 CURVE",
"578 715 OFFCURVE",
"574 710 OFFCURVE",
"570 707 CURVE SMOOTH",
"411 594 LINE SMOOTH",
"406 591 OFFCURVE",
"401 589 OFFCURVE",
"397 589 CURVE SMOOTH"
);
},
{
closed = 1;
nodes = (
"479 103 OFFCURVE",
"474 97 OFFCURVE",
"470 93 CURVE SMOOTH",
"426 43 OFFCURVE",
"351 3 OFFCURVE",
"277 0 CURVE SMOOTH",
"273.458 -0.18 OFFCURVE",
"269.943 -0.269 OFFCURVE",
"266.455 -0.269 CURVE SMOOTH",
"167.931 -0.269 OFFCURVE",
"92.14 70.854 OFFCURVE",
"92.14 170.411 CURVE SMOOTH",
"92.14 184.728 OFFCURVE",
"93.707 199.633 OFFCURVE",
"97 215 CURVE SMOOTH",
"107 263 OFFCURVE",
"131 308 OFFCURVE",
"146 334 CURVE",
"189 401 OFFCURVE",
"286 500 OFFCURVE",
"379 500 CURVE SMOOTH",
"451 500 OFFCURVE",
"483 474 OFFCURVE",
"512 430 CURVE SMOOTH",
"514 427 OFFCURVE",
"515 422 OFFCURVE",
"514 418 CURVE SMOOTH",
"512 408 OFFCURVE",
"503 400 OFFCURVE",
"494 400 CURVE SMOOTH",
"489 400 OFFCURVE",
"484 402 OFFCURVE",
"482 405 CURVE SMOOTH",
"459 441 OFFCURVE",
"431 467 OFFCURVE",
"374 467 CURVE SMOOTH",
"300 467 OFFCURVE",
"215 386 OFFCURVE",
"176 323 CURVE SMOOTH",
"151 281 OFFCURVE",
"139 246 OFFCURVE",
"133 217 CURVE SMOOTH",
"129.508 201.006 OFFCURVE",
"127.92 186.28 OFFCURVE",
"127.92 172.74 CURVE SMOOTH",
"127.92 66.071 OFFCURVE",
"226.519 33 OFFCURVE",
"270 33 CURVE SMOOTH",
"349 33 OFFCURVE",
"406 71 OFFCURVE",
"444 111 CURVE SMOOTH",
"449 117 OFFCURVE",
"457 124 OFFCURVE",
"466 124 CURVE SMOOTH",
"475 124 OFFCURVE",
"482 117 OFFCURVE",
"480 108 CURVE SMOOTH"
);
}
);
userData = {
com.fontlab.hintData = {
hhints = (
{
position = 0;
width = 33;
},
{
position = 467;
width = 33;
}
);
vhints = (
{
position = 92;
width = 36;
}
);
};
};
width = 499;
}
);
unicode = 010D;
},
{
glyphname = ccedilla;
layers = (
{
layerId = master01;
paths = (
{
closed = 1;
nodes = (
"246 0 LINE",
"158.23 14.773 OFFCURVE",
"92.36 79.388 OFFCURVE",
"92.36 171.533 CURVE SMOOTH",
"92.36 185.422 OFFCURVE",
"93.856 199.936 OFFCURVE",
"97 215 CURVE SMOOTH",
"107 263 OFFCURVE",
"131 308 OFFCURVE",
"146 334 CURVE",
"189 401 OFFCURVE",
"286 500 OFFCURVE",
"379 500 CURVE SMOOTH",
"451 500 OFFCURVE",
"483 474 OFFCURVE",
"512 430 CURVE SMOOTH",
"514 427 OFFCURVE",
"515 422 OFFCURVE",
"514 418 CURVE SMOOTH",
"512 408 OFFCURVE",
"503 400 OFFCURVE",
"494 400 CURVE SMOOTH",
"489 400 OFFCURVE",
"484 402 OFFCURVE",
"482 405 CURVE SMOOTH",
"459 441 OFFCURVE",
"431 467 OFFCURVE",
"374 467 CURVE SMOOTH",
"300 467 OFFCURVE",
"215 386 OFFCURVE",
"176 323 CURVE SMOOTH",
"151 281 OFFCURVE",
"139 246 OFFCURVE",
"133 217 CURVE SMOOTH",
"129.508 201.006 OFFCURVE",
"127.92 186.28 OFFCURVE",
"127.92 172.74 CURVE SMOOTH",
"127.92 66.071 OFFCURVE",
"226.519 33 OFFCURVE",
"270 33 CURVE SMOOTH",
"349 33 OFFCURVE",
"406 71 OFFCURVE",
"444 111 CURVE SMOOTH",
"449 117 OFFCURVE",
"457 124 OFFCURVE",
"466 124 CURVE SMOOTH",
"475 124 OFFCURVE",
"482 117 OFFCURVE",
"480 108 CURVE SMOOTH",
"479 103 OFFCURVE",
"474 97 OFFCURVE",
"470 93 CURVE SMOOTH",
"426 43 OFFCURVE",
"351 3 OFFCURVE",
"277 0 CURVE",
"260 0 LINE",
"250 -41 LINE",
"311.525 -41 OFFCURVE",
"340.01 -68.784 OFFCURVE",
"340.01 -105.481 CURVE SMOOTH",
"340.01 -111.132 OFFCURVE",
"339.335 -116.995 OFFCURVE",
"338 -123 CURVE SMOOTH",
"328 -170 OFFCURVE",
"283 -209 OFFCURVE",
"236 -209 CURVE SMOOTH",
"207.256 -209 OFFCURVE",
"173.354 -191.805 OFFCURVE",
"173.354 -168.577 CURVE SMOOTH",
"173.354 -166.753 OFFCURVE",
"173.563 -164.892 OFFCURVE",
"174 -163 CURVE SMOOTH",
"175 -157 OFFCURVE",
"181 -154 OFFCURVE",
"186 -154 CURVE SMOOTH",
"191 -154 OFFCURVE",
"193 -159 OFFCURVE",
"196 -164 CURVE SMOOTH",
"203 -174 OFFCURVE",
"212 -187 OFFCURVE",
"241 -187 CURVE SMOOTH",
"275 -187 OFFCURVE",
"308 -159 OFFCURVE",
"315 -125 CURVE SMOOTH",
"315.906 -120.597 OFFCURVE",
"316.343 -116.312 OFFCURVE",
"316.343 -112.187 CURVE SMOOTH",
"316.343 -84.46 OFFCURVE",
"296.597 -64 OFFCURVE",
"267 -64 CURVE SMOOTH",
"249 -64 OFFCURVE",
"237 -70 OFFCURVE",
"229 -75 CURVE SMOOTH",
"224 -78 OFFCURVE",
"221 -79 OFFCURVE",
"219 -79 CURVE SMOOTH",
"213 -79 OFFCURVE",
"209 -75 OFFCURVE",
"210 -69 CURVE SMOOTH",
"211 -65 OFFCURVE",
"236 -18 OFFCURVE",
"241 -9 CURVE SMOOTH"
);
}
);
userData = {
com.fontlab.hintData = {
hhints = (
{
position = -209;
width = 22;
},
{
position = -64;
width = 23;
},
{
position = 0;
width = 33;
},
{
position = 467;
width = 33;
}
);
vhints = (
{
position = 92;
width = 36;
},
{
position = 316;
width = 24;
}
);
};
};
width = 499;
}
);
unicode = 00E7;
},
{
glyphname = ccircumflex;
layers = (
{
layerId = master01;
paths = (
{
closed = 1;
nodes = (
"479 103 OFFCURVE",
"474 97 OFFCURVE",
"470 93 CURVE SMOOTH",
"426 43 OFFCURVE",
"351 3 OFFCURVE",
"277 0 CURVE SMOOTH",
"273.458 -0.18 OFFCURVE",
"269.943 -0.269 OFFCURVE",
"266.455 -0.269 CURVE SMOOTH",
"167.931 -0.269 OFFCURVE",
"92.14 70.854 OFFCURVE",
"92.14 170.411 CURVE SMOOTH",
"92.14 184.728 OFFCURVE",
"93.707 199.633 OFFCURVE",
"97 215 CURVE SMOOTH",
"107 263 OFFCURVE",
"131 308 OFFCURVE",
"146 334 CURVE SMOOTH",
"189 401 OFFCURVE",
"286 500 OFFCURVE",
"379 500 CURVE SMOOTH",
"451 500 OFFCURVE",
"483 474 OFFCURVE",
"512 430 CURVE SMOOTH",
"514 427 OFFCURVE",
"515 422 OFFCURVE",
"514 418 CURVE SMOOTH",
"512 408 OFFCURVE",
"503 400 OFFCURVE",
"494 400 CURVE SMOOTH",
"489 400 OFFCURVE",
"484 402 OFFCURVE",
"482 405 CURVE SMOOTH",
"459 441 OFFCURVE",
"431 467 OFFCURVE",
"374 467 CURVE SMOOTH",
"300 467 OFFCURVE",
"215 386 OFFCURVE",
"176 323 CURVE SMOOTH",
"151 281 OFFCURVE",
"139 246 OFFCURVE",
"133 217 CURVE SMOOTH",
"129.508 201.006 OFFCURVE",
"127.92 186.28 OFFCURVE",
"127.92 172.74 CURVE SMOOTH",
"127.92 66.071 OFFCURVE",
"226.519 33 OFFCURVE",
"270 33 CURVE SMOOTH",
"349 33 OFFCURVE",
"406 71 OFFCURVE",
"444 111 CURVE SMOOTH",
"449 117 OFFCURVE",
"457 124 OFFCURVE",
"466 124 CURVE SMOOTH",
"475 124 OFFCURVE",
"482 117 OFFCURVE",
"480 108 CURVE SMOOTH"
);
},
{
closed = 1;
nodes = (
"453 748 OFFCURVE",
"459 746 OFFCURVE",
"462 742 CURVE SMOOTH",
"550 629 LINE SMOOTH",
"553 625 OFFCURVE",
"555 622 OFFCURVE",
"554 617 CURVE SMOOTH",
"552 608 OFFCURVE",
"542 599 OFFCURVE",
"533 599 CURVE SMOOTH",
"528 599 OFFCURVE",
"524 601 OFFCURVE",
"521 604 CURVE SMOOTH",
"436 699 LINE",
"292 603 LINE SMOOTH",
"288 601 OFFCURVE",
"284 599 OFFCURVE",
"280 599 CURVE SMOOTH",
"270 599 OFFCURVE",
"264 608 OFFCURVE",
"266 617 CURVE SMOOTH",
"267 622 OFFCURVE",
"271 627 OFFCURVE",
"275 630 CURVE SMOOTH",
"434 743 LINE SMOOTH",
"439 746 OFFCURVE",
"444 748 OFFCURVE",
"448 748 CURVE SMOOTH"
);
}
);
userData = {
com.fontlab.hintData = {
hhints = (
{
position = 0;
width = 33;
},
{
position = 467;
width = 33;
}
);
vhints = (
{
position = 92;
width = 36;
}
);
};
};
width = 499;
}
);
unicode = 0109;
},
{
glyphname = d;
layers = (
{
layerId = master01;
paths = (
{
closed = 1;
nodes = (
"451 18 LINE SMOOTH",
"449 7 OFFCURVE",
"439 0 OFFCURVE",
"428 0 CURVE SMOOTH",
"416 0 OFFCURVE",
"411 9 OFFCURVE",
"414 22 CURVE SMOOTH",
"432 96 LINE",
"379 55 OFFCURVE",
"300 4 OFFCURVE",
"222 4 CURVE SMOOTH",
"129.985 4 OFFCURVE",
"92.712 74.473 OFFCURVE",
"92.712 158.019 CURVE SMOOTH",
"92.712 179.797 OFFCURVE",
"95.244 202.462 OFFCURVE",
"100 225 CURVE SMOOTH",
"131 368 OFFCURVE",
"216 498 OFFCURVE",
"371 498 CURVE SMOOTH",
"428 498 OFFCURVE",
"481 478 OFFCURVE",
"517 461 CURVE",
"570 686 LINE SMOOTH",
"572 696 OFFCURVE",
"584 705 OFFCURVE",
"594 705 CURVE SMOOTH",
"605 705 OFFCURVE",
"611 695 OFFCURVE",
"609 685 CURVE SMOOTH"
);
},
{
closed = 1;
nodes = (
"133.43 206.494 OFFCURVE",
"130.377 182.53 OFFCURVE",
"130.377 158.985 CURVE SMOOTH",
"130.377 94.946 OFFCURVE",
"152.958 34 OFFCURVE",
"229 34 CURVE SMOOTH",
"343 34 OFFCURVE",
"438 122 OFFCURVE",
"447 157 CURVE",
"508 419 LINE",
"488 430 OFFCURVE",
"429 463 OFFCURVE",
"366 463 CURVE SMOOTH",
"216 463 OFFCURVE",
"158 323 OFFCURVE",
"138 228 CURVE SMOOTH"
);
}
);
userData = {
com.fontlab.hintData = {
hhints = (
{
position = 0;
width = 34;
},
{
position = 463;
width = 35;
}
);
vhints = (
{
position = 93;
width = 38;
}
);
};
};
width = 520;
}
);
unicode = 0064;
},
{
glyphname = eth;
layers = (
{
layerId = master01;
paths = (
{
closed = 1;
nodes = (
"445.309 522.16 OFFCURVE",
"490.803 424.436 OFFCURVE",
"490.803 322.782 CURVE SMOOTH",
"490.803 300.656 OFFCURVE",
"488.648 278.344 OFFCURVE",
"484 256 CURVE SMOOTH",
"457 129 OFFCURVE",
"348 1 OFFCURVE",
"214 1 CURVE SMOOTH",
"136.375 1 OFFCURVE",
"84.218 51.935 OFFCURVE",
"84.218 131.46 CURVE SMOOTH",
"84.218 145.163 OFFCURVE",
"85.766 159.714 OFFCURVE",
"89 175 CURVE SMOOTH",
"122 332 OFFCURVE",
"261 428 OFFCURVE",
"437 435 CURVE",
"414 495 OFFCURVE",
"382 545 OFFCURVE",
"356 585 CURVE",
"303 559 OFFCURVE",
"262 535 OFFCURVE",
"242 523 CURVE SMOOTH",
"225 513 OFFCURVE",
"217 509 OFFCURVE",
"212 509 CURVE SMOOTH",
"208 509 OFFCURVE",
"205 513 OFFCURVE",
"205 517 CURVE SMOOTH",
"206 521 OFFCURVE",
"208 524 OFFCURVE",
"220 532 CURVE SMOOTH",
"232 541 OFFCURVE",
"255 553 OFFCURVE",
"283 568 CURVE SMOOTH",
"344 601 LINE",
"337 611 OFFCURVE",
"323 628 OFFCURVE",
"316 634 CURVE",
"306 645 OFFCURVE",
"299 651 OFFCURVE",
"300 658 CURVE SMOOTH",
"302 667 OFFCURVE",
"312 674 OFFCURVE",
"319 674 CURVE SMOOTH",
"324 674 OFFCURVE",
"326 673 OFFCURVE",
"330 670 CURVE SMOOTH",
"332 669 OFFCURVE",
"344 658 OFFCURVE",
"376 616 CURVE",
"417 636 OFFCURVE",
"505 678 OFFCURVE",
"517 678 CURVE SMOOTH",
"522 678 OFFCURVE",
"525 675 OFFCURVE",
"523 668 CURVE",
"523 665 OFFCURVE",
"520 663 OFFCURVE",
"518 662 CURVE SMOOTH",
"480 645 OFFCURVE",
"423 619 OFFCURVE",
"387 601 CURVE"
);
},
{
closed = 1;
nodes = (
"337 33 OFFCURVE",
"427 144 OFFCURVE",
"452 259 CURVE",
"455.356 276.153 OFFCURVE",
"456.904 293.862 OFFCURVE",
"456.904 311.765 CURVE SMOOTH",
"456.904 341.872 OFFCURVE",
"452.525 372.526 OFFCURVE",
"445 402 CURVE",
"303 402 OFFCURVE",
"157 341 OFFCURVE",
"121 174 CURVE SMOOTH",
"118.281 161.01 OFFCURVE",
"116.977 148.727 OFFCURVE",
"116.977 137.234 CURVE SMOOTH",
"116.977 72.639 OFFCURVE",
"158.178 33 OFFCURVE",
"221 33 CURVE SMOOTH"
);
}
);
userData = {
com.fontlab.hintData = {
hhints = (
{
position = 1;
width = 32;
},
{
position = 402;
width = 33;
},
{
position = 662;
width = 16;
}
);
vhints = (
{
position = 84;
width = 33;
},
{
position = 457;
width = 34;
}
);
};
};
width = 472;
}
);
unicode = 00F0;
},
{
glyphname = dcaron;
layers = (
{
layerId = master01;
paths = (
{
closed = 1;
nodes = (
"684 634 LINE",
"677 642 OFFCURVE",
"674 653 OFFCURVE",
"676 662 CURVE SMOOTH",
"680 682 OFFCURVE",
"699 698 OFFCURVE",
"715 698 CURVE SMOOTH",
"726.528 698 OFFCURVE",
"733.338 688.564 OFFCURVE",
"733.338 678.757 CURVE SMOOTH",
"733.338 657.744 OFFCURVE",
"724.947 649.913 OFFCURVE",
"702 612 CURVE SMOOTH",
"677 572 OFFCURVE",
"660 543 OFFCURVE",
"649 543 CURVE SMOOTH",
"642 543 OFFCURVE",
"637 548 OFFCURVE",
"638 553 CURVE SMOOTH",
"639 556 OFFCURVE",
"639 558 OFFCURVE",
"642 563 CURVE SMOOTH"
);
},
{
closed = 1;
nodes = (
"451 18 LINE SMOOTH",
"449 7 OFFCURVE",
"439 0 OFFCURVE",
"428 0 CURVE SMOOTH",
"416 0 OFFCURVE",
"411 9 OFFCURVE",
"414 22 CURVE SMOOTH",
"432 96 LINE",
"379 55 OFFCURVE",
"300 4 OFFCURVE",
"222 4 CURVE SMOOTH",
"129.985 4 OFFCURVE",
"92.712 74.473 OFFCURVE",
"92.712 158.019 CURVE SMOOTH",
"92.712 179.797 OFFCURVE",
"95.244 202.462 OFFCURVE",
"100 225 CURVE SMOOTH",
"131 368 OFFCURVE",
"216 498 OFFCURVE",
"371 498 CURVE SMOOTH",
"428 498 OFFCURVE",
"481 478 OFFCURVE",
"517 461 CURVE",
"570 686 LINE SMOOTH",
"572 696 OFFCURVE",
"584 705 OFFCURVE",
"594 705 CURVE SMOOTH",
"605 705 OFFCURVE",
"611 695 OFFCURVE",
"609 685 CURVE SMOOTH"
);
},
{
closed = 1;
nodes = (
"133.43 206.494 OFFCURVE",
"130.377 182.53 OFFCURVE",
"130.377 158.985 CURVE SMOOTH",
"130.377 94.946 OFFCURVE",
"152.958 34 OFFCURVE",
"229 34 CURVE SMOOTH",
"343 34 OFFCURVE",
"438 122 OFFCURVE",
"447 157 CURVE",
"508 419 LINE",
"488 430 OFFCURVE",
"429 463 OFFCURVE",
"366 463 CURVE SMOOTH",
"216 463 OFFCURVE",
"158 323 OFFCURVE",
"138 228 CURVE SMOOTH"
);
}
);
userData = {
com.fontlab.hintData = {
hhints = (
{
position = 0;
width = 34;
},
{
position = 463;
width = 35;
}
);
vhints = (
{
position = 93;
width = 38;
},
{
position = 676;
width = 57;
}
);
};
};
width = 535;
}
);
unicode = 010F;
},
{
glyphname = dcroat;
layers = (
{
layerId = master01;
paths = (
{
closed = 1;
nodes = (
"591 607 LINE",
"669 607 LINE SMOOTH",
"677 607 OFFCURVE",
"683 600 OFFCURVE",
"681 592 CURVE SMOOTH",
"679 582 OFFCURVE",
"670 575 OFFCURVE",
"662 575 CURVE SMOOTH",
"583 575 LINE",
"451 18 LINE SMOOTH",
"449 7 OFFCURVE",
"439 0 OFFCURVE",
"428 0 CURVE SMOOTH",
"416 0 OFFCURVE",
"411 9 OFFCURVE",
"414 22 CURVE SMOOTH",
"432 96 LINE",
"379 55 OFFCURVE",
"300 4 OFFCURVE",
"222 4 CURVE SMOOTH",
"129.985 4 OFFCURVE",
"92.712 74.473 OFFCURVE",
"92.712 158.019 CURVE SMOOTH",
"92.712 179.797 OFFCURVE",
"95.244 202.462 OFFCURVE",
"100 225 CURVE SMOOTH",
"131 368 OFFCURVE",
"216 498 OFFCURVE",
"371 498 CURVE SMOOTH",
"428 498 OFFCURVE",
"481 478 OFFCURVE",
"517 461 CURVE",
"544 575 LINE",
"458 575 LINE SMOOTH",
"448 575 OFFCURVE",
"442 582 OFFCURVE",
"444 592 CURVE SMOOTH",
"446 600 OFFCURVE",
"455 607 OFFCURVE",
"465 607 CURVE SMOOTH",
"552 607 LINE",
"570 686 LINE SMOOTH",
"572 696 OFFCURVE",
"584 705 OFFCURVE",
"594 705 CURVE SMOOTH",
"605 705 OFFCURVE",
"611 695 OFFCURVE",
"609 685 CURVE SMOOTH"
);
},
{
closed = 1;
nodes = (
"133.43 206.494 OFFCURVE",
"130.377 182.53 OFFCURVE",
"130.377 158.985 CURVE SMOOTH",
"130.377 94.946 OFFCURVE",
"152.958 34 OFFCURVE",
"229 34 CURVE SMOOTH",
"343 34 OFFCURVE",
"438 122 OFFCURVE",
"447 157 CURVE",
"508 419 LINE",
"488 430 OFFCURVE",
"429 463 OFFCURVE",
"366 463 CURVE SMOOTH",
"216 463 OFFCURVE",
"158 323 OFFCURVE",
"138 228 CURVE SMOOTH"
);
}
);
userData = {
com.fontlab.hintData = {
hhints = (
{
position = 0;
width = 34;
},
{
position = 463;
width = 35;
},
{
position = 575;
width = 32;
}
);
vhints = (
{
position = 93;
width = 38;
}
);
};
};
width = 547;
}
);
unicode = 0111;
},
{
glyphname = e;
layers = (
{
layerId = master01;
paths = (
{
closed = 1;
nodes = (
"486 79 OFFCURVE",
"483 75 OFFCURVE",
"480 72 CURVE SMOOTH",
"436 32 OFFCURVE",
"363 0 OFFCURVE",
"302 0 CURVE SMOOTH",
"169.535 0 OFFCURVE",
"97.786 85.452 OFFCURVE",
"97.786 188.864 CURVE SMOOTH",
"97.786 204.895 OFFCURVE",
"99.51 221.357 OFFCURVE",
"103 238 CURVE SMOOTH",
"132 376 OFFCURVE",
"247 499 OFFCURVE",
"382 499 CURVE SMOOTH",
"497.526 499 OFFCURVE",
"540.234 427.838 OFFCURVE",
"540.234 383.366 CURVE SMOOTH",
"540.234 378.948 OFFCURVE",
"539.813 374.795 OFFCURVE",
"539 371 CURVE SMOOTH",
"538 365 OFFCURVE",
"530 357 OFFCURVE",
"517 350 CURVE SMOOTH",
"134 155 LINE",
"161 74 OFFCURVE",
"220 33 OFFCURVE",
"308 33 CURVE SMOOTH",
"356 33 OFFCURVE",
"426 60 OFFCURVE",
"463 95 CURVE SMOOTH",
"466 98 OFFCURVE",
"470 100 OFFCURVE",
"474 100 CURVE SMOOTH",
"484 100 OFFCURVE",
"489 93 OFFCURVE",
"487 83 CURVE SMOOTH"
);
},
{
closed = 1;
nodes = (
"262 465 OFFCURVE",
"162 364 OFFCURVE",
"135 237 CURVE SMOOTH",
"132 225 OFFCURVE",
"130 216 OFFCURVE",
"130 188 CURVE",
"506 373 LINE",
"495 432 OFFCURVE",
"456 465 OFFCURVE",
"374 465 CURVE SMOOTH"
);
}
);
userData = {
com.fontlab.hintData = {
hhints = (
{
position = 0;
width = 33;
},
{
position = 465;
width = 34;
}
);
vhints = (
{
position = 98;
width = 32;
}
);
};
};
width = 511;
}
);
unicode = 0065;
},
{
glyphname = eacute;
layers = (
{
layerId = master01;
paths = (
{
closed = 1;
nodes = (
"486 79 OFFCURVE",
"483 75 OFFCURVE",
"480 72 CURVE SMOOTH",
"436 32 OFFCURVE",
"363 0 OFFCURVE",
"302 0 CURVE SMOOTH",
"169.535 0 OFFCURVE",
"97.786 85.452 OFFCURVE",
"97.786 188.864 CURVE SMOOTH",
"97.786 204.895 OFFCURVE",
"99.51 221.357 OFFCURVE",
"103 238 CURVE SMOOTH",
"132 376 OFFCURVE",
"247 499 OFFCURVE",
"382 499 CURVE SMOOTH",
"497.526 499 OFFCURVE",
"540.234 427.838 OFFCURVE",
"540.234 383.366 CURVE SMOOTH",
"540.234 378.948 OFFCURVE",
"539.813 374.795 OFFCURVE",
"539 371 CURVE SMOOTH",
"538 365 OFFCURVE",
"530 357 OFFCURVE",
"517 350 CURVE SMOOTH",
"134 155 LINE",
"161 74 OFFCURVE",
"220 33 OFFCURVE",
"308 33 CURVE SMOOTH",
"356 33 OFFCURVE",
"426 60 OFFCURVE",
"463 95 CURVE SMOOTH",
"466 98 OFFCURVE",
"470 100 OFFCURVE",
"474 100 CURVE SMOOTH",
"484 100 OFFCURVE",
"489 93 OFFCURVE",
"487 83 CURVE SMOOTH"
);
},
{
closed = 1;
nodes = (
"262 465 OFFCURVE",
"162 364 OFFCURVE",
"135 237 CURVE SMOOTH",
"132 225 OFFCURVE",
"130 216 OFFCURVE",
"130 188 CURVE",
"506 373 LINE",
"495 432 OFFCURVE",
"456 465 OFFCURVE",
"374 465 CURVE SMOOTH"
);
},
{
closed = 1;
nodes = (
"374 594 LINE SMOOTH",
"366 589 OFFCURVE",
"360 587 OFFCURVE",
"356 587 CURVE SMOOTH",
"347 587 OFFCURVE",
"341 595 OFFCURVE",
"343 604 CURVE SMOOTH",
"344 607 OFFCURVE",
"345 612 OFFCURVE",
"352 617 CURVE SMOOTH",
"502 721 LINE SMOOTH",
"512 728 OFFCURVE",
"521 735 OFFCURVE",
"531 735 CURVE SMOOTH",
"540.655 735 OFFCURVE",
"549.539 724.985 OFFCURVE",
"549.539 713.069 CURVE SMOOTH",
"549.539 711.409 OFFCURVE",
"549.367 709.712 OFFCURVE",
"549 708 CURVE SMOOTH",
"548 701 OFFCURVE",
"546 697 OFFCURVE",
"538 692 CURVE SMOOTH"
);
}
);
userData = {
com.fontlab.hintData = {
hhints = (
{
position = 0;
width = 33;
},
{
position = 465;
width = 34;
}
);
vhints = (
{
position = 98;
width = 32;
}
);
};
};
width = 511;
}
);
unicode = 00E9;
},
{
glyphname = ecaron;
layers = (
{
layerId = master01;
paths = (
{
closed = 1;
nodes = (
"486 79 OFFCURVE",
"483 75 OFFCURVE",
"480 72 CURVE SMOOTH",
"436 32 OFFCURVE",
"363 0 OFFCURVE",
"302 0 CURVE SMOOTH",
"169.535 0 OFFCURVE",
"97.786 85.452 OFFCURVE",
"97.786 188.864 CURVE SMOOTH",
"97.786 204.895 OFFCURVE",
"99.51 221.357 OFFCURVE",
"103 238 CURVE SMOOTH",
"132 376 OFFCURVE",
"247 499 OFFCURVE",
"382 499 CURVE SMOOTH",
"497.526 499 OFFCURVE",
"540.234 427.838 OFFCURVE",
"540.234 383.366 CURVE SMOOTH",
"540.234 378.948 OFFCURVE",
"539.813 374.795 OFFCURVE",
"539 371 CURVE SMOOTH",
"538 365 OFFCURVE",
"530 357 OFFCURVE",
"517 350 CURVE SMOOTH",
"134 155 LINE",
"161 74 OFFCURVE",
"220 33 OFFCURVE",
"308 33 CURVE SMOOTH",
"356 33 OFFCURVE",
"426 60 OFFCURVE",
"463 95 CURVE SMOOTH",
"466 98 OFFCURVE",
"470 100 OFFCURVE",
"474 100 CURVE SMOOTH",
"484 100 OFFCURVE",
"489 93 OFFCURVE",
"487 83 CURVE SMOOTH"
);
},
{
closed = 1;
nodes = (
"262 465 OFFCURVE",
"162 364 OFFCURVE",
"135 237 CURVE SMOOTH",
"132 225 OFFCURVE",
"130 216 OFFCURVE",
"130 188 CURVE",
"506 373 LINE",
"495 432 OFFCURVE",
"456 465 OFFCURVE",
"374 465 CURVE SMOOTH"
);
},
{
closed = 1;
nodes = (
"393 589 OFFCURVE",
"387 591 OFFCURVE",
"384 595 CURVE SMOOTH",
"296 708 LINE SMOOTH",
"293 712 OFFCURVE",
"291 715 OFFCURVE",
"293 720 CURVE",
"294 729 OFFCURVE",
"304 738 OFFCURVE",
"313 738 CURVE SMOOTH",
"318 738 OFFCURVE",
"322 736 OFFCURVE",
"325 733 CURVE SMOOTH",
"410 638 LINE",
"555 734 LINE SMOOTH",
"558 736 OFFCURVE",
"562 738 OFFCURVE",
"566 738 CURVE SMOOTH",
"576 738 OFFCURVE",
"582 729 OFFCURVE",
"581 720 CURVE",
"579 715 OFFCURVE",
"575 710 OFFCURVE",
"571 707 CURVE SMOOTH",
"412 594 LINE SMOOTH",
"407 591 OFFCURVE",
"402 589 OFFCURVE",
"398 589 CURVE SMOOTH"
);
}
);
userData = {
com.fontlab.hintData = {
hhints = (
{
position = 0;
width = 33;
},
{
position = 465;
width = 34;
}
);
vhints = (
{
position = 98;
width = 32;
}
);
};
};
width = 511;
}
);
unicode = 011B;
},
{
glyphname = ecircumflex;
layers = (
{
layerId = master01;
paths = (
{
closed = 1;
nodes = (
"486 79 OFFCURVE",
"483 75 OFFCURVE",
"480 72 CURVE SMOOTH",
"436 32 OFFCURVE",
"363 0 OFFCURVE",
"302 0 CURVE SMOOTH",
"169.535 0 OFFCURVE",
"97.786 85.452 OFFCURVE",
"97.786 188.864 CURVE SMOOTH",
"97.786 204.895 OFFCURVE",
"99.51 221.357 OFFCURVE",
"103 238 CURVE SMOOTH",
"132 376 OFFCURVE",
"247 499 OFFCURVE",
"382 499 CURVE SMOOTH",
"497.526 499 OFFCURVE",
"540.234 427.838 OFFCURVE",
"540.234 383.366 CURVE SMOOTH",
"540.234 378.948 OFFCURVE",
"539.813 374.795 OFFCURVE",
"539 371 CURVE SMOOTH",
"538 365 OFFCURVE",
"530 357 OFFCURVE",
"517 350 CURVE SMOOTH",
"134 155 LINE",
"161 74 OFFCURVE",
"220 33 OFFCURVE",
"308 33 CURVE SMOOTH",
"356 33 OFFCURVE",
"426 60 OFFCURVE",
"463 95 CURVE SMOOTH",
"466 98 OFFCURVE",
"470 100 OFFCURVE",
"474 100 CURVE SMOOTH",
"484 100 OFFCURVE",
"489 93 OFFCURVE",
"487 83 CURVE SMOOTH"
);
},
{
closed = 1;
nodes = (
"262 465 OFFCURVE",
"162 364 OFFCURVE",
"135 237 CURVE SMOOTH",
"132 225 OFFCURVE",
"130 216 OFFCURVE",
"130 188 CURVE",
"506 373 LINE",
"495 432 OFFCURVE",
"456 465 OFFCURVE",
"374 465 CURVE SMOOTH"
);
},
{
closed = 1;
nodes = (
"465 748 OFFCURVE",
"471 746 OFFCURVE",
"474 742 CURVE SMOOTH",
"562 629 LINE SMOOTH",
"565 625 OFFCURVE",
"567 622 OFFCURVE",
"566 617 CURVE SMOOTH",
"564 608 OFFCURVE",
"554 599 OFFCURVE",
"545 599 CURVE SMOOTH",
"540 599 OFFCURVE",
"536 601 OFFCURVE",
"533 604 CURVE SMOOTH",
"448 699 LINE",
"304 603 LINE SMOOTH",
"300 601 OFFCURVE",
"296 599 OFFCURVE",
"292 599 CURVE SMOOTH",
"282 599 OFFCURVE",
"276 608 OFFCURVE",
"278 617 CURVE SMOOTH",
"279 622 OFFCURVE",
"283 627 OFFCURVE",
"287 630 CURVE SMOOTH",
"446 743 LINE SMOOTH",
"451 746 OFFCURVE",
"456 748 OFFCURVE",
"460 748 CURVE SMOOTH"
);
}
);
userData = {
com.fontlab.hintData = {
hhints = (
{
position = 0;
width = 33;
},
{
position = 465;
width = 34;
}
);
vhints = (
{
position = 98;
width = 32;
}
);
};
};
width = 511;
}
);
unicode = 00EA;
},
